<svg width="375" height="430" viewBox="0 0 375 430" fill="none" xmlns="http://www.w3.org/2000/svg">
<g clip-path="url(#clip0_3_646)">
<path d="M315.651 408.758L186.63 408.166C179.181 408.12 172.055 405.125 166.811 399.838C161.568 394.551 158.635 387.402 158.656 379.958L160.024 56.7252C160.068 49.2781 163.065 42.1522 168.358 36.91C173.651 31.6677 180.809 28.7369 188.261 28.7601L317.282 29.3518C324.727 29.398 331.851 32.39 337.094 37.673C342.337 42.956 345.272 50.0995 345.257 57.54L343.888 380.773C343.849 388.224 340.855 395.354 335.561 400.601C330.267 405.847 323.107 408.781 315.651 408.758Z" fill="#455A64"/>
<path d="M317.098 40.5068L292.083 40.3904C290.437 40.421 288.869 41.1029 287.725 42.2866C286.58 43.4704 285.952 45.0593 285.978 46.7051V51.2447C285.991 52.0595 285.843 52.8688 285.542 53.6264C285.242 54.384 284.795 55.0749 284.227 55.6596C283.659 56.2443 282.981 56.7114 282.232 57.034C281.483 57.3567 280.678 57.5286 279.863 57.54L231.097 57.3169C229.45 57.2687 227.89 56.5713 226.757 55.3771C225.624 54.183 225.01 52.5892 225.049 50.944V46.4044C225.078 44.7701 224.462 43.1901 223.334 42.0065C222.206 40.8228 220.656 40.1307 219.021 40.08H210.227L188.339 39.9151C183.119 39.8893 178.104 41.9358 174.394 45.6047C170.684 49.2736 168.585 54.2644 168.556 59.48L167.227 374.982C167.203 380.198 169.254 385.209 172.927 388.914C176.6 392.62 181.596 394.715 186.815 394.741L315.583 395.333C318.168 395.344 320.73 394.847 323.123 393.869C325.516 392.891 327.692 391.452 329.528 389.633C331.365 387.814 332.824 385.652 333.824 383.27C334.824 380.888 335.344 378.332 335.356 375.749L336.686 60.256C336.697 57.674 336.2 55.1149 335.221 52.725C334.243 50.3352 332.804 48.1612 330.985 46.3273C329.166 44.4934 327.003 43.0355 324.62 42.0368C322.238 41.0381 319.681 40.5182 317.098 40.5068Z" fill="#FAFAFA"/>
<path d="M168.401 97.3585H189.503L208.334 116.186L188.756 135.751L168.624 115.624L168.401 97.3585Z" fill="#EBEBEB"/>
<path d="M212.634 107.922L202.054 97.3585H225.855L212.634 107.922Z" fill="#EBEBEB"/>
<path d="M221.885 116.555L240.415 98.0375H305.158C305.158 98.0375 315.069 142.27 276.038 170.671L221.885 116.555Z" fill="#EBEBEB"/>
<path d="M213.955 122.452L194.134 142.27L248.986 197.084L268.807 176.607L213.955 122.452Z" fill="#EBEBEB"/>
<path d="M168.158 153.502L180.583 140.62L168.401 128.447L168.158 153.502Z" fill="#EBEBEB"/>
<path d="M188.018 148.216L168.935 167.286V193.786L208.334 234.07L241.716 203.03L188.018 148.216Z" fill="#EBEBEB"/>
<path d="M283.464 176.229C283.464 176.229 324.348 146.276 311.128 98.0375H336.55L336.239 234.187L283.464 176.229Z" fill="#EBEBEB"/>
<path d="M275.776 184.086L256.013 204.708L316.622 265.285L335.162 245.652L275.776 184.086Z" fill="#EBEBEB"/>
<path d="M247.753 210.354L216.682 241.18L278.824 302.843L309.837 272.88L247.753 210.354Z" fill="#EBEBEB"/>
<path d="M231.465 364.807L278.97 315.608L324.154 361.635L231.465 364.807Z" fill="#EBEBEB"/>
<path d="M286.376 309.255L335.88 260.27C335.88 262.443 335.453 361.839 335.453 361.839L286.376 309.255Z" fill="#EBEBEB"/>
<path d="M244.026 281.746L272.088 309.788L216.682 366.921L191.086 336.24L244.026 281.746Z" fill="#EBEBEB"/>
<path d="M168.207 340.217C170.857 339.956 238.716 276.45 238.716 276.45L168.207 203.438V340.217Z" fill="#EBEBEB"/>
<path d="M167.227 354.69L183.563 340.217L206.189 366.922H167.227V356.707" fill="#EBEBEB"/>
<path d="M188.339 78.1331C186.612 76.8601 184.989 75.4524 183.485 73.9233C183.485 73.1861 183.485 73.7196 183.485 73.5547L183.553 73.4965L183.67 73.3898L183.912 73.1667L184.378 72.7302L185.262 71.9154L186.785 70.5574C187.247 70.0862 187.769 69.6784 188.339 69.3449C187.992 69.8724 187.574 70.349 187.096 70.7611L185.64 72.1967L184.776 73.0309L184.31 73.4771L184.077 73.7002L183.951 73.8069L183.893 73.8651V73.4965C185.493 74.9241 186.98 76.4743 188.339 78.1331Z" fill="#263238"/>
<path d="M322.533 70.732C322.535 70.9419 322.474 71.1477 322.359 71.323C322.243 71.4984 322.078 71.6354 321.885 71.7166C321.691 71.7978 321.477 71.8196 321.271 71.7791C321.065 71.7386 320.876 71.6377 320.727 71.4893C320.579 71.3408 320.478 71.1516 320.437 70.9456C320.397 70.7396 320.418 70.5262 320.5 70.3326C320.581 70.139 320.718 69.974 320.893 69.8585C321.069 69.7431 321.275 69.6825 321.485 69.6844C321.763 69.6844 322.03 69.7948 322.226 69.9912C322.423 70.1877 322.533 70.4542 322.533 70.732Z" fill="#263238"/>
<path d="M322.232 73.6129C322.381 73.7607 322.482 73.9491 322.523 74.1542C322.564 74.3594 322.543 74.5721 322.463 74.7654C322.383 74.9587 322.247 75.124 322.073 75.2402C321.899 75.3565 321.694 75.4186 321.485 75.4186C321.276 75.4186 321.071 75.3565 320.897 75.2402C320.723 75.124 320.587 74.9587 320.507 74.7654C320.427 74.5721 320.406 74.3594 320.447 74.1542C320.488 73.9491 320.589 73.7607 320.738 73.6129C320.937 73.4174 321.206 73.3079 321.485 73.3079C321.765 73.3079 322.033 73.4174 322.232 73.6129Z" fill="#263238"/>
<path d="M322.533 77.9779C322.508 78.2396 322.386 78.4825 322.192 78.6593C321.997 78.8361 321.743 78.934 321.48 78.934C321.217 78.934 320.963 78.8361 320.769 78.6593C320.574 78.4825 320.452 78.2396 320.427 77.9779C320.413 77.8312 320.43 77.6832 320.476 77.5433C320.523 77.4035 320.598 77.2749 320.697 77.1658C320.796 77.0567 320.917 76.9695 321.052 76.9099C321.187 76.8503 321.333 76.8194 321.48 76.8194C321.628 76.8194 321.773 76.8503 321.908 76.9099C322.043 76.9695 322.164 77.0567 322.263 77.1658C322.362 77.2749 322.438 77.4035 322.484 77.5433C322.531 77.6832 322.547 77.8312 322.533 77.9779Z" fill="#263238"/>
<path d="M277.048 75.0291H231.64V78.8121H277.048V75.0291Z" fill="#263238"/>
<path d="M272.107 142.9C272.107 125.227 253.529 114.033 234.581 122.889C230.294 124.89 226.787 128.248 224.603 132.443C219.837 141.668 221.943 152.202 226.263 160.952L241.017 198.306C241.483 199.497 242.297 200.519 243.353 201.24C244.41 201.96 245.659 202.346 246.938 202.346C248.217 202.346 249.466 201.96 250.522 201.24C251.579 200.519 252.393 199.497 252.859 198.306L267.312 160.758C272.321 149.312 272.107 142.9 272.107 142.9ZM254.344 158.323C241.609 165.724 228.699 152.047 235.678 138.545C236.598 136.764 238 135.278 239.726 134.257C252.471 126.856 265.38 140.533 258.392 154.036C257.476 155.819 256.072 157.306 254.344 158.323Z" fill="#836FE2"/>
<path d="M658.209 277.846H119.664V356.814H658.209V277.846Z" fill="#836FE2"/>
<g opacity="0.5">
<path d="M658.209 277.846H119.664V356.814H658.209V277.846Z" fill="black"/>
</g>
<path d="M195.525 408.054C224.141 406.13 245.777 381.388 243.851 352.792C241.926 324.196 217.167 302.574 188.551 304.499C159.935 306.423 138.299 331.165 140.224 359.761C142.15 388.357 166.909 409.979 195.525 408.054Z" fill="#263238"/>
<path d="M140.116 355.398C140.116 355.446 140.116 355.495 140.116 355.534C140.017 362.349 141.263 369.116 143.781 375.45C146.3 381.784 150.042 387.56 154.794 392.449C159.547 397.338 165.216 401.243 171.479 403.942C177.741 406.642 184.475 408.082 191.294 408.18C198.114 408.279 204.886 407.035 211.225 404.518C217.563 402.001 223.343 398.261 228.235 393.512C233.127 388.763 237.035 383.098 239.737 376.839C242.438 370.581 243.879 363.852 243.977 357.037C243.977 356.989 243.977 356.94 243.977 356.901L140.116 355.398Z" fill="#263238"/>
<path d="M155.579 355.757C155.472 362.963 157.506 370.038 161.424 376.089C165.342 382.139 170.967 386.893 177.589 389.748C184.21 392.603 191.53 393.432 198.623 392.129C205.716 390.827 212.263 387.451 217.436 382.43C222.609 377.408 226.175 370.967 227.684 363.919C229.193 356.872 228.577 349.536 225.913 342.839C223.249 336.142 218.658 330.385 212.719 326.296C206.781 322.207 199.762 319.969 192.551 319.867C182.887 319.729 173.563 323.433 166.63 330.163C159.697 336.893 155.722 346.099 155.579 355.757Z" fill="#FAFAFA"/>
<path d="M192.551 319.857C182.886 319.717 173.561 323.42 166.627 330.15C159.694 336.881 155.719 346.088 155.579 355.747L228.486 356.804C228.623 347.143 224.914 337.823 218.175 330.894C211.437 323.965 202.219 319.995 192.551 319.857Z" fill="#E0E0E0"/>
<path d="M169.828 355.961C169.763 360.35 171.003 364.66 173.389 368.346C175.776 372.032 179.203 374.927 183.237 376.666C187.271 378.405 191.73 378.91 196.051 378.116C200.371 377.322 204.359 375.265 207.51 372.206C210.661 369.147 212.833 365.223 213.752 360.93C214.671 356.637 214.295 352.168 212.672 348.088C211.049 344.009 208.251 340.502 204.634 338.011C201.016 335.521 196.74 334.159 192.348 334.097C189.432 334.054 186.537 334.586 183.828 335.662C181.118 336.738 178.647 338.337 176.556 340.367C174.465 342.397 172.794 344.82 171.64 347.495C170.486 350.171 169.87 353.047 169.828 355.961Z" fill="#263238"/>
<path d="M260.1 233.42C260.1 233.42 183.631 239.056 155.268 245.41C135.292 249.881 96.7757 257.612 97.2416 281.823L100.299 299.186C100.299 299.186 86.0207 305.705 86.0207 322.35C86.0207 338.995 82.536 364.797 115.888 365.835C121.382 366 131.817 365.835 131.817 365.835C131.817 365.835 125.42 294.851 190.668 292.775C257.052 290.66 252.645 365.185 252.645 365.185H529.703C529.703 365.185 518.327 292.581 589.787 292.435C661.248 292.29 650.376 365.661 650.376 365.661C650.376 365.661 676.662 367.93 688.892 345.853C701.123 323.776 697.948 308.023 697.948 308.023L697.541 294.065C697.463 291.774 696.518 289.598 694.896 287.978C693.274 286.357 691.097 285.412 688.805 285.335C688.805 285.335 693.58 250.201 686.252 244.12C678.923 238.038 638.767 201.343 638.767 201.343L640.708 200.149C641.428 199.695 642.004 199.046 642.369 198.277C642.735 197.509 642.875 196.653 642.773 195.808C642.672 194.963 642.333 194.164 641.795 193.504C641.258 192.845 640.545 192.35 639.738 192.079C624.488 186.841 594.339 176.472 587.254 173.998C586.192 173.621 585.086 173.386 583.963 173.3C579.731 172.98 567.753 172.223 545.767 171.99C518.987 171.699 412.66 171.99 412.66 171.99C412.66 171.99 376.066 174.997 355.682 183.96C334.308 193.389 260.1 233.42 260.1 233.42Z" fill="#836FE2"/>
<g opacity="0.4">
<path d="M105.415 320.41C102.639 319.847 98.387 319.799 96.2709 321.671C94.6985 323.068 94.2811 325.328 94.0481 327.413C93.6023 330.27 93.668 333.183 94.2423 336.017C94.5351 337.433 95.1173 338.772 95.9525 339.953C96.7876 341.133 97.8577 342.128 99.0956 342.875C101.639 344.253 105.114 344.029 107.084 341.905C108.89 339.965 109.093 337.055 109.026 334.465C108.958 330.721 109.258 327.549 108.569 323.873C108.417 323.093 108.085 322.358 107.599 321.729C107.357 321.353 107.031 321.037 106.648 320.806C106.264 320.576 105.832 320.437 105.386 320.4" fill="black"/>
</g>
<path d="M100.319 299.186C108.433 299.186 116.306 298.74 124.411 298.216C125.294 298.255 126.163 297.992 126.876 297.47C127.202 297.064 127.445 296.598 127.59 296.099C127.735 295.599 127.779 295.076 127.721 294.56C127.721 290.214 127.546 285.267 124.246 282.435C122.227 280.708 119.46 280.165 116.81 279.922C110.23 279.212 103.573 279.872 97.2611 281.862L100.319 299.186Z" fill="#FAFAFA"/>
<path d="M268.904 362.964C268.904 362.964 268.904 362.731 268.846 362.265C268.788 361.8 268.768 361.111 268.71 360.228C268.613 358.424 268.467 355.796 268.283 352.401C268.098 349.006 267.865 344.844 267.38 340.033C266.879 334.585 265.921 329.19 264.517 323.902C262.745 317.515 260.116 311.397 256.703 305.714C252.836 299.153 247.698 293.428 241.59 288.875C228.495 279.563 210.8 274.325 192.289 274.073C173.779 273.821 156.074 279.67 143.3 289.477C137.177 294.004 131.813 299.475 127.41 305.685C123.565 311.078 120.439 316.947 118.111 323.145C116.19 328.269 114.871 333.597 114.18 339.024C113.639 343.117 113.479 347.251 113.704 351.372C113.863 353.977 114.188 356.569 114.675 359.132C114.83 359.996 114.956 360.665 115.034 361.131C115.112 361.596 115.141 361.819 115.141 361.819C115.141 361.819 115.083 361.596 114.985 361.15L114.568 359.21C114.04 356.651 113.69 354.058 113.52 351.45C113.256 347.315 113.386 343.164 113.908 339.053C114.577 333.599 115.88 328.24 117.791 323.087C120.111 316.84 123.237 310.921 127.09 305.482C131.503 299.221 136.89 293.706 143.047 289.147C155.88 279.292 173.623 273.384 192.28 273.627C210.936 273.869 228.66 279.156 241.861 288.555C248.007 293.153 253.171 298.931 257.052 305.55C260.463 311.276 263.075 317.441 264.818 323.873C266.214 329.183 267.153 334.602 267.623 340.072C268.079 344.922 268.283 349.054 268.438 352.449C268.593 355.844 268.7 358.482 268.778 360.287C268.778 361.169 268.836 361.848 268.856 362.324C268.875 362.799 268.904 362.964 268.904 362.964Z" fill="white"/>
<path d="M271.816 364.167V363.585L271.758 361.868C271.709 360.335 271.641 358.094 271.544 355.165C271.379 349.277 271.137 340.673 270.826 329.722C270.515 318.771 270.156 305.472 269.739 290.243C269.632 286.431 269.535 282.483 269.418 278.458C269.35 276.4 269.441 274.341 269.69 272.298L270.127 269.175L270.768 266.042C271.773 261.761 273.22 257.597 275.087 253.616C277.009 249.443 279.386 245.493 282.173 241.84L330.153 211.634L343.112 203.486C347.479 200.586 352.065 198.027 356.827 195.833C361.697 193.541 366.694 191.53 371.795 189.809C374.338 188.917 376.949 188.189 379.56 187.413C382.171 186.637 384.831 185.997 387.529 185.473C397.704 183.298 408.048 182 418.445 181.593C428.422 181.116 438.417 181.148 448.39 181.69H448.672L448.604 181.972L435.713 239.599C433.332 243.507 431.379 247.66 429.889 251.986C428.423 256.089 427.763 260.437 427.948 264.79C428.278 269.049 428.394 273.219 428.501 277.264C428.608 281.309 428.656 285.228 428.734 289.04C428.957 304.269 429.015 317.548 429.054 328.49C429.093 339.432 429.054 348.036 429.054 353.914C429.054 356.824 429.054 359.084 429.054 360.617C429.054 361.363 429.054 361.936 429.054 362.333C429.054 362.731 429.054 362.915 429.054 362.915C429.054 362.915 429.054 362.712 429.054 362.333C429.054 361.955 429.054 361.363 429.054 360.617C429.054 359.084 429.054 356.843 429.054 353.914C429.054 348.036 428.967 339.432 428.899 328.5C428.831 317.568 428.734 304.25 428.472 289.04C428.394 285.238 428.31 281.316 428.22 277.274C428.103 273.229 427.987 269.078 427.647 264.819C427.45 260.412 428.109 256.008 429.588 251.85C431.068 247.489 433.021 243.303 435.412 239.367V239.434C439.363 221.693 443.682 202.332 448.254 181.797L448.477 182.088C438.526 181.552 428.554 181.526 418.6 182.01C408.228 182.412 397.91 183.71 387.762 185.89C385.073 186.424 382.453 187.171 379.822 187.83C377.192 188.49 374.619 189.334 372.057 190.217C366.956 191.94 361.959 193.954 357.089 196.25C352.351 198.43 347.788 200.972 343.442 203.855L330.473 212.003L282.493 242.141V242.092C279.711 245.721 277.341 249.648 275.427 253.8C273.562 257.751 272.118 261.886 271.117 266.138C268.933 274.451 270.03 282.628 270.049 290.243L271.02 329.722C271.282 340.664 271.486 349.277 271.622 355.155C271.69 358.065 271.729 360.335 271.768 361.868C271.768 362.611 271.768 363.184 271.768 363.585C271.816 363.973 271.816 364.167 271.816 364.167Z" fill="#263238"/>
<path d="M285.988 241.888L434.238 239.153L530.722 237.388L562.54 219.026C563.145 218.674 563.668 218.197 564.075 217.628C564.482 217.059 564.763 216.41 564.9 215.724C565.036 215.037 565.026 214.33 564.868 213.649C564.711 212.967 564.41 212.327 563.987 211.77L544.175 185.764C543.158 184.425 541.846 183.337 540.342 182.584C538.837 181.831 537.18 181.432 535.498 181.419L427.579 180.546C427.579 180.546 386.947 178.179 354.925 196.066C321.252 214.952 285.988 241.888 285.988 241.888Z" fill="#263238"/>
<path d="M353.925 183.233C353.925 183.233 361.36 186.618 356.526 189.751C351.692 192.884 276.582 240.191 276.582 240.191L259.314 232.383C289.9 215.378 320.786 198.84 353.925 183.233Z" fill="#455A64"/>
<path d="M279.009 241.394L278.543 241.51L277.174 241.811L271.903 242.897C267.322 243.809 260.682 245.089 252.49 246.506C235.989 249.338 213.159 252.636 187.756 254.828C181.398 255.381 175.138 255.798 169.197 256.225C163.257 256.652 157.413 256.991 151.919 257.486C140.922 258.456 131.079 260.047 123.081 262.423C116.723 264.19 110.605 266.724 104.861 269.97C102.794 271.056 101.318 272.123 100.28 272.764L99.0956 273.51L98.6782 273.753C98.8028 273.653 98.9324 273.559 99.0665 273.472L100.222 272.676C101.25 272.007 102.706 270.911 104.764 269.766C110.473 266.432 116.578 263.825 122.935 262.006C130.953 259.572 140.825 257.932 151.832 256.953C157.336 256.429 163.121 256.06 169.12 255.662C175.118 255.265 181.321 254.799 187.669 254.246C213.062 252.054 235.921 248.814 252.393 246.069C260.634 244.701 267.273 243.479 271.865 242.626L277.155 241.656L278.533 241.403L279.009 241.394Z" fill="#263238"/>
<path d="M515.735 332.933C515.735 333.078 459.96 333.185 391.169 333.185C322.378 333.185 266.594 333.078 266.594 332.933C266.594 332.787 322.359 332.68 391.169 332.68C459.98 332.68 515.735 332.797 515.735 332.933Z" fill="#263238"/>
<path d="M125.245 308.566C125.245 308.712 117.354 308.818 107.628 308.818C97.9017 308.818 90.0101 308.712 90.0101 308.566C90.0101 308.421 97.9017 308.314 107.628 308.314C117.354 308.314 125.245 308.43 125.245 308.566Z" fill="#263238"/>
<path d="M304.586 236.874C304.586 236.874 351.974 202.671 370.669 195.872C388.713 189.315 398.119 187.666 415.067 187.142C431.267 186.676 441.139 187.142 441.139 187.142L428.617 235.302L304.586 236.874Z" fill="#455A64"/>
<path d="M297.655 236.99C297.656 235.517 298.048 234.071 298.792 232.8C299.535 231.528 300.604 230.477 301.887 229.754L312.778 223.643C315.88 221.898 319.381 220.982 322.941 220.985C325.133 220.988 327.311 221.335 329.396 222.013C331.665 222.798 333.641 224.255 335.06 226.191C336.478 228.127 337.272 230.449 337.336 232.848C337.397 234.459 337.133 236.066 336.558 237.573C335.983 239.079 335.11 240.454 333.99 241.615C332.871 242.776 331.529 243.7 330.044 244.33C328.559 244.96 326.962 245.285 325.348 245.283H305.935C303.737 245.278 301.631 244.402 300.079 242.848C298.527 241.293 297.655 239.186 297.655 236.99Z" fill="#836FE2"/>
<path d="M297.655 236.99C297.655 236.99 297.655 237.359 297.781 238.038C297.928 239.036 298.257 240 298.752 240.88C299.536 242.266 300.693 243.405 302.091 244.168C302.963 244.624 303.91 244.92 304.887 245.041C306.001 245.123 307.119 245.146 308.235 245.109L324.844 245.051C326.418 245.093 327.985 244.836 329.464 244.294C331.024 243.711 332.443 242.804 333.627 241.634C334.812 240.464 335.735 239.056 336.336 237.504C336.948 235.866 337.196 234.116 337.064 232.373C336.934 230.655 336.428 228.987 335.58 227.487C334.733 225.986 333.566 224.691 332.162 223.691C330.807 222.755 329.28 222.096 327.668 221.751C323.242 220.705 318.593 221.152 314.448 223.022C313.196 223.585 312.05 224.293 310.914 224.904L307.672 226.708L302.091 229.793C300.687 230.548 299.528 231.689 298.752 233.081C298.262 233.963 297.934 234.926 297.781 235.923C297.684 236.602 297.694 236.971 297.665 236.971C297.628 236.616 297.628 236.258 297.665 235.904C297.774 234.886 298.077 233.898 298.558 232.994C299.321 231.545 300.492 230.351 301.926 229.56L307.469 226.407L310.691 224.574C311.817 223.953 312.963 223.235 314.244 222.634C318.467 220.691 323.219 220.213 327.746 221.276C329.415 221.608 331.002 222.267 332.415 223.216C333.882 224.255 335.103 225.605 335.988 227.169C336.874 228.733 337.404 230.474 337.54 232.266C337.682 234.085 337.424 235.912 336.783 237.62C336.156 239.242 335.192 240.712 333.953 241.933C332.715 243.154 331.231 244.098 329.6 244.702C328.067 245.253 326.443 245.513 324.814 245.468L308.206 245.419C307.076 245.443 305.945 245.408 304.819 245.313C303.797 245.171 302.809 244.842 301.907 244.343C300.476 243.543 299.304 242.352 298.529 240.909C298.054 240.003 297.755 239.016 297.645 237.999C297.622 237.663 297.625 237.325 297.655 236.99Z" fill="#263238"/>
<path d="M426.317 241.888H425.657L423.124 241.947L413.815 242.112C405.952 242.257 395.1 242.548 383.103 242.878C371.106 243.208 360.244 243.431 352.381 243.489C348.45 243.489 345.266 243.489 343.063 243.489H340.53H339.879C339.802 243.504 339.723 243.504 339.646 243.489C339.723 243.477 339.802 243.477 339.879 243.489H340.53L343.063 243.431L352.372 243.266C360.234 243.12 371.096 242.829 383.093 242.509C395.091 242.189 405.952 241.947 413.815 241.888C417.698 241.888 420.93 241.888 423.124 241.888H425.657H426.317Z" fill="white"/>
<path d="M416.795 204.563C416.843 204.689 406.292 209.083 393.217 214.37C380.142 219.656 369.504 223.846 369.446 223.711C369.387 223.575 379.948 219.19 393.023 213.904C406.098 208.617 416.737 204.437 416.795 204.563Z" fill="white"/>
<path d="M395.401 207.89C395.46 208.026 385.404 212.449 372.95 217.774C360.496 223.1 350.362 227.319 350.304 227.193C350.246 227.067 360.302 222.644 372.756 217.309C385.209 211.974 395.343 207.744 395.401 207.89Z" fill="white"/>
<path d="M154.365 248.484C154.18 248.547 153.988 248.586 153.793 248.601L152.152 248.814C151.434 248.892 150.56 248.999 149.551 249.173C148.541 249.348 147.386 249.474 146.124 249.726C143.591 250.172 140.592 250.832 137.311 251.666C133.757 252.646 130.255 253.805 126.818 255.139C123.168 256.584 119.781 258.165 116.752 259.727C113.724 261.288 111.103 262.86 108.987 264.266C107.89 264.936 106.939 265.615 106.075 266.206C105.211 266.798 104.502 267.283 103.92 267.71L102.571 268.68C102.416 268.799 102.25 268.903 102.076 268.99C102.204 268.847 102.347 268.717 102.503 268.602L103.803 267.564C104.366 267.118 105.065 266.594 105.91 265.983C106.754 265.372 107.676 264.693 108.822 264.043C110.957 262.598 113.597 261.017 116.587 259.397C123.132 255.9 130.065 253.182 137.243 251.297C140.543 250.444 143.562 249.813 146.115 249.416C147.386 249.183 148.541 249.066 149.561 248.931C150.58 248.795 151.502 248.708 152.172 248.659L153.832 248.533C154.008 248.504 154.187 248.488 154.365 248.484Z" fill="white"/>
<path d="M327.707 225.602C327.707 225.602 327.425 225.224 326.736 224.7C325.805 223.988 324.698 223.542 323.533 223.41C321.786 223.264 320.027 223.452 318.35 223.963C312.439 225.45 306.95 228.275 302.305 232.218C299.994 234.158 298.771 235.584 298.703 235.516C298.938 235.145 299.212 234.801 299.519 234.487C300.321 233.596 301.17 232.748 302.062 231.946C305.027 229.307 308.396 227.158 312.04 225.583C314.041 224.708 316.117 224.016 318.243 223.517C319.975 223.013 321.789 222.855 323.582 223.051C324.8 223.218 325.941 223.741 326.863 224.555C327.107 224.774 327.326 225.021 327.513 225.292C327.668 225.486 327.726 225.592 327.707 225.602Z" fill="white"/>
<path d="M173.206 201.323C169.323 180.1 166.712 176.84 164.518 169.536C162.325 162.232 158.84 157.489 154.501 155.811C151.589 154.686 136.961 149.418 131.875 151.164C126.899 152.932 122.161 155.311 117.771 158.245C114.364 160.503 111.783 163.805 110.414 167.654L102.648 189.547L116.315 203.127L123.168 188.577L130.603 206.037L129.507 223.643L172.148 235.108C175.992 228.9 175.409 213.361 173.206 201.323Z" fill="#836FE2"/>
<g opacity="0.2">
<path d="M162.131 178.169C160.248 189.217 159.947 190.779 158.064 201.789C157.413 205.581 155.52 211.489 152.822 214.243C150.822 216.271 148.862 218.22 146.076 218.88C143.494 219.491 139.563 219.559 137.136 218.492C134.709 217.425 132.632 212.672 133.632 210.237C137.253 211.013 138.369 212.177 141.485 210.237C144.202 208.511 148.066 204.689 149.541 201.827C155.763 189.799 157.481 189.373 162.16 178.169" fill="black"/>
</g>
<path d="M131.234 199.577C130.545 198.649 129.916 197.677 129.351 196.667L124.964 189.46L120.46 182.369C119.788 181.415 119.182 180.417 118.645 179.382C118.878 179.594 119.084 179.835 119.256 180.1C119.625 180.575 120.14 181.283 120.751 182.166C121.994 183.931 123.663 186.404 125.391 189.188C127.119 191.972 128.623 194.552 129.662 196.444C130.186 197.414 130.633 198.151 130.865 198.694C131.034 198.968 131.158 199.265 131.234 199.577Z" fill="#263238"/>
<path d="M160.995 219.394C160.686 219.555 160.361 219.682 160.024 219.773C159.627 219.905 159.221 220.016 158.811 220.102C158.275 220.248 157.73 220.361 157.18 220.442C155.757 220.695 154.316 220.828 152.871 220.84C151.097 220.843 149.327 220.69 147.58 220.384C145.836 220.055 144.124 219.572 142.465 218.938C141.123 218.415 139.825 217.785 138.582 217.056C138.039 216.756 137.612 216.426 137.185 216.164C136.831 215.934 136.491 215.685 136.165 215.417C135.869 215.214 135.599 214.977 135.36 214.709C135.418 214.631 136.622 215.572 138.757 216.746C140.009 217.421 141.306 218.007 142.64 218.502C145.917 219.722 149.383 220.356 152.88 220.374C154.305 220.376 155.729 220.282 157.142 220.093C159.51 219.753 160.966 219.297 160.995 219.394Z" fill="#263238"/>
<path d="M143.882 186.327C143.804 186.705 139.223 195.823 139.223 195.823L117.596 184.435L115.393 175.123C115.029 173.628 114.088 172.337 112.775 171.534C111.461 170.731 109.883 170.48 108.385 170.836L102.008 173.445C101.745 173.548 101.511 173.714 101.328 173.929C101.145 174.144 101.018 174.401 100.959 174.677C100.872 175.143 100.959 175.647 101.804 175.54C103.386 175.414 106.657 175.065 106.657 175.065L105.153 180.371C104.755 181.762 104.908 183.251 105.58 184.532L106.55 186.366L108.657 189.77H108.608C108.608 189.77 129.633 211.353 141.436 212.759C148.532 213.603 156.569 193.728 156.569 193.728L143.882 186.327Z" fill="#FFBF9D"/>
<path d="M106.502 175.424C106.502 175.424 106.667 175.201 107.026 174.959C107.507 174.624 108.08 174.447 108.666 174.454C108.972 174.471 109.268 174.57 109.523 174.741C109.777 174.912 109.981 175.148 110.113 175.424C110.317 175.861 110.181 176.152 110.113 176.132C110.045 176.113 110.113 175.861 109.88 175.531C109.737 175.321 109.548 175.147 109.328 175.021C109.107 174.895 108.861 174.821 108.608 174.803C108.083 174.811 107.567 174.944 107.104 175.191C106.803 175.337 106.531 175.463 106.502 175.424Z" fill="#AA6550"/>
<path d="M109.229 178.732C109.229 178.732 109.084 178.557 108.88 178.295C108.619 177.961 108.274 177.703 107.88 177.548C107.485 177.392 107.056 177.346 106.638 177.413C106.308 177.413 106.104 177.529 106.084 177.49C106.065 177.451 106.24 177.306 106.589 177.19C107.051 177.055 107.545 177.077 107.992 177.252C108.44 177.428 108.817 177.747 109.064 178.16C109.239 178.489 109.259 178.722 109.229 178.732Z" fill="#AA6550"/>
<path d="M148.367 157.547L142.543 185.279L158.073 194.601L164.033 177.558C164.033 177.558 161.529 156.858 148.367 157.547Z" fill="#836FE2"/>
<path d="M156.734 158.032C156.734 158.032 156.608 158.139 156.336 158.284C156.064 158.43 155.676 158.643 155.161 158.905C154.132 159.429 152.618 160.166 150.725 161.01C145.805 163.258 140.624 164.887 135.301 165.86C129.946 166.816 124.448 166.631 119.169 165.317C117.589 164.902 116.049 164.347 114.568 163.658C114.034 163.435 113.597 163.192 113.374 163.057C113.235 162.987 113.102 162.906 112.976 162.814C113.545 163.006 114.102 163.23 114.646 163.483C116.154 164.092 117.705 164.592 119.285 164.977C124.525 166.176 129.952 166.308 135.243 165.365C140.53 164.393 145.688 162.821 150.619 160.68C152.56 159.885 154.045 159.196 155.103 158.74C155.63 158.468 156.175 158.232 156.734 158.032Z" fill="#EBEBEB"/>
<path d="M160.82 161.097C160.687 161.217 160.541 161.321 160.384 161.408L159.102 162.232C158.425 162.675 157.725 163.083 157.006 163.454C156.171 163.891 155.239 164.424 154.142 164.909L152.453 165.685C151.861 165.957 151.22 166.18 150.57 166.442C149.279 166.975 147.843 167.412 146.348 167.897C139.794 169.872 132.944 170.683 126.109 170.293C124.537 170.167 123.042 170.079 121.664 169.856C120.965 169.75 120.295 169.682 119.654 169.565L117.82 169.197C116.655 168.993 115.616 168.683 114.704 168.45C113.919 168.26 113.145 168.031 112.384 167.761L110.938 167.257C110.765 167.211 110.598 167.142 110.443 167.053C110.622 167.063 110.798 167.099 110.967 167.16L112.442 167.567C113.073 167.761 113.85 167.984 114.772 168.178C115.694 168.372 116.713 168.673 117.897 168.847L119.722 169.177C120.353 169.294 121.023 169.352 121.664 169.439C123.042 169.643 124.576 169.72 126.08 169.827C132.864 170.172 139.657 169.368 146.173 167.451C147.658 166.985 149.085 166.568 150.376 166.044C151.017 165.792 151.657 165.579 152.249 165.326L153.948 164.58C155.045 164.133 155.977 163.609 156.86 163.202C157.743 162.795 158.423 162.397 158.986 162.067L160.325 161.33C160.479 161.231 160.646 161.152 160.82 161.097Z" fill="#EBEBEB"/>
<path d="M158.034 194.601C157.599 194.417 157.178 194.203 156.773 193.961L153.356 192.021L141.708 185.299L141.562 185.211V185.046C141.98 182.98 142.426 180.749 142.892 178.46C143.591 175.007 144.27 171.728 144.833 168.76C145.154 167.266 145.416 165.85 145.707 164.502C145.97 163.256 146.388 162.047 146.949 160.903C147.763 159.205 149.203 157.887 150.968 157.227C151.446 157.063 151.948 156.981 152.453 156.984C152.627 156.973 152.801 156.992 152.968 157.043C152.305 157.065 151.651 157.189 151.026 157.411C149.359 158.114 148.015 159.415 147.26 161.058C146.735 162.188 146.348 163.377 146.105 164.599C145.843 165.928 145.571 167.354 145.28 168.838C144.678 171.845 144.018 175.123 143.339 178.538C142.873 180.837 142.416 183.058 141.999 185.124L141.883 184.872L153.463 191.749L156.811 193.786C157.241 194.023 157.65 194.296 158.034 194.601Z" fill="#263238"/>
<path d="M162.781 176.734C162.867 177.597 162.84 178.467 162.703 179.324C162.5 181.397 162.13 183.45 161.597 185.464C161.064 187.48 160.376 189.451 159.539 191.361C159.235 192.173 158.827 192.943 158.326 193.65C158.563 192.823 158.858 192.012 159.209 191.225C160.682 187.366 161.737 183.359 162.354 179.275C162.442 178.42 162.585 177.571 162.781 176.734Z" fill="#263238"/>
<path d="M78.5757 330.993L78.401 345.795C78.401 345.795 63.278 350.596 62.9868 353.332L91.6991 354.69L92.9222 331.633L78.5757 330.993Z" fill="#455A64"/>
<path d="M87.3894 344.97C87.6619 345.068 87.8889 345.262 88.0268 345.516C88.1647 345.77 88.2039 346.067 88.1368 346.348C88.0512 346.624 87.8622 346.857 87.6091 346.998C87.356 347.139 87.0583 347.177 86.7779 347.104C86.4901 346.999 86.2512 346.791 86.1063 346.521C85.9613 346.251 85.9206 345.938 85.9916 345.64C86.1136 345.362 86.3384 345.142 86.6189 345.027C86.8993 344.911 87.2137 344.908 87.4962 345.019" fill="#E0E0E0"/>
<path d="M91.6991 354.69V352.362L64.1516 351.925C64.1516 351.925 62.8412 352.42 62.948 353.332L91.6991 354.69Z" fill="#E0E0E0"/>
<path d="M77.9447 345.63C77.9447 345.766 78.6436 345.863 79.3037 346.348C79.9637 346.833 80.2743 347.434 80.4491 347.386C80.6238 347.337 80.4491 346.522 79.5852 345.95C78.7213 345.378 77.9156 345.494 77.9447 345.63Z" fill="#263238"/>
<path d="M74.8678 346.726C74.8678 346.862 75.4308 347.133 75.8385 347.745C76.2461 348.356 76.3917 348.996 76.5373 348.996C76.6829 348.996 76.7994 348.21 76.2267 347.454C75.654 346.697 74.8775 346.6 74.8678 346.726Z" fill="#263238"/>
<path d="M72.9846 350.247C73.1108 350.247 73.3438 349.597 72.9846 348.812C72.6255 348.026 72.0139 347.696 71.9557 347.842C71.8975 347.987 72.276 348.385 72.5284 349.035C72.7808 349.685 72.8293 350.228 72.9846 350.247Z" fill="#263238"/>
<path d="M78.3525 342.254C78.4107 342.39 79.0611 342.254 79.857 342.313C80.653 342.371 81.2451 342.691 81.3227 342.575C81.4004 342.458 80.8374 341.925 79.9055 341.828C78.9737 341.731 78.2942 342.148 78.3525 342.254Z" fill="#263238"/>
<g opacity="0.3">
<path d="M78.5466 333.922L78.5078 336.56L92.631 337.104L92.7572 334.727L78.5466 333.922Z" fill="black"/>
</g>
<path d="M78.4496 339.267C78.9131 339.421 79.4102 339.444 79.8862 339.335C80.4089 339.267 80.921 339.133 81.4101 338.937C81.7023 338.829 81.9848 338.695 82.2546 338.539C82.4223 338.461 82.5764 338.356 82.7108 338.229C82.8081 338.133 82.8706 338.008 82.8882 337.872C82.9058 337.737 82.8775 337.599 82.8079 337.482C82.7411 337.382 82.6521 337.298 82.5477 337.237C82.4434 337.177 82.3265 337.141 82.2061 337.133C82.0235 337.123 81.8405 337.14 81.6625 337.181C81.3542 337.241 81.052 337.329 80.7598 337.443C80.2657 337.641 79.8044 337.913 79.3911 338.248C78.6923 338.84 78.4205 339.354 78.4884 339.383C78.5564 339.412 78.8961 339.005 79.595 338.53C80.006 338.256 80.4494 338.034 80.9151 337.87C81.1874 337.777 81.4665 337.706 81.7499 337.657C82.0605 337.589 82.3225 337.598 82.3905 337.734C82.4584 337.87 82.3905 337.812 82.3905 337.899C82.29 337.989 82.1792 338.067 82.0605 338.132C81.7984 338.277 81.5363 338.413 81.2839 338.53C80.8266 338.727 80.3522 338.883 79.8668 338.995C79.389 339.055 78.9156 339.146 78.4496 339.267Z" fill="#263238"/>
<path d="M78.6534 339.48C78.942 339.083 79.0951 338.603 79.0902 338.113C79.1441 337.583 79.1047 337.048 78.9737 336.531C78.8955 336.223 78.7849 335.924 78.6437 335.639C78.5755 335.446 78.4582 335.274 78.3034 335.139C78.1485 335.005 77.9614 334.913 77.7604 334.873C77.6336 334.868 77.5082 334.9 77.3995 334.966C77.2908 335.031 77.2037 335.127 77.1489 335.241C77.0632 335.406 77.0042 335.582 76.9742 335.765C76.9256 336.087 76.9256 336.414 76.9742 336.735C77.0273 337.277 77.2141 337.797 77.5177 338.248C78.0419 339.024 78.6243 339.218 78.634 339.17C78.6437 339.121 78.2069 338.811 77.8089 338.074C77.5813 337.652 77.4488 337.185 77.4207 336.706C77.4051 336.426 77.4279 336.145 77.4886 335.872C77.5469 335.571 77.6731 335.329 77.7895 335.367C77.906 335.406 78.1584 335.61 78.2652 335.862C78.3967 336.117 78.504 336.383 78.5855 336.658C78.7249 337.127 78.7968 337.613 78.799 338.103C78.7214 338.937 78.5467 339.451 78.6534 339.48Z" fill="#263238"/>
<path d="M137.107 223.798C137.107 223.798 92.2428 204.98 78.3622 204.194C69.6262 203.69 63.0645 209.277 64.2487 218.279C64.8408 222.789 77.2363 275.509 77.2363 275.509L96.1254 266.895L87.04 230.433L123.925 248.339L137.107 223.798Z" fill="#263238"/>
<path d="M81.4004 221.208C81.2548 221.334 82.7399 223.245 84.3124 225.777C85.8849 228.309 86.9332 230.491 87.1079 230.423C87.2826 230.355 86.477 228.017 84.8754 225.437C83.2738 222.857 81.5654 221.092 81.4004 221.208Z" fill="#455A64"/>
<path d="M77.7313 223.303C77.6342 223.468 79.8959 224.904 82.5846 226.863C85.2734 228.823 87.2924 230.539 87.438 230.404C87.5836 230.268 85.6422 228.26 82.9438 226.32C80.2453 224.38 77.8089 223.148 77.7313 223.303Z" fill="#455A64"/>
<path d="M172.099 235.108C172.099 235.108 166.46 242.374 161.082 244.362C154.288 246.855 104.337 270.416 104.337 270.416C104.337 270.416 95.2712 337.725 95.9895 334.912L75.0717 334.407L77.343 272.414C77.6148 264.48 83.9824 255.362 90.8256 251.307L137.107 223.798L172.099 235.108Z" fill="#263238"/>
<path d="M76.945 283.763C77.0114 283.484 77.0408 283.197 77.0324 282.91C77.0324 282.289 77.11 281.484 77.1586 280.475C77.2774 277.491 77.5561 274.515 77.9933 271.561C78.6061 267.195 80.1557 263.012 82.5361 259.3C84.009 257.166 85.8262 255.291 87.9136 253.752C90.1787 252.102 92.5489 250.602 95.0091 249.26C105.075 243.499 113.762 237.621 120.188 233.595C123.391 231.558 126.012 229.938 127.798 228.832L129.875 227.552C130.127 227.413 130.364 227.251 130.584 227.067C130.317 227.164 130.06 227.287 129.817 227.435C129.322 227.697 128.594 228.085 127.672 228.609C125.818 229.647 123.178 231.219 119.907 233.197C113.413 237.136 104.677 242.946 94.6694 248.717C92.1839 250.074 89.7909 251.594 87.5059 253.267C85.3662 254.853 83.509 256.787 82.0119 258.99C79.6174 262.799 78.0898 267.087 77.5371 271.551C77.1374 274.525 76.9299 277.523 76.9159 280.524C76.9159 281.494 76.9159 282.337 76.9159 282.968C76.9018 283.233 76.9116 283.5 76.945 283.763Z" fill="#455A64"/>
<path d="M153.637 242.199C153.25 241.598 152.822 241.025 152.356 240.482C151.392 239.081 150.723 237.499 150.389 235.831C150.055 234.164 150.064 232.446 150.415 230.782C150.63 230.099 150.799 229.402 150.92 228.697C150.448 229.258 150.116 229.923 149.949 230.637C149.452 232.359 149.378 234.176 149.735 235.933C150.084 237.69 150.857 239.335 151.987 240.724C152.871 241.84 153.599 242.257 153.637 242.199Z" fill="#455A64"/>
<path d="M82.7593 334.407C82.7936 334.297 82.8132 334.183 82.8175 334.068C82.8175 333.796 82.8952 333.466 82.9437 333.049C83.0505 332.079 83.1864 330.799 83.3611 329.169C83.7008 325.716 84.1862 320.798 84.788 314.745C85.0695 311.699 85.3898 308.363 85.7587 304.783C86.1275 301.204 86.4672 297.372 86.7293 293.337C86.9914 289.302 87.4185 285.083 88.1562 280.727C88.8766 276.259 90.182 271.905 92.0389 267.778C93.978 263.699 96.5386 259.946 99.6295 256.652C102.526 253.588 105.697 250.795 109.103 248.31C114.941 244.201 121.004 240.422 127.264 236.99C132.574 233.944 136.806 231.345 139.611 229.385C141.028 228.415 142.096 227.629 142.814 227.077L143.62 226.446C143.801 226.304 143.889 226.226 143.882 226.213C143.774 226.257 143.673 226.316 143.581 226.388L142.737 226.97C141.999 227.484 140.902 228.241 139.475 229.181C136.622 231.063 132.37 233.595 127.031 236.592C120.72 239.974 114.614 243.725 108.744 247.825C105.292 250.317 102.082 253.126 99.1539 256.215C96.0078 259.554 93.404 263.363 91.4371 267.506C89.5724 271.685 88.2669 276.091 87.5544 280.611C86.8264 284.976 86.4575 289.215 86.1566 293.221C85.8557 297.227 85.5548 301.088 85.186 304.667C84.8171 308.246 84.5842 311.583 84.3221 314.638C83.8076 320.701 83.3514 325.619 83.1087 329.082C82.9793 330.75 82.8823 332.044 82.8175 332.962C82.8175 333.379 82.769 333.718 82.7496 333.98C82.7302 334.242 82.7399 334.407 82.7593 334.407Z" fill="#455A64"/>
<path d="M132.04 117.04C131.336 115.227 130.008 113.724 128.294 112.802C126.581 111.879 124.595 111.597 122.693 112.006C121.855 112.312 120.98 112.501 120.091 112.568C119.014 112.384 117.955 112.104 116.927 111.734C115.762 111.545 114.568 111.796 113.578 112.438C112.588 113.08 111.871 114.067 111.569 115.207C110.657 114.985 109.708 114.965 108.788 115.148C107.867 115.33 106.998 115.711 106.24 116.264C105.496 116.839 104.969 117.648 104.742 118.559C104.514 119.471 104.601 120.432 104.988 121.288C105.366 121.997 105.958 122.559 106.337 123.287C106.91 124.48 106.647 125.915 107.045 127.167C107.419 128.077 108.041 128.863 108.841 129.436C109.641 130.009 110.586 130.345 111.569 130.406C113.545 130.508 115.522 130.228 117.393 129.582" fill="#263238"/>
<path d="M123.003 155.403C122.76 153.522 122.605 152.202 122.605 152.202C122.605 152.202 116.344 152.202 113.869 144.442C112.617 140.562 111.782 134.083 111.277 128.728C111.167 127.588 111.289 126.437 111.636 125.344C111.983 124.252 112.547 123.241 113.296 122.373C114.044 121.505 114.96 120.797 115.99 120.292C117.019 119.787 118.14 119.496 119.285 119.436L135.903 118.572L136.262 121.143L140.64 153.075C140.798 154.233 140.726 155.411 140.427 156.54C140.129 157.67 139.609 158.73 138.899 159.658C138.19 160.587 137.303 161.366 136.291 161.951C135.278 162.536 134.16 162.915 133.001 163.066C131.841 163.222 130.661 163.146 129.53 162.845C128.399 162.544 127.338 162.022 126.409 161.31C125.48 160.598 124.701 159.71 124.117 158.696C123.532 157.682 123.154 156.563 123.003 155.403Z" fill="#FFBF9D"/>
<path d="M113.597 133.297C113.638 133.562 113.78 133.801 113.994 133.964C114.208 134.127 114.476 134.201 114.743 134.17C114.875 134.162 115.004 134.127 115.122 134.067C115.24 134.007 115.344 133.923 115.429 133.822C115.513 133.72 115.576 133.602 115.613 133.475C115.651 133.348 115.662 133.215 115.645 133.084C115.609 132.816 115.468 132.574 115.254 132.41C115.039 132.247 114.768 132.175 114.5 132.211C114.368 132.219 114.239 132.254 114.121 132.314C114.003 132.374 113.899 132.457 113.814 132.559C113.729 132.661 113.667 132.779 113.629 132.906C113.592 133.033 113.581 133.166 113.597 133.297Z" fill="#263238"/>
<path d="M113.17 131.861C113.316 131.968 113.995 131.279 115.112 131.105C116.228 130.93 117.053 131.357 117.198 131.202C117.344 131.047 117.082 130.911 116.694 130.717C116.167 130.459 115.573 130.374 114.995 130.474C114.424 130.56 113.895 130.829 113.491 131.241C113.17 131.551 113.093 131.813 113.17 131.861Z" fill="#263238"/>
<path d="M124.003 131.532C124.044 131.796 124.186 132.034 124.4 132.196C124.614 132.357 124.882 132.428 125.148 132.395C125.28 132.388 125.409 132.354 125.528 132.295C125.646 132.236 125.751 132.154 125.837 132.053C125.922 131.952 125.986 131.835 126.025 131.709C126.063 131.582 126.075 131.449 126.061 131.318C126.02 131.053 125.878 130.814 125.664 130.651C125.451 130.488 125.182 130.414 124.915 130.445C124.782 130.452 124.652 130.486 124.533 130.546C124.414 130.605 124.308 130.688 124.223 130.79C124.137 130.892 124.074 131.011 124.036 131.138C123.998 131.266 123.987 131.4 124.003 131.532Z" fill="#263238"/>
<path d="M123.983 130.348C124.129 130.465 124.809 129.766 125.925 129.601C127.041 129.436 127.866 129.844 128.012 129.689C128.157 129.533 127.895 129.407 127.507 129.204C126.978 128.954 126.386 128.87 125.808 128.961C125.239 129.053 124.713 129.321 124.304 129.727C123.983 130.038 123.916 130.29 123.983 130.348Z" fill="#263238"/>
<path d="M121.295 139.117C120.686 139.035 120.069 139.035 119.46 139.117C119.179 139.117 118.907 139.117 118.829 138.933C118.74 138.652 118.74 138.35 118.829 138.069C118.985 137.352 119.15 136.595 119.324 135.809C119.798 133.881 120.123 131.919 120.295 129.941C119.659 131.839 119.175 133.785 118.849 135.761C118.693 136.556 118.538 137.313 118.402 138.04C118.267 138.4 118.267 138.796 118.402 139.156C118.459 139.248 118.535 139.326 118.626 139.385C118.717 139.443 118.819 139.481 118.926 139.495C119.087 139.516 119.25 139.516 119.412 139.495C120.053 139.449 120.686 139.322 121.295 139.117Z" fill="#263238"/>
<path d="M122.605 152.202C126.357 151.664 129.885 150.096 132.797 147.672C132.797 147.672 131.069 153.57 123.003 154.065L122.605 152.202Z" fill="#AA6550"/>
<path d="M124.644 139.36C124.459 139.36 124.644 140.562 123.77 141.571C122.896 142.58 121.596 142.648 121.605 142.813C121.615 142.978 121.926 143.007 122.469 142.929C123.169 142.835 123.81 142.49 124.275 141.959C124.729 141.456 124.967 140.793 124.935 140.116C124.906 139.612 124.721 139.34 124.644 139.36Z" fill="#263238"/>
<path d="M123.013 126.1C123.168 126.381 124.246 126.1 125.556 126.012C126.866 125.925 127.963 126.148 128.089 125.857C128.216 125.566 127.924 125.469 127.458 125.246C126.841 124.977 126.169 124.853 125.496 124.885C124.822 124.917 124.165 125.104 123.576 125.43C123.149 125.692 122.945 125.964 123.013 126.1Z" fill="#263238"/>
<path d="M113.064 128.622C113.296 128.835 114.034 128.457 114.917 128.302C115.801 128.146 116.626 128.205 116.762 127.914C116.82 127.778 116.655 127.545 116.286 127.37C115.79 127.15 115.237 127.089 114.704 127.196C114.172 127.289 113.684 127.547 113.306 127.933C113.025 128.243 112.957 128.515 113.064 128.622Z" fill="#263238"/>
<path d="M110.404 125.227C110.404 125.227 114.801 126.711 119.848 123.335C123.158 121.123 127.177 119.736 128.177 120.338C129.177 120.939 129.827 124.548 133.467 125.188C133.467 125.188 134.108 132.172 136.855 131.57C138.796 131.144 137.67 123.442 136.855 119.048C136.684 118.198 136.234 117.43 135.576 116.866C134.918 116.301 134.09 115.973 133.224 115.934L128.109 115.73L121.722 117.515L114.869 119.377L109.647 121.56L110.404 125.227Z" fill="#263238"/>
<path d="M136.243 128.728C136.34 128.66 140.582 126.429 141.368 131.056C142.154 135.683 137.35 135.509 137.311 135.382C137.272 135.256 136.243 128.728 136.243 128.728Z" fill="#FFBF9D"/>
<path d="M138.427 133.384C138.427 133.384 138.524 133.433 138.67 133.472C138.874 133.52 139.089 133.489 139.272 133.384C139.536 133.143 139.732 132.837 139.841 132.497C139.95 132.157 139.968 131.794 139.893 131.444C139.837 131.047 139.694 130.666 139.475 130.329C139.405 130.192 139.303 130.075 139.178 129.985C139.053 129.896 138.909 129.837 138.757 129.815C138.661 129.806 138.564 129.832 138.485 129.887C138.405 129.942 138.347 130.022 138.32 130.115C138.32 130.251 138.32 130.339 138.32 130.358C138.32 130.377 138.214 130.29 138.214 130.096C138.222 129.977 138.27 129.864 138.349 129.776C138.462 129.659 138.614 129.589 138.776 129.582C138.974 129.586 139.167 129.64 139.337 129.74C139.507 129.841 139.648 129.983 139.747 130.154C140.013 130.521 140.183 130.947 140.242 131.396C140.338 131.804 140.31 132.232 140.162 132.624C140.013 133.017 139.75 133.356 139.407 133.598C139.289 133.654 139.16 133.683 139.029 133.683C138.898 133.683 138.769 133.654 138.65 133.598C138.456 133.501 138.417 133.404 138.427 133.384Z" fill="#AA6550"/>
<path d="M112.627 113.499C112.627 113.499 112.782 113.752 113.112 114.12C113.585 114.643 114.188 115.031 114.859 115.245C115.857 115.567 116.924 115.614 117.946 115.381C119.217 115.072 120.466 114.677 121.683 114.198C122.943 113.702 124.289 113.461 125.643 113.49C126.788 113.531 127.872 114.018 128.662 114.848C129.2 115.389 129.527 116.104 129.584 116.865C129.625 117.141 129.577 117.423 129.448 117.67C129.4 117.67 129.448 117.379 129.39 116.885C129.269 116.197 128.928 115.568 128.419 115.09C127.671 114.374 126.679 113.968 125.643 113.955C124.351 113.956 123.07 114.2 121.867 114.673C120.63 115.165 119.354 115.554 118.053 115.837C116.954 116.064 115.813 115.977 114.762 115.585C114.049 115.323 113.428 114.858 112.976 114.246C112.627 113.8 112.627 113.509 112.627 113.499Z" fill="#455A64"/>
<path d="M128.264 117.932C128.264 117.932 128.031 117.69 127.546 117.35C126.854 116.927 126.057 116.705 125.245 116.71C124.015 116.705 122.802 117.002 121.712 117.573C120.35 118.308 118.943 118.956 117.499 119.513C116.13 119.938 114.687 120.077 113.261 119.922C111.835 119.767 110.456 119.321 109.21 118.611C108.456 118.187 107.766 117.658 107.162 117.04C106.927 116.83 106.729 116.58 106.579 116.303C107.439 117.062 108.376 117.728 109.375 118.291C111.83 119.578 114.693 119.847 117.344 119.038C118.768 118.463 120.161 117.815 121.518 117.098C122.677 116.512 123.968 116.238 125.265 116.303C126.146 116.336 126.995 116.645 127.691 117.185C127.946 117.378 128.144 117.636 128.264 117.932Z" fill="#455A64"/>
<path d="M113.889 196.754L91.3497 177.558L83.9144 179.236C83.9144 179.236 91.7477 195.513 97.4164 201.478C97.4164 201.478 103.017 208.967 112.258 205.727C121.499 202.487 113.889 196.754 113.889 196.754Z" fill="#FFBF9D"/>
<path d="M89.6414 156.412H80.0609C79.6994 156.432 79.3468 156.532 79.0287 156.704C78.7107 156.877 78.4352 157.119 78.2223 157.412C78.0094 157.704 77.8645 158.041 77.798 158.396C77.7315 158.752 77.7452 159.118 77.8381 159.468L87.4768 178.218C87.6595 178.575 87.9377 178.874 88.2803 179.083C88.6229 179.292 89.0168 179.402 89.4181 179.401H101.066C101.34 179.371 101.602 179.273 101.829 179.117C102.056 178.96 102.24 178.75 102.366 178.505C102.492 178.26 102.555 177.988 102.55 177.713C102.545 177.438 102.472 177.168 102.338 176.928L93.0484 158.565C92.7322 157.929 92.2473 157.392 91.6465 157.012C91.0457 156.633 90.3521 156.425 89.6414 156.412Z" fill="#455A64"/>
<path d="M89.0007 157.547H79.4202C79.1453 157.545 78.8745 157.614 78.634 157.748C78.3934 157.881 78.1913 158.073 78.047 158.307C77.9026 158.541 77.821 158.808 77.8099 159.083C77.7988 159.357 77.8586 159.63 77.9836 159.875L87.3894 178.218C87.5739 178.573 87.8524 178.872 88.1946 179.08C88.5369 179.289 88.9298 179.4 89.3307 179.401H100.882C101.04 179.394 101.195 179.349 101.332 179.269C101.469 179.189 101.584 179.076 101.667 178.941C101.751 178.806 101.8 178.653 101.81 178.495C101.82 178.336 101.791 178.178 101.726 178.033L92.4272 159.681C92.113 159.041 91.6253 158.501 91.0196 158.124C90.4139 157.747 89.7144 157.547 89.0007 157.547Z" fill="#263238"/>
<path d="M88.1853 165.21L82.3613 167.538L81.1189 172.233L83.9241 179.217L94.1841 180.73L91.175 177.655L91.5536 174.968C91.5536 174.968 94.4656 174.066 94.4656 173.63C94.4656 173.193 94.1064 171.69 93.6696 171.641C92.5205 171.903 91.3942 172.257 90.3014 172.698C90.3014 172.698 93.8637 169.876 93.7667 169.42C93.6696 168.964 93.2813 167.81 92.5728 167.674C91.8642 167.538 86.0984 170.264 86.0984 170.264L85.1277 172.388L84.3124 168.983C84.3124 168.983 89.4472 167.548 88.1853 165.21Z" fill="#FFBF9D"/>
<path d="M88.9231 176.229C88.9231 176.229 88.7775 176.035 88.7192 175.647C88.6579 175.153 88.7138 174.652 88.8824 174.183C89.0511 173.715 89.3277 173.292 89.6899 172.951C89.9811 172.698 90.2043 172.611 90.2237 172.64C89.7808 173.13 89.4172 173.687 89.1463 174.289C88.9735 174.921 88.8982 175.575 88.9231 176.229Z" fill="#AA6550"/>
<path d="M86.147 175.211C86.2607 174.709 86.3385 174.2 86.3799 173.688C86.4035 173.115 86.5014 172.548 86.6711 172C86.782 171.648 86.9756 171.328 87.2357 171.067C87.4958 170.805 87.8148 170.61 88.166 170.497C89.554 169.992 90.8159 169.585 91.7283 169.284C92.2162 169.1 92.7197 168.96 93.2328 168.867C92.781 169.125 92.3026 169.333 91.806 169.488C90.9032 169.837 89.6414 170.283 88.2727 170.778C87.9531 170.888 87.6615 171.067 87.4185 171.302C87.203 171.53 87.0377 171.801 86.9332 172.097C86.7555 172.621 86.6414 173.165 86.5935 173.717C86.5747 174.245 86.421 174.759 86.147 175.211Z" fill="#AA6550"/>
<path d="M84.8074 174.163C84.7156 173.784 84.7156 173.388 84.8074 173.009C84.9142 172.388 85.0598 171.903 85.1471 171.913C85.2382 172.292 85.2382 172.688 85.1471 173.067C85.0404 173.688 84.8948 174.173 84.8074 174.163Z" fill="#AA6550"/>
<path d="M84.6521 161.087C84.6521 161.329 84.7239 161.566 84.8583 161.767C84.9926 161.967 85.1837 162.124 85.4071 162.217C85.6306 162.309 85.8765 162.333 86.1138 162.286C86.351 162.239 86.569 162.123 86.74 161.952C86.911 161.781 87.0275 161.563 87.0747 161.326C87.1219 161.089 87.0977 160.843 87.0051 160.62C86.9126 160.396 86.7558 160.206 86.5547 160.071C86.3535 159.937 86.1171 159.865 85.8752 159.865C85.7142 159.864 85.5546 159.895 85.4056 159.956C85.2566 160.017 85.1213 160.107 85.0075 160.22C84.8936 160.334 84.8036 160.469 84.7426 160.618C84.6816 160.767 84.6508 160.927 84.6521 161.087Z" fill="#FAFAFA"/>
<path d="M127.881 77.771C128.619 72.3972 121.038 67.974 115.331 67.5181C112.613 67.295 109.788 67.7121 107.216 66.8197C101.634 64.8797 99.4505 57.6725 93.9565 55.3737C89.8894 53.6568 85.2205 55.1893 81.2602 57.1681C77.2999 59.1469 73.4075 61.6496 69.0007 61.9406C65.118 62.1831 61.0024 60.7572 57.6439 62.6293C55.1493 64.0261 53.8389 66.9069 51.5287 68.6044C49.2185 70.3019 46.3356 70.6221 43.5401 70.7676C40.7446 70.9131 37.8423 70.9519 35.2991 72.1159C32.756 73.2799 30.6399 75.9958 31.1738 78.7215L127.881 77.771Z" fill="#F5F5F5"/>
</g>
<defs>
<clipPath id="clip0_3_646">
<rect width="375" height="430" fill="white"/>
</clipPath>
</defs>
</svg>
