<svg width="348" height="430" viewBox="0 0 348 430" fill="none" xmlns="http://www.w3.org/2000/svg">
<g clip-path="url(#clip0_1_495)">
<path d="M251.289 54.5904H186.002V262.478H251.289V54.5904Z" fill="#F5F5F5"/>
<path d="M251.298 54.5904H218.65V261.911H251.298V54.5904Z" fill="#EBEBEB"/>
<path d="M216.51 34.1826H193.458V54.5904H216.51V34.1826Z" fill="#F5F5F5"/>
<path d="M216.518 34.1826H211.023V54.5904H216.518V34.1826Z" fill="#EBEBEB"/>
<path d="M180.558 54.5904V53.4036H253.207V54.5904" fill="#E0E0E0"/>
<path d="M204.423 63.4914H198.893V75.196H204.423V63.4914Z" fill="#FAFAFA"/>
<path d="M218.65 79.84C218.65 79.9604 211.34 80.0636 202.326 80.0636C193.312 80.0636 186.002 79.9604 186.002 79.84C186.002 79.7196 193.312 79.6164 202.326 79.6164C211.34 79.6164 218.65 79.6766 218.65 79.84Z" fill="#E0E0E0"/>
<path d="M237.353 63.4914H231.824V75.196H237.353V63.4914Z" fill="#E0E0E0"/>
<path d="M251.58 79.84C251.58 79.9604 244.27 80.0636 235.256 80.0636C226.242 80.0636 218.932 79.9604 218.932 79.84C218.932 79.7196 226.242 79.6164 235.256 79.6164C244.27 79.6164 251.58 79.6766 251.58 79.84Z" fill="#E0E0E0"/>
<path d="M237.353 86.7372H231.824V98.4418H237.353V86.7372Z" fill="#E0E0E0"/>
<path d="M251.58 103.06C251.58 103.18 244.27 103.284 235.256 103.284C226.242 103.284 218.932 103.18 218.932 103.06C218.932 102.94 226.242 102.836 235.256 102.836C244.27 102.836 251.58 102.914 251.58 103.06Z" fill="#E0E0E0"/>
<path d="M237.353 110.68H231.824V122.384H237.353V110.68Z" fill="#E0E0E0"/>
<path d="M251.58 126.985C251.58 127.114 244.27 127.209 235.256 127.209C226.242 127.209 218.932 127.114 218.932 126.985C218.932 126.856 226.242 126.762 235.256 126.762C244.27 126.762 251.58 126.865 251.58 126.985Z" fill="#E0E0E0"/>
<path d="M237.353 134.631H231.824V146.335H237.353V134.631Z" fill="#E0E0E0"/>
<path d="M251.58 150.936C251.58 151.057 244.27 151.16 235.256 151.16C226.242 151.16 218.932 151.057 218.932 150.936C218.932 150.816 226.242 150.713 235.256 150.713C244.27 150.713 251.58 150.807 251.58 150.936Z" fill="#E0E0E0"/>
<path d="M237.353 157.894H231.824V169.598H237.353V157.894Z" fill="#E0E0E0"/>
<path d="M251.58 174.191C251.58 174.32 244.27 174.414 235.256 174.414C226.242 174.414 218.932 174.32 218.932 174.191C218.932 174.062 226.242 173.967 235.256 173.967C244.27 173.967 251.58 174.07 251.58 174.191Z" fill="#E0E0E0"/>
<path d="M237.353 181.243H231.824V192.947H237.353V181.243Z" fill="#E0E0E0"/>
<path d="M237.353 204.91H231.824V216.614H237.353V204.91Z" fill="#E0E0E0"/>
<path d="M251.58 197.548C251.58 197.669 244.27 197.772 235.256 197.772C226.242 197.772 218.932 197.669 218.932 197.548C218.932 197.428 226.242 197.325 235.256 197.325C244.27 197.325 251.58 197.428 251.58 197.548Z" fill="#E0E0E0"/>
<path d="M204.423 87.0898H198.893V98.7944H204.423V87.0898Z" fill="#FAFAFA"/>
<path d="M218.65 103.395C218.65 103.516 211.34 103.619 202.326 103.619C193.312 103.619 186.002 103.516 186.002 103.395C186.002 103.275 193.312 103.172 202.326 103.172C211.34 103.172 218.65 103.275 218.65 103.395Z" fill="#E0E0E0"/>
<path d="M204.423 110.688H198.893V122.393H204.423V110.688Z" fill="#FAFAFA"/>
<path d="M218.65 126.994C218.65 127.114 211.34 127.217 202.326 127.217C193.312 127.217 186.002 127.114 186.002 126.994C186.002 126.873 193.312 126.77 202.326 126.77C211.34 126.77 218.65 126.873 218.65 126.994Z" fill="#E0E0E0"/>
<path d="M204.423 134.295H198.893V146H204.423V134.295Z" fill="#FAFAFA"/>
<path d="M218.65 150.592C218.65 150.721 211.34 150.816 202.326 150.816C193.312 150.816 186.002 150.721 186.002 150.592C186.002 150.463 193.312 150.369 202.326 150.369C211.34 150.369 218.65 150.472 218.65 150.592Z" fill="#E0E0E0"/>
<path d="M204.423 157.894H198.893V169.598H204.423V157.894Z" fill="#FAFAFA"/>
<path d="M218.65 174.191C218.65 174.32 211.34 174.414 202.326 174.414C193.312 174.414 186.002 174.32 186.002 174.191C186.002 174.062 193.312 173.967 202.326 173.967C211.34 173.967 218.65 174.07 218.65 174.191Z" fill="#E0E0E0"/>
<path d="M204.423 181.492H198.893V193.197H204.423V181.492Z" fill="#FAFAFA"/>
<path d="M218.65 197.789C218.65 197.918 211.34 198.013 202.326 198.013C193.312 198.013 186.002 197.918 186.002 197.789C186.002 197.66 193.312 197.565 202.326 197.565C211.34 197.565 218.65 197.66 218.65 197.789Z" fill="#E0E0E0"/>
<path d="M204.423 205.09H198.893V216.795H204.423V205.09Z" fill="#FAFAFA"/>
<path d="M327.225 143.901H250.065V389.578H327.225V143.901Z" fill="#F5F5F5"/>
<path d="M327.225 147.126H288.645V389.586H327.225V147.126Z" fill="#EBEBEB"/>
<path d="M286.12 123.003H258.873V147.126H286.12V123.003Z" fill="#F5F5F5"/>
<path d="M286.12 123.003H279.623V147.126H286.12V123.003Z" fill="#EBEBEB"/>
<path d="M243.628 147.126V145.716H329.476V147.126" fill="#E0E0E0"/>
<path d="M271.825 157.644H265.293V171.482H271.825V157.644Z" fill="#FAFAFA"/>
<path d="M288.645 176.908C288.645 177.054 279.999 177.175 269.351 177.175C258.702 177.175 250.065 177.054 250.065 176.908C250.065 176.762 258.694 176.642 269.351 176.642C280.008 176.642 288.645 176.762 288.645 176.908Z" fill="#E0E0E0"/>
<path d="M310.738 157.644H304.207V171.482H310.738V157.644Z" fill="#E0E0E0"/>
<path d="M327.559 176.908C327.559 177.054 318.922 177.175 308.264 177.175C297.607 177.175 288.979 177.054 288.979 176.908C288.979 176.762 297.616 176.642 308.264 176.642C318.913 176.642 327.559 176.762 327.559 176.908Z" fill="#E0E0E0"/>
<path d="M310.738 185.113H304.207V198.95H310.738V185.113Z" fill="#E0E0E0"/>
<path d="M327.559 204.377C327.559 204.523 318.922 204.643 308.264 204.643C297.607 204.643 288.979 204.523 288.979 204.377C288.979 204.23 297.616 204.11 308.264 204.11C318.913 204.11 327.559 204.23 327.559 204.377Z" fill="#E0E0E0"/>
<path d="M310.738 213.407H304.207V227.244H310.738V213.407Z" fill="#E0E0E0"/>
<path d="M327.559 232.679C327.559 232.825 318.922 232.937 308.264 232.937C297.607 232.937 288.979 232.825 288.979 232.679C288.979 232.533 297.616 232.413 308.264 232.413C318.913 232.413 327.559 232.533 327.559 232.679Z" fill="#E0E0E0"/>
<path d="M310.738 241.709H304.207V255.547H310.738V241.709Z" fill="#E0E0E0"/>
<path d="M327.559 260.973C327.559 261.119 318.922 261.24 308.264 261.24C297.607 261.24 288.979 261.119 288.979 260.973C288.979 260.827 297.616 260.707 308.264 260.707C318.913 260.707 327.559 260.827 327.559 260.973Z" fill="#E0E0E0"/>
<path d="M310.738 269.195H304.207V283.032H310.738V269.195Z" fill="#E0E0E0"/>
<path d="M327.559 288.459C327.559 288.605 318.922 288.725 308.264 288.725C297.607 288.725 288.979 288.605 288.979 288.459C288.979 288.313 297.616 288.201 308.264 288.201C318.913 288.201 327.559 288.321 327.559 288.459Z" fill="#E0E0E0"/>
<path d="M310.738 296.801H304.207V310.638H310.738V296.801Z" fill="#E0E0E0"/>
<path d="M310.738 324.759H304.207V338.597H310.738V324.759Z" fill="#E0E0E0"/>
<path d="M327.559 316.065C327.559 316.211 318.922 316.331 308.264 316.331C297.607 316.331 288.979 316.211 288.979 316.065C288.979 315.919 297.616 315.798 308.264 315.798C318.913 315.798 327.559 315.919 327.559 316.065Z" fill="#E0E0E0"/>
<path d="M271.825 185.534H265.293V199.371H271.825V185.534Z" fill="#FAFAFA"/>
<path d="M288.645 204.798C288.645 204.944 279.999 205.065 269.351 205.065C258.702 205.065 250.065 204.944 250.065 204.798C250.065 204.652 258.694 204.531 269.351 204.531C280.008 204.531 288.645 204.652 288.645 204.798Z" fill="#E0E0E0"/>
<path d="M271.825 213.424H265.293V227.261H271.825V213.424Z" fill="#FAFAFA"/>
<path d="M288.645 232.688C288.645 232.834 279.999 232.946 269.351 232.946C258.702 232.946 250.065 232.834 250.065 232.688C250.065 232.542 258.694 232.421 269.351 232.421C280.008 232.421 288.645 232.542 288.645 232.688Z" fill="#E0E0E0"/>
<path d="M271.825 241.305H265.293V255.142H271.825V241.305Z" fill="#FAFAFA"/>
<path d="M288.645 260.578C288.645 260.724 279.999 260.836 269.351 260.836C258.702 260.836 250.065 260.724 250.065 260.578C250.065 260.431 258.694 260.311 269.351 260.311C280.008 260.311 288.645 260.44 288.645 260.578Z" fill="#E0E0E0"/>
<path d="M271.825 269.195H265.293V283.032H271.825V269.195Z" fill="#FAFAFA"/>
<path d="M288.645 288.459C288.645 288.605 279.999 288.725 269.351 288.725C258.702 288.725 250.065 288.605 250.065 288.459C250.065 288.313 258.694 288.201 269.351 288.201C280.008 288.201 288.645 288.321 288.645 288.459Z" fill="#E0E0E0"/>
<path d="M271.825 297.085H265.293V310.922H271.825V297.085Z" fill="#FAFAFA"/>
<path d="M288.645 316.34C288.645 316.486 279.999 316.607 269.351 316.607C258.702 316.607 250.065 316.486 250.065 316.34C250.065 316.194 258.694 316.082 269.351 316.082C280.008 316.082 288.645 316.202 288.645 316.34Z" fill="#E0E0E0"/>
<path d="M271.825 324.974H265.293V338.812H271.825V324.974Z" fill="#FAFAFA"/>
<path d="M269.231 389.578H168.805L168.368 230.116H268.794L269.231 389.578Z" fill="#F5F5F5"/>
<path d="M268.794 230.116H218.582V389.578H268.794V230.116Z" fill="#EBEBEB"/>
<path d="M215.303 198.726H179.839V230.116H215.303V198.726Z" fill="#F5F5F5"/>
<path d="M215.294 198.726H206.846V230.116H215.294V198.726Z" fill="#EBEBEB"/>
<path d="M271.73 228.285H159.997V230.116H271.73V228.285Z" fill="#E0E0E0"/>
<path d="M196.693 243.808H188.193V261.816H196.693V243.808Z" fill="white"/>
<path d="M218.581 268.885C218.581 269.074 207.342 269.229 193.475 269.229C179.608 269.229 168.368 269.074 168.368 268.885C168.368 268.696 179.608 268.541 193.475 268.541C207.342 268.541 218.581 268.696 218.581 268.885Z" fill="#E0E0E0"/>
<path d="M247.343 243.808H238.843V261.816H247.343V243.808Z" fill="#F5F5F5"/>
<path d="M269.248 268.885C269.248 269.074 258.009 269.229 244.141 269.229C230.274 269.229 219.035 269.074 219.035 268.885C219.035 268.696 230.274 268.541 244.141 268.541C258.009 268.541 269.248 268.696 269.248 268.885Z" fill="#E0E0E0"/>
<path d="M247.343 279.566H238.843V297.575H247.343V279.566Z" fill="#F5F5F5"/>
<path d="M269.248 304.635C269.248 304.833 258.009 304.979 244.141 304.979C230.274 304.979 219.035 304.833 219.035 304.635C219.035 304.438 230.274 304.3 244.141 304.3C258.009 304.3 269.248 304.446 269.248 304.635Z" fill="#E0E0E0"/>
<path d="M247.343 316.4H238.843V334.409H247.343V316.4Z" fill="#F5F5F5"/>
<path d="M269.248 341.469C269.248 341.658 258.009 341.813 244.141 341.813C230.274 341.813 219.035 341.658 219.035 341.469C219.035 341.28 230.274 341.125 244.141 341.125C258.009 341.125 269.248 341.28 269.248 341.469Z" fill="#E0E0E0"/>
<path d="M247.343 353.225H238.843V371.234H247.343V353.225Z" fill="#F5F5F5"/>
<path d="M269.248 378.303C269.248 378.492 258.009 378.647 244.141 378.647C230.274 378.647 219.035 378.492 219.035 378.303C219.035 378.114 230.274 377.959 244.141 377.959C258.009 377.959 269.248 378.114 269.248 378.303Z" fill="#E0E0E0"/>
<path d="M196.693 280.108H188.193V298.117H196.693V280.108Z" fill="white"/>
<path d="M218.581 305.16C218.581 305.349 207.342 305.504 193.475 305.504C179.608 305.504 168.368 305.349 168.368 305.16C168.368 304.971 179.608 304.816 193.475 304.816C207.342 304.816 218.581 304.997 218.581 305.16Z" fill="#E0E0E0"/>
<path d="M196.693 316.409H188.193V334.417H196.693V316.409Z" fill="white"/>
<path d="M218.581 341.486C218.581 341.676 207.342 341.83 193.475 341.83C179.608 341.83 168.368 341.676 168.368 341.486C168.368 341.297 179.608 341.142 193.475 341.142C207.342 341.142 218.581 341.28 218.581 341.486Z" fill="#E0E0E0"/>
<path d="M196.693 352.709H188.193V370.718H196.693V352.709Z" fill="white"/>
<path d="M218.581 377.787C218.581 377.976 207.342 378.131 193.475 378.131C179.608 378.131 168.368 377.976 168.368 377.787C168.368 377.598 179.608 377.443 193.475 377.443C207.342 377.443 218.581 377.598 218.581 377.787Z" fill="#E0E0E0"/>
<path d="M95.5913 96.9282C96.2419 92.1638 89.5565 88.2422 84.5232 87.838C82.1264 87.6402 79.6355 88.01 77.3671 87.2188C72.4451 85.4988 70.5191 79.109 65.6741 77.0708C62.0875 75.5486 57.9701 76.9074 54.4776 78.6618C50.9851 80.4162 47.5526 82.635 43.6663 82.893C40.2423 83.108 36.6129 81.8438 33.6511 83.5036C31.4512 84.742 30.2956 87.2962 28.2583 88.8012C26.2211 90.3062 23.6787 90.59 21.2135 90.719C18.7482 90.848 16.1887 90.8824 13.946 91.9144C11.7033 92.9464 9.83722 95.3544 10.308 97.771L95.5913 96.9282Z" fill="#F5F5F5"/>
<path d="M163.018 54.5474C163.446 51.3912 159.021 48.8026 155.691 48.5274C154.099 48.3984 152.455 48.6478 150.949 48.1146C147.687 46.9794 146.386 42.7482 143.245 41.398C140.865 40.3918 138.109 41.2862 135.823 42.4558C133.538 43.6254 131.244 45.0874 128.667 45.2508C126.424 45.397 123.993 44.5628 122.033 45.6636C120.578 46.5236 119.807 48.1748 118.464 49.1638C117.065 50.036 115.444 50.4784 113.798 50.4366C112.16 50.4017 110.529 50.6699 108.988 51.2278C107.498 51.9158 106.266 53.4982 106.574 55.1064L163.018 54.5474Z" fill="#F5F5F5"/>
<path d="M323.493 93.3592C323.921 90.203 319.495 87.6058 316.165 87.3392C314.573 87.2102 312.93 87.451 311.423 86.9264C308.162 85.7912 306.861 81.56 303.719 80.2098C301.339 79.2036 298.583 80.098 296.297 81.2676C294.012 82.4372 291.718 83.8992 289.141 84.0626C286.899 84.2088 284.468 83.3746 282.507 84.4668C281.052 85.3268 280.282 86.978 278.938 87.9756C277.54 88.8478 275.918 89.2902 274.273 89.2484C272.634 89.2049 271.001 89.4733 269.462 90.0396C267.972 90.7276 266.74 92.3014 267.048 93.9182L323.493 93.3592Z" fill="#F5F5F5"/>
<path d="M245.451 92.7916C245.451 92.7916 242.883 90.0482 241.685 90.7018C240.486 91.3554 239.57 93.1356 239.117 94.1418C239.019 94.3346 238.971 94.5496 238.979 94.7661C238.988 94.9825 239.051 95.1933 239.164 95.378C239.276 95.5628 239.434 95.7154 239.622 95.8212C239.81 95.927 240.023 95.9824 240.238 95.9822C240.841 95.5481 241.385 95.0364 241.856 94.46L244.184 96.3606L244.261 99.5684L244.133 100.506L242.096 99.9726L241.668 97.556C241.636 97.355 241.551 97.1662 241.423 97.009C241.294 96.8519 241.126 96.7321 240.936 96.6619C240.745 96.5918 240.54 96.574 240.341 96.6102C240.141 96.6464 239.955 96.7354 239.802 96.868C239.499 97.1882 239.33 97.6131 239.331 98.0548C239.194 100.136 239.331 103.757 241.719 104.875C243.855 105.796 246.045 106.585 248.276 107.24L250.202 109.235L258.197 107.592L256.639 104.152L255.903 93.4452C255.903 93.4452 258.36 88.9904 258.188 87.5112C258.017 86.032 257.024 81.56 257.024 81.56C256.871 81.4914 256.703 81.4601 256.536 81.4685C256.368 81.477 256.204 81.5251 256.059 81.6088C255.913 81.6926 255.788 81.8096 255.696 81.9506C255.604 82.0915 255.545 82.2523 255.526 82.42C255.414 84.1062 255.46 85.7992 255.663 87.4768L253.566 91.0458L251.443 79.324C251.406 79.1258 251.31 78.9436 251.168 78.8014C251.025 78.6591 250.844 78.5635 250.646 78.5272C250.449 78.4909 250.245 78.5156 250.062 78.5979C249.879 78.6803 249.725 78.8165 249.62 78.9886C249.359 79.5218 249.246 80.1163 249.295 80.7086C249.363 83.6928 250.493 90.8222 250.151 90.9168C249.808 91.0114 248.841 90.5298 248.439 89.085C248.036 87.6402 245.999 82.0416 245.16 79.7368C245.115 79.6057 245.036 79.4892 244.93 79.3999C244.825 79.3106 244.697 79.2518 244.561 79.2297C244.425 79.2076 244.285 79.2231 244.157 79.2746C244.029 79.326 243.917 79.4115 243.833 79.5218C243.38 80.1496 243.029 81.2418 243.508 83.194C244.099 85.559 245.34 90.2804 245.451 90.848C245.51 91.4945 245.51 92.1451 245.451 92.7916Z" fill="#FFBF9D"/>
<path d="M250.793 102.699C250.733 102.699 250.51 102.406 250.065 101.976C249.487 101.424 248.804 100.994 248.057 100.714C247.31 100.433 246.514 100.307 245.717 100.342C245.1 100.342 244.715 100.471 244.698 100.403C244.681 100.334 245.032 100.153 245.682 100.041C246.531 99.9121 247.398 100.002 248.203 100.303C249.007 100.604 249.722 101.106 250.279 101.761C250.699 102.286 250.836 102.673 250.793 102.699Z" fill="#FF9A6C"/>
<path d="M229.872 349.88L242.995 370.279L248.747 389.423C248.846 389.749 249.01 390.05 249.229 390.31C249.449 390.569 249.719 390.781 250.023 390.932C250.327 391.082 250.658 391.169 250.997 391.186C251.335 391.203 251.674 391.15 251.991 391.031C252.369 390.896 252.706 390.668 252.973 390.367C253.239 390.067 253.425 389.703 253.515 389.311C254.551 384.469 258.137 362.161 257.452 361.129C256.322 359.409 245.999 342.157 245.999 342.157L229.872 349.88Z" fill="#263238"/>
<path d="M252 390.988L256.605 359.71L257.144 360.57C257.609 361.328 257.791 362.227 257.658 363.107C257.29 365.455 256.143 376.721 253.583 389.242C253.49 389.642 253.295 390.011 253.017 390.312C252.74 390.614 252.389 390.838 252 390.962V390.988Z" fill="#455A64"/>
<g opacity="0.6">
<path d="M249.269 359.116C249.128 359.46 249.119 359.844 249.244 360.193C249.369 360.543 249.619 360.834 249.945 361.008C250.28 361.162 250.661 361.18 251.009 361.058C251.356 360.936 251.644 360.684 251.811 360.355C251.958 359.991 251.965 359.585 251.83 359.216C251.696 358.848 251.43 358.542 251.084 358.36C250.722 358.235 250.327 358.255 249.98 358.415C249.632 358.575 249.359 358.863 249.218 359.22" fill="white"/>
</g>
<path d="M251.178 379.043C250.288 378.699 249.341 378.53 248.387 378.544C247.451 378.71 246.554 379.051 245.742 379.55C245.691 379.55 245.853 379.189 246.29 378.828C246.881 378.366 247.592 378.082 248.337 378.011C249.083 377.939 249.834 378.082 250.502 378.423C251.007 378.707 251.221 378.991 251.178 379.043Z" fill="white"/>
<path d="M251.409 382.715C251.409 382.87 250.296 382.603 249.038 382.956C248.295 383.234 247.572 383.562 246.872 383.936C246.744 383.867 247.471 382.809 248.901 382.44C250.33 382.07 251.486 382.56 251.409 382.715Z" fill="white"/>
<path d="M251.743 373.797C251.743 373.96 250.031 373.539 248.062 373.917C246.093 374.295 244.638 375.224 244.569 375.087C244.501 374.949 245.819 373.762 247.993 373.367C249.255 373.067 250.581 373.219 251.743 373.797Z" fill="white"/>
<path d="M248.268 367.261C248.268 367.424 246.855 367.648 245.34 368.508C243.825 369.368 242.875 370.451 242.772 370.348C242.669 370.245 243.465 368.946 245.1 368.043C246.036 367.426 247.154 367.149 248.268 367.261Z" fill="white"/>
<path d="M245.837 362.918C245.837 363.081 244.287 363.098 242.763 364.13C241.24 365.162 240.598 366.581 240.452 366.512C240.307 366.444 240.452 366.091 240.769 365.523C241.183 364.782 241.771 364.154 242.481 363.692C243.181 363.222 243.982 362.927 244.818 362.832C245.451 362.78 245.845 362.857 245.837 362.918Z" fill="white"/>
<path d="M178.683 220.519C178.683 221.336 184.675 296.672 187.012 301.591C189.349 306.51 234.803 362.78 234.803 362.78L253.78 349.639L213.48 290.97L212.35 235.99L203.002 214.43L178.683 220.519Z" fill="#263238"/>
<path d="M235.599 205.443C236.069 206.587 242.327 224.544 242.806 232.163C243.286 239.783 229.264 375.112 229.264 375.112L206.152 373.255L212.144 242.019L202.138 214.43L235.599 205.443Z" fill="#263238"/>
<path d="M209.593 234.64C209.582 234.729 209.582 234.818 209.593 234.907C209.593 235.096 209.593 235.345 209.593 235.681C209.633 236.374 209.693 237.381 209.773 238.699L210.509 250.146L213.24 291.013V291.065V291.108L245.648 338.356L253.523 349.82L253.583 349.502L234.606 362.651L234.905 362.694L200.486 319.694L190.547 307.327L187.928 303.999C187.628 303.629 187.406 303.354 187.235 303.139C187.064 302.924 186.995 302.864 186.995 302.864L187.209 303.165L187.877 304.025L190.445 307.353L200.297 319.806L234.537 362.926L234.666 363.081L234.828 362.969L253.909 349.88L254.097 349.751L253.968 349.562L246.136 338.064L213.608 290.858V290.953C212.41 274.062 211.408 259.993 210.706 250.103C210.347 245.184 210.056 241.314 209.85 238.665C209.747 237.346 209.67 236.34 209.619 235.646C209.619 235.319 209.568 235.061 209.551 234.872C209.534 234.683 209.593 234.64 209.593 234.64Z" fill="#455A64"/>
<path d="M210.989 361.92L211.468 379.567C211.468 379.567 193.775 385.983 193.552 389.251L227.638 389.552L228.015 362.032L210.989 361.92Z" fill="#263238"/>
<path d="M222.022 378.208C222.35 378.312 222.628 378.533 222.804 378.83C222.979 379.127 223.039 379.478 222.973 379.817C222.882 380.148 222.668 380.432 222.375 380.61C222.082 380.787 221.732 380.845 221.398 380.771C221.048 380.661 220.752 380.424 220.568 380.105C220.384 379.787 220.326 379.411 220.405 379.051C220.535 378.724 220.784 378.457 221.101 378.306C221.419 378.154 221.781 378.129 222.117 378.234" fill="#E0E0E0"/>
<path d="M227.638 389.586L227.569 386.808L194.913 387.565C194.913 387.565 193.389 388.21 193.552 389.285L227.638 389.586Z" fill="#455A64"/>
<path d="M210.92 379.421C210.92 379.593 211.776 379.67 212.572 380.221C213.368 380.771 213.813 381.468 213.968 381.408C214.122 381.347 213.882 380.376 212.88 379.688C211.879 379 210.886 379.266 210.92 379.421Z" fill="white"/>
<path d="M207.333 380.84C207.333 381.003 208.01 381.296 208.566 382.01C209.123 382.723 209.285 383.472 209.422 383.463C209.559 383.454 209.705 382.517 208.994 381.64C208.284 380.763 207.333 380.72 207.333 380.84Z" fill="white"/>
<path d="M205.262 385.14C205.416 385.183 205.656 384.349 205.262 383.42C204.868 382.491 204.064 382.13 203.995 382.268C203.927 382.405 204.398 382.895 204.731 383.661C205.065 384.426 205.099 385.14 205.262 385.14Z" fill="white"/>
<path d="M211.254 375.388C211.322 375.542 212.11 375.319 213.026 375.388C213.942 375.456 214.738 375.766 214.789 375.628C214.841 375.491 214.173 374.88 213.077 374.811C211.982 374.743 211.177 375.259 211.254 375.388Z" fill="white"/>
<path d="M198.722 84.011C199.661 83.8916 200.523 83.4269 201.14 82.7065C201.758 81.9862 202.088 81.0614 202.067 80.1108C202.046 79.1602 201.675 78.2512 201.025 77.5595C200.376 76.8678 199.494 76.4425 198.551 76.3656C198.976 75.6428 199.165 74.8037 199.089 73.9673C199.013 73.1309 198.677 72.3397 198.129 71.7059C197.58 71.0721 196.847 70.6279 196.033 70.4362C195.22 70.2445 194.366 70.3151 193.595 70.638C193.369 69.8431 192.941 69.1207 192.354 68.5413C191.767 67.9619 191.041 67.5453 190.246 67.3322C189.45 67.1191 188.614 67.1167 187.818 67.3253C187.021 67.5339 186.293 67.9463 185.702 68.5224C184.624 68.0066 183.404 67.8678 182.238 68.128C181.072 68.3882 180.025 69.0325 179.265 69.9586C178.454 70.0076 177.679 70.3169 177.055 70.8411C176.431 71.3652 175.991 72.0765 175.8 72.8705C175.608 73.6645 175.675 74.4993 175.991 75.2523C176.306 76.0052 176.854 76.6366 177.553 77.0536" fill="#263238"/>
<path d="M205.39 104.359C204.449 100.231 201.838 91.9058 199.398 84.398C198.118 80.5126 195.433 77.2513 191.875 75.2591C188.317 73.2669 184.143 72.6889 180.181 73.6394L179.368 73.82C170.688 76.4688 168.077 85.3526 170.953 94.0042L179.796 124.723L200.691 122.401L199.193 116.244C199.193 116.244 207.325 112.881 205.39 104.359Z" fill="#FFBF9D"/>
<path d="M199.244 116.227C195.313 117.18 191.193 116.98 187.372 115.65C187.372 115.65 191.446 121.137 199.707 118.334L199.244 116.227Z" fill="#FF9A6C"/>
<path d="M197.549 92.6884C197.629 93.0029 197.585 93.3362 197.425 93.6184C197.265 93.9006 197.003 94.1098 196.693 94.202C196.542 94.251 196.383 94.2691 196.225 94.2552C196.067 94.2413 195.913 94.1958 195.772 94.1212C195.632 94.0467 195.508 93.9447 195.407 93.8212C195.307 93.6977 195.232 93.5552 195.187 93.4022C195.108 93.0888 195.152 92.7566 195.312 92.4758C195.472 92.195 195.734 91.9876 196.043 91.8972C196.194 91.8481 196.352 91.8296 196.51 91.8429C196.668 91.8562 196.821 91.9011 196.962 91.9747C197.102 92.0484 197.226 92.1495 197.327 92.272C197.428 92.3946 197.504 92.5361 197.549 92.6884Z" fill="#263238"/>
<path d="M198.568 89.0076C198.457 89.1968 197.378 88.741 196.077 89.0592C194.776 89.3774 193.98 90.2632 193.8 90.1342C193.62 90.0052 193.8 89.7558 194.143 89.3516C194.611 88.8245 195.23 88.4552 195.915 88.2938C196.59 88.1267 197.301 88.181 197.943 88.4486C198.423 88.6636 198.628 88.913 198.568 89.0076Z" fill="#263238"/>
<path d="M186.07 95.5952C186.15 95.9097 186.106 96.243 185.946 96.5252C185.786 96.8074 185.524 97.0166 185.214 97.1088C185.063 97.1579 184.903 97.1761 184.744 97.1623C184.585 97.1485 184.431 97.1031 184.29 97.0286C184.149 96.9541 184.024 96.8521 183.922 96.7286C183.821 96.605 183.745 96.4624 183.699 96.309C183.622 95.9957 183.668 95.6645 183.827 95.3843C183.987 95.1041 184.247 94.8962 184.555 94.804C184.706 94.7535 184.866 94.734 185.025 94.7467C185.184 94.7594 185.338 94.8039 185.479 94.8777C185.621 94.9515 185.746 95.053 185.847 95.1762C185.949 95.2995 186.025 95.442 186.07 95.5952Z" fill="#263238"/>
<path d="M185.993 92.3616C185.899 92.568 184.787 92.1982 183.511 92.611C182.236 93.0238 181.517 93.9784 181.328 93.8666C181.14 93.7548 181.328 93.4882 181.611 93.0582C182.04 92.499 182.63 92.0859 183.3 91.8752C183.971 91.6644 184.69 91.6661 185.36 91.88C185.822 92.0348 186.045 92.2756 185.993 92.3616Z" fill="#263238"/>
<path d="M192.884 100.893C193.52 100.523 194.198 100.234 194.904 100.033C195.23 99.921 195.529 99.7748 195.529 99.534C195.478 99.1819 195.32 98.8544 195.076 98.5966C194.562 97.8656 194.04 97.1002 193.483 96.2918C191.249 93.0066 189.546 90.2718 189.683 90.1858C189.82 90.0998 191.729 92.6884 193.963 95.9736L195.512 98.3042C195.822 98.6523 195.995 99.1015 196 99.5684C195.98 99.6975 195.931 99.8203 195.857 99.9276C195.783 100.035 195.686 100.124 195.572 100.188C195.401 100.287 195.217 100.359 195.024 100.403C194.334 100.656 193.615 100.82 192.884 100.893Z" fill="#263238"/>
<path d="M184.504 88.0616C184.504 88.44 183.34 88.7066 182.081 89.3774C180.823 90.0482 179.916 90.8652 179.625 90.6244C179.496 90.504 179.556 90.117 179.864 89.6182C180.271 89.0005 180.828 88.4973 181.482 88.1562C182.126 87.8107 182.85 87.6417 183.579 87.666C184.11 87.7004 184.453 87.881 184.504 88.0616Z" fill="#263238"/>
<path d="M197.592 85.3956C197.395 85.7396 196.342 85.602 195.144 85.7998C193.946 85.9976 192.978 86.3932 192.687 86.118C192.559 85.9804 192.687 85.6536 193.055 85.258C193.6 84.8098 194.256 84.5186 194.952 84.4156C195.649 84.3126 196.36 84.4016 197.01 84.6732C197.489 84.9484 197.678 85.2322 197.592 85.3956Z" fill="#263238"/>
<path d="M197.644 80.7C197.644 80.7 194.125 75.9098 191.275 75.2906C187.851 74.5338 187.303 78.2662 184.162 78.1544C181.02 78.0426 177.707 77.2944 175.242 80.3302C172.546 83.6412 174.514 85.0258 175.242 88.8442C178.084 104.324 176.346 109.347 173.821 102.329C173.547 101.564 171.253 101.469 170.098 98.201C168.634 93.9784 167.213 88.741 167.435 85.4644C167.624 82.6866 168.668 80.5452 170.859 77.9308C174.283 73.82 179.959 72.3666 183.93 71.8162C187.902 71.2658 196.394 73.949 197.644 80.7Z" fill="#263238"/>
<path d="M174.283 101.968C174.198 101.658 174.052 101.369 173.852 101.118C173.653 100.867 173.405 100.659 173.123 100.507C172.842 100.355 172.532 100.262 172.214 100.234C171.895 100.205 171.574 100.242 171.27 100.342C169.729 100.876 168.189 102.2 169.079 105.502C170.654 111.264 176.098 108.487 176.055 108.315C176.012 108.143 174.968 104.376 174.283 101.968Z" fill="#FFBF9D"/>
<path d="M174.232 106.448C174.232 106.448 174.155 106.543 174.001 106.672C173.793 106.839 173.53 106.919 173.265 106.896C172.597 106.835 171.818 106.036 171.501 104.978C171.356 104.487 171.318 103.971 171.39 103.464C171.393 103.269 171.444 103.078 171.538 102.907C171.632 102.736 171.767 102.591 171.929 102.484C172.036 102.42 172.161 102.396 172.284 102.416C172.406 102.437 172.517 102.5 172.597 102.596C172.717 102.733 172.717 102.862 172.751 102.862C172.785 102.862 172.845 102.733 172.751 102.51C172.68 102.375 172.566 102.268 172.426 102.209C172.237 102.131 172.024 102.131 171.835 102.209C171.611 102.321 171.42 102.489 171.279 102.697C171.138 102.904 171.053 103.145 171.031 103.395C170.92 103.968 170.952 104.559 171.125 105.115C171.476 106.268 172.366 107.197 173.265 107.205C173.428 107.205 173.589 107.168 173.737 107.098C173.885 107.028 174.016 106.927 174.121 106.801C174.232 106.595 174.232 106.5 174.232 106.448Z" fill="#FF9A6C"/>
<path d="M171.664 90.676C172.515 91.0822 173.454 91.2685 174.395 91.2178C174.861 91.177 175.297 90.9684 175.623 90.6302C175.948 90.2921 176.142 89.8472 176.167 89.3774C176.167 88.956 175.927 88.5174 176.115 88.139C176.304 87.7606 176.971 87.6574 177.451 87.5972C178.313 87.4578 179.101 87.0243 179.683 86.3696C180.264 85.7149 180.603 84.8789 180.643 84.0024C180.972 84.2274 181.373 84.3212 181.767 84.2655C182.161 84.2099 182.52 84.0088 182.775 83.7014C183.262 83.0683 183.654 82.3671 183.939 81.6202C184.086 81.2541 184.318 80.9287 184.616 80.6713C184.914 80.4139 185.269 80.2321 185.651 80.141C186.089 80.1928 186.531 80.1928 186.969 80.141C187.714 79.8916 187.877 78.9112 187.825 78.12C187.774 77.3288 187.637 76.4 188.176 75.8668C188.772 75.4392 189.501 75.2408 190.231 75.3078C190.958 75.239 191.823 74.852 191.84 74.121C191.806 73.7361 191.621 73.3805 191.326 73.132C190.687 72.5423 189.869 72.1866 189.003 72.1226C188.138 72.0586 187.277 72.2901 186.558 72.7794C186.042 71.8795 185.271 71.1539 184.344 70.6945C183.417 70.2351 182.375 70.0626 181.35 70.199C180.325 70.3353 179.363 70.7742 178.587 71.4602C177.81 72.1462 177.254 73.0483 176.988 74.0522C176.24 73.6395 175.403 73.4146 174.55 73.3967C173.696 73.3788 172.851 73.5683 172.086 73.9492C171.321 74.3301 170.659 74.891 170.156 75.5843C169.654 76.2775 169.325 77.0825 169.199 77.9308C168.444 77.9146 167.702 78.1219 167.064 78.5268C166.426 78.9318 165.921 79.5164 165.611 80.2079C165.302 80.8994 165.202 81.6671 165.324 82.4152C165.446 83.1634 165.784 83.859 166.297 84.4152C165.824 84.8143 165.459 85.3271 165.236 85.906C165.013 86.4849 164.939 87.111 165.021 87.7262C165.295 88.9388 166.734 89.8504 167.829 89.257C167.67 89.7998 167.732 90.3839 168.002 90.8806C168.272 91.3774 168.727 91.7461 169.267 91.9058C169.808 92.0655 170.389 92.0029 170.883 91.732C171.378 91.461 171.745 91.0038 171.904 90.461" fill="#263238"/>
<path d="M187.449 74.3618C187.449 74.3618 187.449 74.3618 187.449 74.465C187.457 74.5709 187.457 74.6773 187.449 74.7832C187.469 75.1956 187.42 75.6084 187.303 76.0044C187.123 76.6458 186.795 77.2353 186.344 77.7244C185.783 78.3665 185.029 78.8073 184.196 78.98L184.264 78.8252C184.565 79.3129 184.663 79.8995 184.538 80.4592C184.403 81.0439 184.184 81.6059 183.888 82.1276C183.76 82.4327 183.596 82.7215 183.4 82.9876C183.167 83.2465 182.872 83.4418 182.544 83.5552C182.213 83.6868 181.855 83.7353 181.502 83.6963C181.148 83.6573 180.81 83.5321 180.515 83.3316L180.721 83.2198C180.781 83.84 180.713 84.466 180.519 85.0581C180.326 85.6503 180.013 86.1957 179.599 86.6598C179.157 87.1938 178.558 87.5731 177.887 87.7434C177.233 87.8547 176.564 87.8547 175.91 87.7434L176.047 87.6316C175.917 88.4094 175.596 89.1424 175.114 89.7644C174.896 90.0661 174.614 90.3152 174.288 90.4937C173.962 90.6722 173.601 90.7756 173.231 90.7964C172.591 90.8144 171.96 90.6431 171.417 90.3036C170.873 89.9641 170.441 89.4715 170.175 88.8872H170.32C169.787 89.3562 169.111 89.6292 168.403 89.6612C167.873 89.6911 167.344 89.5907 166.862 89.3688C166.545 89.2404 166.255 89.0537 166.006 88.8184C165.923 88.7377 165.848 88.6483 165.783 88.5518C166.095 88.8596 166.461 89.1074 166.862 89.2828C167.335 89.4724 167.844 89.5518 168.351 89.515C169.02 89.4727 169.654 89.2027 170.149 88.7496L170.243 88.6636L170.294 88.784C170.561 89.3179 170.975 89.7638 171.486 90.0687C171.997 90.3736 172.585 90.5246 173.179 90.504C173.518 90.4824 173.848 90.3847 174.144 90.218C174.44 90.0513 174.696 89.8199 174.891 89.5408C175.339 88.9523 175.634 88.2605 175.747 87.5284V87.408H175.944C176.567 87.5153 177.204 87.5153 177.827 87.408C178.459 87.2541 179.026 86.9016 179.445 86.4018C179.837 85.9607 180.134 85.4422 180.315 84.8795C180.496 84.3167 180.559 83.7222 180.498 83.1338V82.85L180.729 83.022C180.99 83.1954 181.289 83.3031 181.601 83.336C181.912 83.369 182.227 83.3261 182.518 83.2112C182.8 83.1109 183.053 82.9425 183.254 82.721C183.435 82.48 183.59 82.2206 183.717 81.947C184.005 81.4439 184.221 80.9025 184.359 80.3388C184.48 79.8355 184.4 79.3044 184.136 78.8596L184.05 78.7306H184.204C185.018 78.583 185.762 78.1759 186.327 77.5696C186.761 77.1109 187.088 76.5618 187.286 75.9614C187.433 75.4419 187.488 74.9005 187.449 74.3618Z" fill="#455A64"/>
<path d="M189.494 103.567C191.148 103.474 192.807 103.584 194.434 103.894C194.511 105.021 194.485 106.285 193.697 107.093C193.394 107.386 193.018 107.592 192.609 107.69C192.2 107.788 191.772 107.775 191.369 107.652C190.986 107.541 190.633 107.344 190.337 107.075C190.04 106.807 189.808 106.475 189.657 106.104C189.409 105.283 189.353 104.414 189.494 103.567Z" fill="#FF9A6C"/>
<path d="M192.816 107.558C192.298 107.703 191.748 107.685 191.241 107.506C190.71 107.294 190.273 106.897 190.008 106.388C189.691 105.756 189.555 105.047 189.614 104.341C189.614 104.169 189.614 103.92 189.674 103.817H189.931L191.001 103.868L192.816 103.937C193.386 103.996 193.962 103.979 194.528 103.886C193.987 103.734 193.429 103.651 192.867 103.636L191.053 103.481L189.983 103.404H189.683C189.593 103.407 189.506 103.436 189.433 103.488C189.36 103.54 189.304 103.612 189.272 103.696C189.224 103.908 189.198 104.124 189.195 104.341C189.129 105.128 189.293 105.917 189.666 106.612C189.993 107.181 190.517 107.61 191.138 107.816C191.553 107.951 191.999 107.951 192.414 107.816C192.705 107.695 192.824 107.575 192.816 107.558Z" fill="#263238"/>
<path d="M158.91 134.433L126.51 144.013L115.836 129.961C115.913 131.621 102.653 129.531 102.653 129.531C112.069 152.329 117.265 159.94 118.669 160.603C122.23 162.271 149.194 162.03 151.325 161.514C153.457 160.998 172.914 158.212 172.914 158.212L169.344 130.838L161.255 133.418C160.441 133.674 159.655 134.014 158.91 134.433Z" fill="#455A64"/>
<path d="M237.191 196.662C235.325 189.567 231.199 173.391 231.199 173.391L222.699 123.158L203.636 123.313L202.043 119.95C201.885 119.598 201.613 119.31 201.271 119.132C200.93 118.954 200.538 118.897 200.16 118.97L179.959 122.591C179.734 122.623 179.519 122.7 179.324 122.817C179.13 122.934 178.96 123.088 178.826 123.272C178.691 123.455 178.594 123.663 178.54 123.884C178.486 124.105 178.477 124.335 178.512 124.56L178.889 127.278L163.481 133.014L161.769 155.511L174.232 206.75L174.985 213.974C175.08 214.823 175.348 215.643 175.772 216.382C176.196 217.122 176.767 217.766 177.451 218.274L179.659 219.943L235.505 206.991L236.883 203.19C237.647 201.097 237.754 198.819 237.191 196.662Z" fill="#455A64"/>
<path d="M178.683 218.739L179.205 226.324L238.911 212.34L236.771 202.605L178.683 218.739Z" fill="#455A64"/>
<path d="M231.276 207.361C231.154 208.389 231.188 209.43 231.379 210.448C231.418 211.485 231.608 212.511 231.944 213.493C232.03 211.427 231.805 209.359 231.276 207.361Z" fill="#263238"/>
<path d="M221.783 209.571C221.742 210.617 221.857 211.664 222.125 212.676C222.241 213.718 222.509 214.739 222.921 215.703C222.963 214.654 222.847 213.604 222.579 212.59C222.459 211.55 222.191 210.534 221.783 209.571Z" fill="#263238"/>
<path d="M211.828 212.521C211.773 213.519 211.871 214.52 212.119 215.488C212.219 216.479 212.473 217.448 212.872 218.36C212.921 217.365 212.82 216.367 212.572 215.402C212.475 214.408 212.223 213.436 211.828 212.521Z" fill="#263238"/>
<path d="M199.398 215.436C199.369 216.563 199.496 217.689 199.775 218.782C199.914 219.904 200.202 221.004 200.631 222.05C200.66 220.919 200.533 219.791 200.254 218.696C200.113 217.576 199.826 216.48 199.398 215.436Z" fill="#263238"/>
<path d="M187.765 218.111C187.828 219.176 188.038 220.226 188.39 221.233C188.6 222.281 188.963 223.293 189.469 224.234C189.406 223.169 189.193 222.117 188.835 221.112C188.626 220.065 188.266 219.053 187.765 218.111Z" fill="#263238"/>
<path d="M222.699 123.158H224.856C227.476 123.21 230.039 123.932 232.303 125.257L251.135 136.299L246.564 108.899L261.424 105.846C261.424 105.846 270.155 141.476 270.13 147.126C270.078 158.504 261.364 162.434 252.642 159.743C250.074 158.943 218.915 144.71 218.915 144.71L222.699 123.158Z" fill="#455A64"/>
<path d="M230.779 176.676C230.908 176.676 229.53 165.978 227.698 152.837C225.866 139.696 224.274 129.032 224.162 129.058C224.051 129.084 225.412 139.748 227.244 152.897C229.076 166.046 230.651 176.693 230.779 176.676Z" fill="#263238"/>
<path d="M217.392 171.645C217.392 171.645 217.28 171.757 217.109 171.998L216.364 173.073C215.697 174.07 214.798 175.412 213.694 177.046C211.434 180.391 208.258 184.975 204.594 189.946C200.931 194.917 197.481 199.285 194.947 202.424L191.934 206.14L191.121 207.163C191.017 207.276 190.931 207.403 190.864 207.541C190.987 207.448 191.099 207.341 191.198 207.223L192.054 206.26C192.807 205.4 193.877 204.179 195.178 202.639C197.746 199.543 201.282 195.183 204.954 190.221C208.626 185.259 211.802 180.632 213.95 177.235C215.046 175.515 215.919 174.148 216.518 173.176L217.186 172.058C217.269 171.928 217.338 171.79 217.392 171.645Z" fill="#263238"/>
<path d="M210.86 159.459C210.602 159.797 210.373 160.156 210.175 160.534L208.463 163.552C206.991 166.132 204.928 169.572 202.566 173.425C200.203 177.278 197.986 180.649 196.368 183.1L194.442 186.016C194.192 186.36 193.971 186.725 193.783 187.108C194.102 186.809 194.389 186.478 194.639 186.119C195.136 185.457 195.829 184.493 196.676 183.289C198.388 180.881 200.64 177.493 203.002 173.666C205.365 169.839 207.385 166.304 208.789 163.716C209.491 162.417 210.039 161.359 210.407 160.62C210.595 160.249 210.747 159.86 210.86 159.459Z" fill="#263238"/>
<path d="M203.148 123.339C203.148 123.27 201.881 123.889 199.818 124.672C197.132 125.699 194.35 126.454 191.515 126.925C188.685 127.375 185.818 127.545 182.955 127.432C180.746 127.338 179.394 127.149 179.377 127.226C179.679 127.34 179.996 127.412 180.318 127.441C181.185 127.595 182.059 127.701 182.938 127.759C188.734 128.186 194.55 127.234 199.912 124.981C200.725 124.646 201.519 124.268 202.292 123.846C202.599 123.718 202.888 123.548 203.148 123.339Z" fill="#263238"/>
<g opacity="0.3">
<path d="M214.276 176.745C213.448 182.473 211.209 187.903 207.761 192.54C204.314 197.178 199.768 200.877 194.536 203.302L214.276 176.745Z" fill="black"/>
</g>
<path d="M159.98 145.475C159.86 145.475 161.375 152.175 163.361 160.362C165.347 168.549 167.067 175.171 167.196 175.145C167.324 175.119 165.809 168.446 163.815 160.25C161.82 152.054 160.108 145.441 159.98 145.475Z" fill="#263238"/>
<path d="M112.112 120.785C112.638 120.68 113.182 120.739 113.674 120.954C114.165 121.17 114.579 121.53 114.86 121.989C115.922 124.175 116.506 126.565 116.572 128.998C116.572 128.998 119.191 129.453 119.277 130.528C119.362 131.603 118.738 132.653 116.221 132.618C116.221 132.618 114.56 135.8 112.934 134.674C111.307 133.547 111.812 132.231 111.812 132.231C111.812 132.231 110.332 134.708 108.02 131.526C107.715 131.756 107.366 131.92 106.995 132.008C106.624 132.097 106.239 132.109 105.863 132.042C105.226 131.902 104.666 131.524 104.297 130.984C104.297 130.984 102.876 131.767 102.046 130.752C100.495 128.688 99.1506 126.476 98.0309 124.147C97.7908 123.459 97.7697 122.712 97.9706 122.011C98.1716 121.31 98.5845 120.689 99.1522 120.234C100.308 119.503 102.242 120.183 102.242 120.183C102.762 119.652 103.451 119.323 104.188 119.252C104.925 119.181 105.664 119.374 106.274 119.796C106.695 119.407 107.198 119.121 107.746 118.958C108.293 118.795 108.871 118.76 109.434 118.855C109.997 118.951 110.531 119.174 110.995 119.508C111.459 119.843 111.841 120.279 112.112 120.785Z" fill="#FFBF9D"/>
<path d="M101.729 123.992C101.974 125.21 102.371 126.392 102.91 127.51C103.278 128.447 103.603 129.307 103.766 129.935C103.929 130.563 104.066 130.967 104.134 130.958C104.203 130.95 104.211 130.528 104.083 129.858C103.898 128.996 103.637 128.153 103.304 127.338C102.912 126.164 102.384 125.041 101.729 123.992Z" fill="#FF9A6C"/>
<path d="M105.35 123.115C105.542 124.581 105.886 126.022 106.377 127.415C106.722 128.855 107.267 130.239 107.995 131.526C107.705 130.083 107.31 128.663 106.813 127.278C106.469 125.843 105.979 124.448 105.35 123.115Z" fill="#FF9A6C"/>
<path d="M110.126 123.167C109.998 123.21 110.725 125.196 111.308 127.733C111.571 128.802 111.76 129.889 111.872 130.984C111.881 131.426 111.838 131.868 111.744 132.3C111.787 132.3 112.198 131.887 112.241 130.976C112.229 129.841 112.079 128.712 111.795 127.613C111.502 126.044 110.937 124.539 110.126 123.167Z" fill="#FF9A6C"/>
<path d="M115.562 123.743C115.408 123.743 116.033 125.816 116.281 128.37C116.366 129.46 116.366 130.556 116.281 131.646C116.215 132.088 116.1 132.52 115.938 132.936C115.938 132.988 116.444 132.592 116.606 131.698C116.785 130.583 116.822 129.451 116.717 128.327C116.632 126.738 116.239 125.181 115.562 123.743Z" fill="#FF9A6C"/>
<path d="M119.328 252.7C119.328 252.7 113.91 247.205 112.36 280.444C110.897 311.816 108.748 357.052 116.247 376.454C117.047 378.557 118.508 380.341 120.407 381.537C122.395 382.755 124.608 383.557 126.912 383.893C133.444 384.916 159.252 384.34 159.252 384.34C159.252 384.34 173.898 384.34 174.121 372.231C174.3 362.255 174.121 340.575 174.121 340.575L119.328 252.7Z" fill="#263238"/>
<g opacity="0.3">
<path d="M119.328 252.7C119.328 252.7 113.91 247.205 112.36 280.444C110.897 311.816 108.748 357.052 116.247 376.454C117.047 378.557 118.508 380.341 120.407 381.537C122.395 382.755 124.608 383.557 126.912 383.893C133.444 384.916 159.252 384.34 159.252 384.34C159.252 384.34 173.898 384.34 174.121 372.231C174.3 362.255 174.121 340.575 174.121 340.575L119.328 252.7Z" fill="black"/>
</g>
<path d="M199.056 195.209C199.056 195.209 197.412 200.825 194.031 201.41C190.65 201.994 164.003 202.82 164.003 202.82L161.435 208.204H156.419L152.772 186.618L155.879 187.263C156.402 187.37 156.892 187.603 157.306 187.941C157.721 188.279 158.048 188.714 158.259 189.206C158.491 189.751 158.863 190.223 159.337 190.575C159.811 190.927 160.369 191.146 160.955 191.21L199.056 195.209Z" fill="#263238"/>
<path d="M197.917 196.043C198.387 196.009 198.845 195.878 199.262 195.658C199.679 195.439 200.046 195.135 200.341 194.766C200.636 194.397 200.852 193.971 200.975 193.515C201.099 193.058 201.127 192.581 201.059 192.113C200.203 185.947 196.967 173.958 185.12 172.187C177.802 170.984 170.354 170.793 162.984 171.619C161.144 171.851 160.228 173.537 160.005 175.386C158.995 183.866 159.817 194.383 162.248 195.673C164.679 196.963 189.263 196.731 197.917 196.043Z" fill="#EDBA37"/>
<path d="M182.03 172.238C182.287 172.499 182.514 172.787 182.706 173.098C183.126 173.657 183.691 174.5 184.358 175.558C187.822 181.09 190.42 187.123 192.062 193.446C192.371 194.659 192.593 195.648 192.722 196.336C192.809 196.688 192.861 197.048 192.876 197.411C192.727 197.078 192.617 196.729 192.55 196.37C192.371 195.699 192.105 194.727 191.763 193.532C190.855 190.418 189.76 187.363 188.484 184.382C187.199 181.407 185.732 178.515 184.093 175.721C183.468 174.646 182.946 173.786 182.569 173.193C182.363 172.891 182.183 172.571 182.03 172.238Z" fill="#263238"/>
<path d="M193.064 275.223C193.064 275.223 198.474 269.728 200.032 302.967C201.495 334.34 203.644 379.576 196.137 398.977C195.339 401.082 193.878 402.867 191.977 404.06C189.992 405.28 187.782 406.084 185.48 406.425C178.948 407.44 153.14 406.864 153.14 406.864C153.14 406.864 138.494 406.864 138.271 394.755C138.092 384.779 138.271 363.107 138.271 363.107L193.064 275.223Z" fill="#263238"/>
<path d="M193.064 275.223L192.816 275.653C192.636 275.946 192.379 276.359 192.054 276.909C191.369 278.01 190.342 279.635 189.075 281.742C186.456 285.973 182.638 292.14 177.819 299.905C168.154 315.454 154.484 337.427 138.443 363.21V363.107C138.443 372.567 138.443 382.448 138.443 392.708C138.39 393.986 138.442 395.266 138.597 396.535C138.783 397.799 139.192 399.019 139.804 400.138C141.128 402.374 143.159 404.1 145.573 405.04C150.409 407.208 155.931 406.571 161.298 406.76C166.964 406.812 172.571 406.829 178.084 406.674C180.815 406.659 183.541 406.447 186.242 406.038C187.555 405.778 188.833 405.366 190.051 404.808C191.266 404.285 192.386 403.561 193.363 402.667C194.314 401.767 195.084 400.693 195.632 399.502C195.89 398.899 196.113 398.282 196.3 397.653L196.916 395.778C197.131 395.159 197.308 394.527 197.447 393.886L197.909 391.986C198.243 390.73 198.457 389.449 198.679 388.184C199.193 385.656 199.467 383.11 199.801 380.608C199.955 379.361 200.049 378.105 200.177 376.867C200.306 375.628 200.425 374.39 200.485 373.16C201.179 363.313 201.273 353.931 201.213 345.15C201.153 336.369 200.888 328.199 200.605 320.735C200.323 313.27 200.015 306.527 199.749 300.602C199.524 295.538 199.041 290.489 198.303 285.475C197.635 281.372 196.83 278.173 195.675 276.307C195.447 275.894 195.142 275.529 194.776 275.232C194.507 275.016 194.17 274.903 193.826 274.914C193.546 274.935 193.279 275.043 193.064 275.223C193.11 275.169 193.165 275.122 193.227 275.086C193.405 274.964 193.611 274.89 193.826 274.871C194.182 274.844 194.536 274.952 194.819 275.172C195.208 275.467 195.536 275.835 195.786 276.255C196.976 278.139 197.815 281.338 198.508 285.449C199.277 290.467 199.786 295.522 200.032 300.593C200.34 306.519 200.665 313.261 200.973 320.726C201.281 328.191 201.547 336.361 201.632 345.15C201.718 353.939 201.632 363.322 200.948 373.186C200.888 374.424 200.751 375.654 200.639 376.901C200.528 378.148 200.425 379.404 200.271 380.659C199.938 383.171 199.655 385.716 199.15 388.262C198.927 389.535 198.714 390.842 198.38 392.089C198.226 392.725 198.063 393.362 197.909 393.998C197.774 394.645 197.597 395.283 197.378 395.907L196.762 397.799C196.565 398.441 196.337 399.073 196.077 399.691C195.507 400.934 194.705 402.055 193.714 402.994C192.703 403.921 191.546 404.673 190.29 405.221C189.041 405.79 187.732 406.214 186.387 406.485C183.664 406.899 180.915 407.114 178.161 407.13C172.631 407.285 167.033 407.268 161.349 407.216L153.294 407.096C150.604 407.04 147.948 406.48 145.462 405.445C142.952 404.471 140.842 402.678 139.47 400.353C138.834 399.188 138.408 397.918 138.211 396.604C138.055 395.314 138.001 394.015 138.049 392.717C138.049 382.457 138.049 372.55 138.049 363.098V363.047V362.995L177.57 299.759C182.432 292.019 186.284 285.879 188.921 281.699C190.248 279.609 191.258 277.993 191.951 276.9L192.739 275.671C192.918 275.361 193.064 275.223 193.064 275.223Z" fill="#455A64"/>
<path d="M198.046 246.585L186.062 238.665C183.331 226.358 161.101 200.825 161.101 200.825C161.101 200.825 137.989 144.744 117.984 131.517C97.9796 118.291 0.464016 119.959 0.464016 119.959L-4.67199 120.036C-4.67199 120.036 -108.025 118.316 -127.996 131.517C-147.966 144.718 -171.113 200.825 -171.113 200.825C-171.113 200.825 -193.369 226.358 -196.065 238.665L-208.049 246.585C-209.248 247.368 -210.225 248.448 -210.886 249.721C-211.548 250.994 -211.871 252.417 -211.824 253.852C-211.088 274.621 -207.116 357.052 -200.182 366.332C-193.54 375.19 -130.778 370.494 -113.726 370.468C-89.2534 370.468 -13.0522 369.428 -13.0522 369.428L98.9383 369.144C111.641 367.777 181.499 376.368 190.128 366.332C197.661 357.568 201.042 274.621 201.77 253.852C201.822 252.422 201.506 251.002 200.854 249.729C200.202 248.457 199.235 247.374 198.046 246.585Z" fill="#EDBA37"/>
<path d="M112.6 135.284C112.352 134.849 111.998 134.485 111.571 134.225C111.144 133.964 110.659 133.817 110.16 133.796L-3.23395 128.912H-4.13274V128.98L-120.232 133.796C-120.731 133.817 -121.216 133.964 -121.643 134.225C-122.069 134.485 -122.423 134.849 -122.672 135.284L-152.229 187.116C-152.46 187.515 -152.583 187.967 -152.587 188.428C-152.59 188.889 -152.475 189.343 -152.251 189.746C-152.028 190.148 -151.704 190.485 -151.311 190.724C-150.918 190.963 -150.471 191.094 -150.012 191.107C-146.759 191.201 -141.949 191.253 -136.316 191.021C-127.226 190.642 -54.8935 190.814 -16.716 190.943V191.021L-4.99731 190.978L6.72133 191.021V190.943C44.8989 190.814 117.222 190.642 126.313 191.021C132.202 191.262 137.218 191.201 140.463 191.098C140.871 191.084 141.268 190.964 141.616 190.75C141.964 190.537 142.252 190.236 142.451 189.878C142.65 189.52 142.753 189.117 142.751 188.707C142.749 188.297 142.642 187.894 142.44 187.538L112.6 135.284Z" fill="#455A64"/>
<path d="M-141.23 181.268L131.492 180.52L133.7 185.964L1.92776 186.833L-143.798 185.878L-141.23 181.268Z" fill="#EDBA37"/>
<g opacity="0.5">
<path d="M-141.23 181.268L130.713 180.52L133.7 185.964L1.92776 186.833L-143.798 185.878L-141.23 181.268Z" fill="black"/>
</g>
<path d="M176.278 359.443C175.816 358.471 174.84 357.775 172.914 357.99C167.564 358.6 111.479 359.856 103.749 357.99C96.0193 356.124 70.2708 326.772 59.374 324.768C50.2319 323.091 5.77978 322.188 -8.31854 322.601C-22.4169 322.197 -66.8604 323.091 -76.0025 324.768C-86.8993 326.772 -112.263 358.996 -119.992 360.888C-127.722 362.78 -184.192 358.626 -189.542 358.016C-191.477 357.801 -192.453 358.497 -192.906 359.469C-193.113 359.945 -193.201 360.464 -193.16 360.981C-193.119 361.499 -192.953 361.998 -192.674 362.435C-192.396 362.872 -192.014 363.234 -191.563 363.487C-191.113 363.741 -190.607 363.879 -190.09 363.889C-178.106 364.225 -132.019 364.749 -123.391 364.603L-6.21276 362.453C17.1817 362.599 97.115 363.115 105.581 363.236C115.562 363.373 161.512 364.225 173.453 363.889C173.973 363.88 174.482 363.742 174.936 363.487C175.39 363.232 175.773 362.868 176.053 362.428C176.333 361.988 176.5 361.485 176.539 360.964C176.578 360.443 176.488 359.921 176.278 359.443Z" fill="#263238"/>
<path d="M-24.0433 132.756C-23.5811 132.756 -22.1944 140.848 -15.6973 140.694C-9.2003 140.539 6.66137 140.694 6.66137 140.694V130.58L-24.0433 132.756Z" fill="#263238"/>
<path d="M-118.683 356.218C-118.52 356.159 -118.363 356.087 -118.212 356.003C-117.775 355.728 -117.355 355.426 -116.954 355.1C-115.884 354.24 -114.386 352.933 -112.46 351.187C-108.642 347.687 -103.232 342.493 -96.7263 335.896C-95.0999 334.245 -93.4164 332.502 -91.6759 330.668C-89.928 328.692 -88.0704 326.817 -86.1119 325.052C-83.901 323.272 -81.414 321.868 -78.7503 320.898C-75.9229 319.887 -72.9706 319.27 -69.9763 319.066C-68.444 318.954 -66.8861 318.946 -65.3282 318.929L-60.5774 318.886L-50.7848 318.791L-30.198 318.593L42.057 318L63.9535 317.862H71.452C71.803 317.862 71.9827 317.862 71.9827 317.862H71.452H69.9027L63.9535 317.965L42.057 318.232L-30.198 318.963L-50.7848 319.152L-60.5774 319.238H-65.3282C-66.8947 319.238 -68.4269 319.238 -69.9506 319.367C-72.9062 319.561 -75.8212 320.163 -78.6133 321.156C-81.2419 322.105 -83.6971 323.483 -85.8808 325.232C-87.833 326.98 -89.6849 328.838 -91.4276 330.797C-93.1396 332.628 -94.8516 334.357 -96.5037 336.008C-103.035 342.579 -108.488 347.747 -112.34 351.204C-114.274 352.924 -115.807 354.24 -116.902 355.057C-117.308 355.376 -117.737 355.664 -118.186 355.917C-118.322 356.06 -118.494 356.164 -118.683 356.218Z" fill="#263238"/>
<g opacity="0.3">
<path d="M-88.2177 292.449C-38.0561 305.857 14.9047 302.494 66.4444 296.56C74.4052 295.64 83.0594 294.307 88.495 288.39" fill="black"/>
</g>
<path d="M98.6643 246.001C79.079 243.214 37.8883 241.838 -2.96859 241.864C-43.8255 241.89 -85.0248 243.214 -104.61 246.001C-106.057 246.201 -107.443 246.711 -108.676 247.498C-109.909 248.284 -110.958 249.328 -111.753 250.559C-112.548 251.789 -113.071 253.177 -113.284 254.629C-113.497 256.08 -113.397 257.56 -112.99 258.969C-112.99 259.038 -112.99 259.107 -112.93 259.184C-110.79 266.245 -102.342 288.803 -88.8853 292.183C-82.6451 293.756 -47.4806 295.261 -9.9621 295.562V295.623H-2.96859H4.01637V295.562C41.5349 295.261 76.7079 293.756 82.9481 292.183C96.3959 288.803 104.845 266.245 106.985 259.184C106.985 259.107 107.027 259.038 107.045 258.969C107.451 257.56 107.552 256.08 107.338 254.629C107.125 253.177 106.603 251.789 105.808 250.559C105.012 249.328 103.963 248.284 102.73 247.498C101.498 246.711 100.111 246.201 98.6643 246.001Z" fill="#263238"/>
<path d="M103.621 289.198L103.107 289.482L101.566 290.273L99.0666 291.555C98.5616 291.804 98.0394 292.097 97.4573 292.363L95.5913 293.223C88.1559 296.597 80.4465 299.325 72.5477 301.376C60.8179 304.362 48.8611 306.361 36.8012 307.353C23.1993 308.617 8.17653 308.892 -7.56531 308.832C-23.3072 308.772 -38.3385 308.041 -51.889 306.252C-63.9005 304.755 -75.7417 302.106 -87.2504 298.34C-95.0034 295.785 -102.517 292.548 -109.703 288.665C-110.979 287.994 -112.083 287.332 -113.05 286.773C-114.017 286.214 -114.814 285.733 -115.456 285.32L-116.919 284.4L-117.407 284.073C-117.407 284.073 -117.227 284.159 -116.894 284.357L-115.413 285.217C-114.762 285.612 -113.958 286.077 -112.982 286.636C-112.006 287.195 -110.902 287.831 -109.618 288.485C-102.414 292.303 -94.8959 295.491 -87.1476 298.013C-75.6466 301.729 -63.8208 304.341 -51.8291 305.814C-38.3128 307.594 -23.3072 308.299 -7.56531 308.394C8.17653 308.488 23.1822 308.196 36.7669 306.949C48.8056 305.978 60.7442 304.013 72.4621 301.075C80.358 299.058 88.0719 296.379 95.5228 293.068L97.3889 292.26C97.9795 291.993 98.5016 291.718 99.0067 291.469L101.532 290.23L103.081 289.474L103.621 289.198Z" fill="#263238"/>
<path d="M106.034 257C106.034 257.129 57.1397 257.224 -3.16547 257.224C-63.4707 257.224 -112.383 257.129 -112.383 257C-112.383 256.871 -63.4963 256.776 -3.16547 256.776C57.1654 256.776 106.034 256.862 106.034 257Z" fill="#455A64"/>
<path d="M106.034 250.301C106.034 250.421 57.1397 250.524 -3.16547 250.524C-63.4707 250.524 -112.383 250.421 -112.383 250.301C-112.383 250.18 -63.4963 250.077 -3.16547 250.077C57.1654 250.077 106.034 250.18 106.034 250.301Z" fill="#455A64"/>
<path d="M75.1243 243.618C75.1243 243.739 40.1224 243.842 -3.0371 243.842C-46.1966 243.842 -81.2156 243.739 -81.2156 243.618C-81.2156 243.498 -46.2223 243.395 -3.0371 243.395C40.1481 243.395 75.1243 243.489 75.1243 243.618Z" fill="#455A64"/>
<path d="M106.034 263.76C106.034 263.88 57.1397 263.983 -3.16547 263.983C-63.4707 263.983 -112.383 263.88 -112.383 263.76C-112.383 263.639 -63.4963 263.536 -3.16547 263.536C57.1654 263.536 106.034 263.639 106.034 263.76Z" fill="#455A64"/>
<path d="M101.181 270.536C101.181 270.657 54.2294 270.76 -3.67905 270.76C-61.5874 270.76 -108.548 270.657 -108.548 270.536C-108.548 270.416 -61.6046 270.313 -3.67905 270.313C54.2465 270.313 101.181 270.416 101.181 270.536Z" fill="#455A64"/>
<path d="M99.0581 277.313C99.0581 277.434 53.3733 277.537 -2.96858 277.537C-59.3105 277.537 -105.004 277.434 -105.004 277.313C-105.004 277.193 -59.3276 277.09 -2.96858 277.09C53.3905 277.09 99.0581 277.184 99.0581 277.313Z" fill="#455A64"/>
<path d="M93.768 284.09C93.768 284.21 50.4373 284.314 -2.96 284.314C-56.3573 284.314 -99.688 284.21 -99.688 284.09C-99.688 283.97 -56.3658 283.866 -2.91721 283.866C50.5314 283.866 93.768 283.961 93.768 284.09Z" fill="#455A64"/>
<path d="M87.2281 290.858C87.2281 290.987 47.0903 291.082 -2.42073 291.082C-51.9318 291.082 -92.0867 290.987 -92.0867 290.858C-92.0867 290.729 -51.9489 290.635 -2.42073 290.635C47.1074 290.635 87.2281 290.738 87.2281 290.858Z" fill="#455A64"/>
<path d="M95.634 352.752C95.634 352.873 49.761 352.976 -6.82914 352.976C-63.4193 352.976 -109.301 352.873 -109.301 352.752C-109.301 352.632 -63.4279 352.529 -6.82914 352.529C49.7696 352.529 95.634 352.623 95.634 352.752Z" fill="#455A64"/>
<path d="M48.2972 360.252H42.2881L41.8601 352.752H48.7509L48.2972 360.252Z" fill="#455A64"/>
<path d="M92.4583 350.035C81.5871 340.626 66.9495 326.153 59.4081 324.768C50.266 323.091 5.81397 322.188 -8.27579 322.601C-22.3741 322.197 -66.8262 323.091 -75.9683 324.768C-82.9789 326.058 -95.9816 339.861 -106.416 350.035H92.4583Z" fill="#455A64"/>
<path d="M87.5363 346.638C87.5363 346.767 45.0017 346.861 -7.47966 346.861C-59.961 346.861 -102.496 346.767 -102.496 346.638C-102.496 346.509 -59.9696 346.414 -7.47966 346.414C45.0103 346.414 87.5363 346.517 87.5363 346.638Z" fill="#263238"/>
<path d="M83.8127 342.321C83.8127 342.441 43.1013 342.544 -7.10306 342.544C-57.3075 342.544 -97.976 342.441 -97.976 342.321C-97.976 342.2 -57.2818 342.097 -7.06027 342.097C43.1612 342.097 83.8127 342.192 83.8127 342.321Z" fill="#263238"/>
<path d="M78.1546 337.9C78.1546 338.021 39.6346 338.124 -7.83062 338.124C-55.2958 338.124 -93.8329 338.021 -93.8329 337.9C-93.8329 337.78 -55.3129 337.677 -7.83062 337.677C39.6517 337.677 78.1546 337.771 78.1546 337.9Z" fill="#263238"/>
<path d="M74.3795 333.48C74.3795 333.6 37.7085 333.703 -7.52253 333.703C-52.7536 333.703 -89.4332 333.6 -89.4332 333.48C-89.4332 333.359 -52.7621 333.256 -7.52253 333.256C37.7171 333.256 74.3795 333.351 74.3795 333.48Z" fill="#263238"/>
<path d="M68.0879 329.24C68.0879 329.369 34.0876 329.464 -7.84782 329.464C-49.7833 329.464 -83.7836 329.369 -83.7836 329.24C-83.7836 329.111 -49.7918 329.016 -7.84782 329.016C34.0962 329.016 68.0879 329.145 68.0879 329.24Z" fill="#263238"/>
<path d="M60.9746 325.06C60.9746 325.181 30.2613 325.284 -7.62525 325.284C-45.5118 325.284 -76.2336 325.181 -76.2336 325.06C-76.2336 324.94 -45.5204 324.837 -7.62525 324.837C30.2699 324.837 60.9746 324.94 60.9746 325.06Z" fill="#263238"/>
<g opacity="0.3">
<path d="M6.66142 191.021L-152.452 190.78C-150.041 193.315 -147.134 195.32 -143.913 196.67C-140.693 198.02 -137.229 198.685 -133.74 198.623C-122.68 198.554 -15.0467 198.623 3.83663 198.623H6.66142C24.1067 198.623 116.717 198.563 126.287 198.623C129.321 198.676 132.325 198.018 135.061 196.699C137.797 195.381 140.189 193.44 142.046 191.029L6.66142 191.021Z" fill="black"/>
</g>
<path d="M142.611 187.615L112.506 135.155C112.275 134.752 111.947 134.415 111.552 134.173C111.157 133.931 110.708 133.792 110.246 133.771L6.66999 129.316L-3.25962 128.886C-4.44946 128.834 -5.64785 128.834 -6.83769 128.886L-16.7673 129.316L-120.343 133.771C-120.805 133.793 -121.254 133.932 -121.649 134.174C-122.044 134.415 -122.372 134.753 -122.603 135.155L-152.709 187.615C-152.933 188.005 -153.058 188.444 -153.075 188.894C-153.091 189.344 -152.998 189.791 -152.803 190.196C-152.608 190.602 -152.317 190.953 -151.956 191.22C-151.595 191.486 -151.175 191.66 -150.731 191.726C-150.303 191.795 -149.875 191.855 -149.362 191.907C-146.742 192.199 -41.6683 192.01 -5.04009 191.907C31.5882 191.984 136.662 192.173 139.282 191.907C139.769 191.855 140.223 191.795 140.651 191.735C141.093 191.665 141.512 191.488 141.87 191.22C142.229 190.951 142.518 190.599 142.711 190.193C142.904 189.788 142.995 189.341 142.978 188.892C142.961 188.443 142.835 188.005 142.611 187.615ZM128.753 185.414L-5.05723 186.317L-138.867 185.414C-139.349 185.411 -139.821 185.281 -140.237 185.038C-140.653 184.794 -140.998 184.445 -141.237 184.025C-141.476 183.605 -141.602 183.129 -141.6 182.646C-141.599 182.162 -141.471 181.687 -141.23 181.268C-135.469 171.241 -120.968 146.137 -118.648 143.239C-114.445 137.985 -49.3124 137.297 -14.6444 137.297C-14.4344 137.349 -14.2188 137.375 -14.0024 137.374C-11.9737 137.374 -8.90923 137.331 -5.05723 137.322C-1.20523 137.314 1.85927 137.322 3.88799 137.374C4.10434 137.375 4.31996 137.349 4.52999 137.297C39.1809 137.297 104.331 137.985 108.534 143.239C110.854 146.137 125.354 171.241 131.115 181.268C131.357 181.687 131.485 182.162 131.486 182.646C131.487 183.129 131.362 183.605 131.123 184.025C130.883 184.445 130.539 184.794 130.123 185.038C129.707 185.281 129.234 185.411 128.753 185.414Z" fill="#263238"/>
<path d="M28.9174 182.507C28.9174 179.523 30.0645 171.06 32.8293 168.807C34.9608 167.087 40.0026 166.554 42.4936 166.408H42.7247C44.0429 166.408 52.8598 166.666 55.4962 168.816C58.1327 170.966 59.4081 179.531 59.4081 182.515V182.61C59.4059 183.503 59.0514 184.358 58.4223 184.988C57.7933 185.619 56.9411 185.973 56.0526 185.973H32.273C31.3845 185.973 30.5323 185.619 29.9033 184.988C29.2742 184.358 28.9197 183.503 28.9174 182.61V182.507Z" fill="#263238"/>
<g opacity="0.3">
<path d="M28.9174 182.507C28.9174 179.523 30.0645 171.06 32.8293 168.807C34.9608 167.087 40.0026 166.554 42.4936 166.408H42.7247C44.0429 166.408 52.8598 166.666 55.4962 168.816C58.1327 170.966 59.4081 179.531 59.4081 182.515V182.61C59.4059 183.503 59.0514 184.358 58.4223 184.988C57.7933 185.619 56.9411 185.973 56.0526 185.973H32.273C31.3845 185.973 30.5323 185.619 29.9033 184.988C29.2742 184.358 28.9197 183.503 28.9174 182.61V182.507Z" fill="black"/>
</g>
<path d="M40.9271 180.305C40.9271 175.412 42.8103 161.574 47.3214 157.885C50.8139 155.03 59.0658 154.187 63.1403 153.946H63.5255C65.6912 153.946 80.1148 154.359 84.4376 157.894C88.9573 161.583 90.8405 175.42 90.8319 180.314V180.46C90.8319 181.922 90.2539 183.324 89.2248 184.358C88.1958 185.392 86.8002 185.973 85.345 185.973H46.4141C44.9589 185.973 43.5632 185.392 42.5342 184.358C41.5052 183.324 40.9271 181.922 40.9271 180.46V180.305Z" fill="#263238"/>
<g opacity="0.3">
<path d="M88.632 323.392C88.632 323.392 87.99 327.305 97.1064 340.257C99.8884 344.204 108.731 352.185 112.035 355.109C112.839 355.825 113.889 356.199 114.963 356.149C124.13 355.745 168.385 353.69 175.739 351.523C178.428 350.768 181.016 349.685 183.443 348.298C185.024 347.347 186.322 345.986 187.2 344.358C188.078 342.73 188.504 340.894 188.433 339.044C188.202 332.654 187.808 321.414 187.808 318.473C187.808 314.285 184.915 310.733 179.522 311.429C175.944 311.859 88.632 323.392 88.632 323.392ZM117.171 322.532L174.523 317.303L176.184 340.523L133.974 347.403L117.171 322.532Z" fill="black"/>
</g>
<g opacity="0.3">
<path d="M186.447 263.76C186.447 263.76 190.77 276.952 163.335 283.092C135.515 289.31 94.3501 300.576 94.3501 300.576L116.461 284.744C116.461 284.744 180.061 274.08 181.636 264.31C183.451 253.13 181.636 240.565 181.636 240.565L186.447 263.76Z" fill="black"/>
</g>
<path d="M79.1218 322.996C79.2112 322.95 79.3061 322.915 79.4043 322.893L80.2603 322.644L83.573 321.715C86.4663 320.958 90.6521 319.857 95.8652 318.662C106.283 316.228 120.775 313.313 136.876 310.673C144.931 309.365 152.609 308.161 159.62 307.233L169.575 305.9C172.458 305.414 175.375 305.167 178.298 305.16C180.734 305.132 183.121 305.845 185.146 307.207C186.641 308.277 187.905 309.64 188.861 311.214C189.477 312.197 189.929 313.275 190.196 314.405C190.297 314.796 190.357 315.197 190.376 315.6C190.116 314.07 189.551 312.607 188.715 311.3C187.748 309.769 186.488 308.445 185.009 307.405C183.004 306.088 180.65 305.41 178.255 305.461C175.348 305.496 172.449 305.763 169.584 306.261L159.68 307.68C152.669 308.591 144.991 309.804 136.945 311.12C120.852 313.751 106.36 316.615 95.9337 318.972C90.7206 320.124 86.5177 321.173 83.6158 321.887L80.286 322.747L79.43 322.953C79.3296 322.982 79.226 322.996 79.1218 322.996Z" fill="#263238"/>
<path d="M189.94 288.889C189.907 288.727 189.893 288.563 189.897 288.399C189.897 288.029 189.897 287.539 189.897 286.988C189.897 285.707 189.82 283.952 189.76 281.828C189.632 277.459 189.349 271.431 188.758 264.792C188.168 258.152 187.397 252.158 186.755 247.832C186.439 245.717 186.173 243.98 185.985 242.715C185.899 242.142 185.831 241.678 185.78 241.322C185.744 241.161 185.73 240.997 185.737 240.832C185.802 240.982 185.846 241.142 185.865 241.305L186.156 242.681C186.396 243.885 186.713 245.622 187.072 247.781C187.791 252.081 188.613 258.101 189.204 264.749C189.794 271.396 190.06 277.451 190.06 281.828C190.06 284.013 190.06 285.784 190.06 286.988C190.06 287.564 190.06 288.029 190.017 288.399C190.015 288.565 189.989 288.73 189.94 288.889Z" fill="#263238"/>
<path d="M170.808 229.48C170.722 229.48 170.705 227.984 170.26 225.601C169.639 222.515 168.839 219.469 167.863 216.477C166.768 212.951 165.629 209.803 164.799 207.524C164.414 206.458 164.08 205.555 163.823 204.832C163.683 204.508 163.574 204.171 163.498 203.826C163.701 204.114 163.862 204.43 163.977 204.764C164.26 205.383 164.645 206.286 165.099 207.412C165.955 209.666 167.187 212.805 168.291 216.339C169.275 219.349 170.036 222.427 170.568 225.55C170.68 226.152 170.705 226.702 170.765 227.184C170.817 227.595 170.842 228.008 170.842 228.422C170.867 228.775 170.856 229.13 170.808 229.48Z" fill="#263238"/>
<path d="M165.672 235.5C165.672 235.5 179.993 230.254 181.825 241.408C183.657 252.562 183.468 263.665 181.063 267.569C178.658 271.474 156.521 276.78 156.521 276.78L118.284 285.225C118.284 285.225 115.528 285.801 117.188 282.645C119.046 279.136 129.172 256.699 135.027 251.247C145.83 241.193 165.672 235.5 165.672 235.5Z" fill="#F5F5F5"/>
<g opacity="0.3">
<path d="M151.531 277.872C151.531 277.872 151.471 251.582 153.397 248.632C155.323 245.682 177.844 235.233 177.844 235.233C177.844 235.233 175.653 233.359 171.15 234.219C164.842 235.444 158.72 237.497 152.943 240.325C146.72 243.532 136.765 248.125 133.05 253.44C131.432 255.779 128.008 261.3 124.824 267.32C120.629 275.103 116.657 283.419 116.657 283.884C116.657 284.838 116.435 285.707 120.15 284.916C128.761 283.032 151.531 277.872 151.531 277.872Z" fill="black"/>
</g>
<path d="M139.076 275.499C144.201 275.499 148.355 271.325 148.355 266.176C148.355 261.028 144.201 256.854 139.076 256.854C133.951 256.854 129.797 261.028 129.797 266.176C129.797 271.325 133.951 275.499 139.076 275.499Z" fill="#F5F5F5"/>
<path d="M129.797 266.176C129.745 265.405 129.814 264.63 130.002 263.88C130.487 261.796 131.676 259.945 133.367 258.643C134.616 257.668 136.091 257.027 137.654 256.78C139.217 256.534 140.816 256.689 142.303 257.232C144.067 257.873 145.603 259.021 146.72 260.535C147.926 262.166 148.578 264.144 148.578 266.176C148.578 268.208 147.926 270.187 146.72 271.818C146.161 272.592 145.482 273.271 144.709 273.83C143.978 274.383 143.167 274.818 142.303 275.12C140.711 275.699 138.993 275.836 137.33 275.516C135.886 275.236 134.528 274.617 133.367 273.71C131.676 272.407 130.487 270.557 130.002 268.472C129.814 267.723 129.745 266.948 129.797 266.176C129.879 266.934 130.004 267.686 130.174 268.429C130.719 270.446 131.926 272.218 133.598 273.46C134.726 274.331 136.043 274.92 137.441 275.18C139.039 275.472 140.685 275.329 142.209 274.768C143.031 274.474 143.802 274.053 144.495 273.521C145.232 272.982 145.879 272.329 146.412 271.586C147.552 270.028 148.167 268.144 148.167 266.211C148.167 264.277 147.552 262.394 146.412 260.836C145.878 260.091 145.231 259.435 144.495 258.892C143.8 258.365 143.029 257.947 142.209 257.654C140.782 257.128 139.246 256.969 137.742 257.191C136.238 257.413 134.814 258.01 133.598 258.926C131.926 260.169 130.719 261.941 130.174 263.957C130.006 264.689 129.88 265.43 129.797 266.176Z" fill="#263238"/>
<path d="M139.076 265.772C137.46 265.773 135.874 266.209 134.483 267.035C133.092 267.861 131.947 269.046 131.167 270.468C130.411 269.087 130.026 267.533 130.051 265.958C130.075 264.383 130.507 262.842 131.305 261.486C132.103 260.13 133.239 259.006 134.601 258.225C135.963 257.445 137.504 257.034 139.072 257.034C140.64 257.034 142.181 257.445 143.542 258.225C144.904 259.006 146.04 260.13 146.838 261.486C147.636 262.842 148.069 264.383 148.093 265.958C148.117 267.533 147.733 269.087 146.977 270.468C146.199 269.046 145.056 267.86 143.666 267.034C142.276 266.208 140.691 265.772 139.076 265.772Z" fill="#E0E0E0"/>
<path d="M135.079 265.867C135.079 266.661 135.313 267.437 135.752 268.098C136.192 268.758 136.816 269.273 137.546 269.577C138.277 269.881 139.081 269.961 139.856 269.806C140.631 269.651 141.344 269.268 141.903 268.706C142.462 268.145 142.843 267.429 142.997 266.65C143.151 265.871 143.072 265.064 142.769 264.33C142.467 263.596 141.954 262.969 141.297 262.527C140.64 262.086 139.867 261.85 139.076 261.85C138.016 261.85 136.999 262.274 136.249 263.027C135.5 263.78 135.079 264.801 135.079 265.867Z" fill="white"/>
<path d="M135.078 265.867C135.078 265.867 135.078 265.781 135.078 265.609C135.074 265.36 135.097 265.112 135.147 264.869C135.345 263.952 135.857 263.133 136.594 262.556C137.143 262.121 137.793 261.833 138.483 261.719C139.173 261.604 139.881 261.667 140.54 261.902C141.355 262.194 142.06 262.732 142.558 263.443C143.057 264.153 143.325 265.002 143.325 265.871C143.325 266.74 143.057 267.588 142.558 268.299C142.06 269.009 141.355 269.548 140.54 269.84C139.881 270.075 139.173 270.139 138.483 270.024C137.793 269.91 137.143 269.622 136.594 269.186C135.857 268.609 135.345 267.79 135.147 266.873C135.096 266.627 135.073 266.376 135.078 266.125C135.078 265.961 135.078 265.867 135.078 265.867C135.078 265.867 135.078 266.228 135.284 266.83C135.53 267.674 136.044 268.414 136.748 268.937C137.314 269.362 137.987 269.62 138.691 269.683C139.395 269.746 140.102 269.61 140.734 269.292C141.366 268.974 141.897 268.486 142.269 267.881C142.64 267.277 142.837 266.581 142.837 265.871C142.837 265.161 142.64 264.465 142.269 263.86C141.897 263.256 141.366 262.768 140.734 262.45C140.102 262.131 139.395 261.996 138.691 262.059C137.987 262.122 137.314 262.38 136.748 262.805C136.044 263.328 135.53 264.068 135.284 264.912C135.113 265.514 135.121 265.875 135.078 265.867Z" fill="#263238"/>
<path d="M135.575 259.58C135.421 259.348 136.029 258.539 137.501 257.989C138.478 257.648 139.515 257.513 140.546 257.594C141.578 257.674 142.581 257.968 143.495 258.456C144.408 258.945 145.21 259.618 145.852 260.433C146.494 261.248 146.962 262.187 147.225 263.192C147.585 264.731 147.225 265.686 146.985 265.686C146.746 265.686 146.395 264.869 145.753 263.768C145.009 262.348 143.857 261.185 142.446 260.43C141.036 259.675 139.432 259.364 137.843 259.537C136.568 259.58 135.712 259.847 135.575 259.58Z" fill="white"/>
<path d="M133.247 261.042C132.742 260.689 132.493 260.182 132.75 259.915C133.007 259.649 133.529 259.915 133.863 260.44C134.197 260.965 134.385 261.438 134.308 261.515C134.231 261.592 133.76 261.395 133.247 261.042Z" fill="white"/>
<path d="M-6.96606 236.859H-6.59799H-5.52799H-1.38495L13.8176 236.764L63.9963 236.644H91.628H109.176C110.907 236.517 112.624 237.031 114.004 238.089L120.604 243.747L123.3 246.061C124.076 246.675 124.971 247.12 125.928 247.368C126.693 247.564 127.485 247.637 128.273 247.583L129.985 247.531H131.055H131.432H131.072L129.994 247.6L128.282 247.686C127.482 247.76 126.675 247.702 125.894 247.514C124.909 247.272 123.985 246.827 123.18 246.207L120.45 243.911L113.824 238.312C112.494 237.313 110.849 236.833 109.193 236.962H103.723H91.6708L64.0391 237.014H13.8176L-1.38495 236.962L-5.52799 236.919H-6.59799L-6.96606 236.859Z" fill="#263238"/>
<path d="M-186.392 359.443C-185.93 358.471 -184.954 357.775 -183.02 357.99C-177.67 358.6 -121.593 359.856 -113.863 357.99C-106.134 356.124 -80.3852 326.772 -69.4883 324.768C-60.3462 323.091 -15.8942 322.188 -1.79585 322.601C12.3025 322.197 56.746 323.091 65.8881 324.768C76.7849 326.772 102.148 358.996 109.878 360.888C117.608 362.78 174.078 358.626 179.428 358.016C181.362 357.801 182.338 358.497 182.792 359.469C182.999 359.945 183.086 360.464 183.046 360.981C183.005 361.499 182.838 361.998 182.56 362.435C182.281 362.872 181.9 363.234 181.449 363.487C180.998 363.741 180.492 363.879 179.976 363.889C167.992 364.225 121.905 364.749 113.276 364.603L-3.90161 362.453C-27.2961 362.599 -107.229 363.115 -115.695 363.236C-125.676 363.373 -171.626 364.225 -183.567 363.889C-184.087 363.88 -184.597 363.742 -185.05 363.487C-185.504 363.232 -185.888 362.868 -186.167 362.428C-186.447 361.988 -186.614 361.485 -186.653 360.964C-186.692 360.443 -186.603 359.921 -186.392 359.443Z" fill="#263238"/>
<path d="M13.9289 132.756C13.4666 132.756 13.8433 140.848 7.34621 140.694C0.849176 140.539 -11.4002 140.694 -11.4002 140.694L-16.7759 130.58L13.9289 132.756Z" fill="#263238"/>
<path d="M11.0527 143.48C11.4984 143.481 11.9376 143.587 12.3348 143.79C12.7319 143.993 13.0757 144.288 13.3382 144.65C14.8876 146.765 17.9778 151.168 18.0634 152.544C18.1219 152.963 18.0954 153.39 17.9854 153.798C17.8755 154.206 17.6843 154.587 17.4235 154.919C17.1627 155.251 16.8377 155.527 16.4681 155.729C16.0984 155.931 15.6918 156.056 15.2728 156.096C13.4837 156.32 -20.7991 156.096 -24.3429 156.096C-24.562 156.096 -24.7804 156.07 -24.9934 156.019C-25.935 155.787 -28.3661 155.013 -28.1778 153.344C-28.0151 151.831 -25.3701 147.204 -23.9919 144.865C-23.739 144.442 -23.3813 144.092 -22.9538 143.849C-22.5262 143.607 -22.0434 143.479 -21.5523 143.48H11.0527Z" fill="#263238"/>
<path d="M115.878 130.58C115.928 130.635 115.971 130.695 116.007 130.761L116.332 131.311L117.565 133.452L122.007 141.347L136.517 167.491C141.096 175.807 145.325 183.487 148.689 189.61L148.638 189.55L158.362 197.29L161.024 199.432L161.717 199.999C161.795 200.067 161.869 200.139 161.94 200.214C161.847 200.169 161.761 200.111 161.683 200.042L160.955 199.518L158.233 197.445L148.424 189.868L136.183 167.792L121.733 141.502C119.919 138.165 118.446 135.482 117.411 133.53L116.255 131.354L115.964 130.786C115.926 130.722 115.897 130.653 115.878 130.58Z" fill="#263238"/>
<path d="M100.085 125.738C100.847 125.819 101.595 125.998 102.311 126.271C105.92 127.312 109.022 129.651 111.025 132.842C111.481 133.458 111.861 134.128 112.155 134.837C111.65 134.266 111.187 133.66 110.768 133.022C108.674 130.009 105.674 127.748 102.208 126.572C101.481 126.348 100.771 126.07 100.085 125.738Z" fill="#263238"/>
<g opacity="0.3">
<path d="M148.458 189.757L149.314 190.324C149.648 189.911 129.54 232.258 120.073 243.429L113.858 238.123C127.238 225.068 137.27 204.781 148.458 189.757Z" fill="black"/>
</g>
<path d="M108.568 356.218C108.391 356.199 108.22 356.137 108.072 356.038C107.623 355.784 107.193 355.497 106.788 355.178C105.692 354.361 104.16 353.053 102.225 351.325C98.3647 347.885 92.9291 342.725 86.3893 336.129C84.7543 334.477 83.0594 332.749 81.3132 330.917C79.5705 328.958 77.7185 327.101 75.7663 325.353C73.5827 323.603 71.1274 322.226 68.4989 321.276C65.7067 320.283 62.7917 319.682 59.8361 319.488C58.3125 319.376 56.7802 319.376 55.2137 319.359H50.4629L40.6703 319.273L20.0835 319.083L-52.1714 318.352L-74.0679 318.06L-80.0599 317.957H-81.6093H-82.14C-82.14 317.957 -81.9603 317.957 -81.6093 317.957H-74.1107L-52.2143 318.094L20.0407 318.688L40.6361 318.886L50.4201 318.98L55.248 318.92C56.8059 318.92 58.3638 318.92 59.8961 319.058C62.8904 319.262 65.8427 319.878 68.6701 320.889C71.3338 321.86 73.8208 323.263 76.0317 325.043C77.9902 326.808 79.8478 328.683 81.5957 330.659C83.3077 332.491 85.0197 334.237 86.6461 335.888C93.1517 342.484 98.5616 347.678 102.379 351.179C104.288 352.899 105.803 354.249 106.873 355.092C107.274 355.418 107.695 355.719 108.132 355.995C108.271 356.08 108.417 356.155 108.568 356.218Z" fill="#263238"/>
<g opacity="0.3">
<path d="M154.689 304.936C157.235 302.207 160.071 299.768 163.147 297.661C166.288 295.657 170.799 293.361 173.65 295.184C175.092 296.767 176.25 298.588 177.074 300.568C177.256 300.885 177.368 301.238 177.404 301.603C177.439 301.968 177.397 302.336 177.279 302.683C176.877 303.5 175.841 303.715 174.942 303.827L155.254 306.304C154.869 306.355 154.398 306.355 154.21 306.02C154.022 305.685 154.39 305.229 154.689 304.936Z" fill="white"/>
</g>
<path d="M159.68 361.06V361.12C159.578 361.469 159.557 361.836 159.618 362.194C159.678 362.552 159.82 362.891 160.032 363.186C160.243 363.48 160.519 363.723 160.838 363.894C161.156 364.065 161.51 364.16 161.871 364.173L176.098 363.932C176.66 363.863 177.182 363.604 177.579 363.198C177.976 362.792 178.223 362.262 178.281 361.696L178.375 360.897C178.398 360.552 178.347 360.206 178.226 359.883C178.105 359.56 177.916 359.266 177.673 359.022C177.43 358.777 177.138 358.588 176.816 358.466C176.494 358.345 176.15 358.294 175.807 358.317L161.726 359.34C161.252 359.385 160.802 359.574 160.437 359.881C160.072 360.188 159.808 360.599 159.68 361.06Z" fill="white"/>
<path d="M-105.748 352.752C-105.748 352.623 -59.8669 352.529 -3.28528 352.529C53.2963 352.529 99.1865 352.623 99.1865 352.752C99.1865 352.881 53.3134 352.976 -3.28528 352.976C-59.884 352.976 -105.748 352.873 -105.748 352.752Z" fill="#455A64"/>
<path d="M54.0153 360.252H60.0244L60.4439 352.752H53.5616L54.0153 360.252Z" fill="#455A64"/>
<path d="M-2.19815 360.252H3.81096L4.23039 352.752H-2.65186L-2.19815 360.252Z" fill="#455A64"/>
<path d="M-102.573 350.035C-91.7016 340.626 -77.064 326.153 -69.5226 324.768C-60.3805 323.091 -15.9284 322.188 -1.83011 322.601C12.2596 322.197 56.7117 323.091 65.8538 324.768C72.8645 326.058 85.8671 339.861 96.3017 350.035H-102.573Z" fill="#455A64"/>
<path d="M186.721 345.107C186.544 344.99 186.375 344.86 186.216 344.72L184.744 343.593L179.299 339.293H179.411L149.87 343.095L133.717 345.116H133.786L119.234 352.976L115.074 355.178L113.97 355.745C113.844 355.818 113.713 355.879 113.576 355.926C113.687 355.833 113.807 355.752 113.935 355.685L115.014 355.066L119.114 352.761L133.589 344.754L149.733 342.699L179.368 339.087H179.436H179.479L184.846 343.464L186.216 344.72C186.396 344.833 186.565 344.963 186.721 345.107Z" fill="#263238"/>
<path d="M113.559 328.69C113.559 328.69 110.648 323.753 113.559 322.506C116.897 321.07 172.623 314.353 174.908 314.156C179.428 313.751 181.063 315.807 182.124 321.139C183.186 326.471 185.548 339.698 181.063 343.542C176.577 347.386 169.593 349.089 155.794 349.94C141.995 350.792 134.728 351.265 127.931 347.42C121.134 343.576 113.559 328.69 113.559 328.69Z" fill="#263238"/>
<path d="M116.418 284.744C116.281 284.683 116.794 283.11 117.907 280.349C119.02 277.588 120.723 273.641 123.043 268.851C124.233 266.46 125.543 263.854 127.101 261.111C128.725 258.163 130.546 255.33 132.553 252.631C133.682 251.141 134.962 249.772 136.371 248.546C137.84 247.291 139.419 246.172 141.088 245.201C142.8 244.212 144.512 243.317 146.224 242.38C147.936 241.443 149.733 240.514 151.556 239.611C155.117 237.81 158.812 236.292 162.607 235.07C164.426 234.508 166.271 234.04 168.137 233.668C169.969 233.245 171.848 233.058 173.727 233.109C175.637 233.157 177.49 233.774 179.051 234.881C180.456 235.993 181.516 237.485 182.107 239.181C182.627 240.649 183.019 242.16 183.28 243.696C183.545 245.115 183.802 246.482 184.05 247.789C185.077 252.992 185.848 257.249 186.276 260.182C186.704 263.115 186.798 264.783 186.652 264.809C186.507 264.835 186.105 263.235 185.42 260.345L182.509 248.116C182.201 246.835 181.902 245.45 181.594 244.048C181.309 242.621 180.906 241.22 180.387 239.86C179.922 238.444 179.012 237.218 177.794 236.367C176.576 235.515 175.116 235.084 173.633 235.139C171.925 235.123 170.223 235.322 168.565 235.732C166.774 236.11 165.003 236.578 163.258 237.134C159.579 238.346 155.997 239.835 152.541 241.589C150.752 242.449 148.988 243.395 147.259 244.315C145.53 245.235 143.835 246.13 142.2 247.067C140.628 247.961 139.139 248.994 137.749 250.154C136.436 251.267 135.24 252.512 134.18 253.87C132.186 256.467 130.356 259.187 128.701 262.014C127.101 264.663 125.722 267.174 124.421 269.53C121.93 274.191 120.013 278.027 118.66 280.667C117.308 283.307 116.555 284.804 116.418 284.744Z" fill="#263238"/>
<path d="M166.716 256.553C164.655 256.557 162.633 257.118 160.862 258.177C159.091 259.236 157.636 260.754 156.65 262.573C155.688 260.815 155.199 258.837 155.23 256.832C155.262 254.826 155.812 252.864 156.828 251.138C157.845 249.412 159.291 247.981 161.025 246.988C162.759 245.994 164.72 245.472 166.716 245.472C168.712 245.472 170.674 245.994 172.408 246.988C174.142 247.981 175.588 249.412 176.604 251.138C177.62 252.864 178.171 254.826 178.202 256.832C178.234 258.837 177.744 260.815 176.783 262.573C175.797 260.754 174.342 259.236 172.571 258.177C170.8 257.118 168.777 256.557 166.716 256.553Z" fill="#E0E0E0"/>
<path d="M161.769 256.604C161.769 257.588 162.059 258.549 162.603 259.366C163.146 260.183 163.919 260.821 164.823 261.197C165.727 261.573 166.722 261.672 167.682 261.48C168.641 261.288 169.523 260.814 170.215 260.119C170.907 259.424 171.378 258.538 171.569 257.574C171.76 256.61 171.662 255.61 171.287 254.702C170.913 253.794 170.279 253.018 169.465 252.471C168.652 251.925 167.695 251.634 166.716 251.634C165.404 251.634 164.146 252.157 163.218 253.09C162.29 254.022 161.769 255.286 161.769 256.604Z" fill="white"/>
<path d="M161.769 256.604C161.769 256.604 161.769 256.493 161.769 256.286C161.766 255.976 161.8 255.667 161.871 255.366C162.116 254.238 162.749 253.232 163.66 252.528C164.643 251.785 165.858 251.421 167.084 251.502C168.311 251.582 169.468 252.102 170.346 252.967C171.224 253.832 171.763 254.985 171.867 256.216C171.97 257.447 171.631 258.674 170.911 259.675C170.31 260.506 169.471 261.134 168.505 261.472C167.697 261.763 166.829 261.844 165.981 261.705C165.134 261.567 164.335 261.214 163.66 260.681C162.749 259.977 162.116 258.971 161.871 257.843C161.8 257.541 161.765 257.232 161.769 256.923C161.769 256.716 161.769 256.604 161.769 256.604C161.769 256.604 161.769 257.052 162.008 257.8C162.303 258.854 162.938 259.78 163.815 260.431C164.522 260.964 165.362 261.288 166.243 261.367C167.123 261.446 168.007 261.278 168.798 260.881C169.588 260.483 170.252 259.873 170.717 259.118C171.181 258.362 171.427 257.492 171.427 256.604C171.427 255.717 171.181 254.846 170.717 254.091C170.252 253.336 169.588 252.726 168.798 252.328C168.007 251.931 167.123 251.763 166.243 251.842C165.362 251.921 164.522 252.245 163.815 252.777C162.938 253.429 162.303 254.355 162.008 255.409C161.794 256.14 161.811 256.604 161.769 256.604Z" fill="#263238"/>
<path d="M155.229 257C155.208 256.754 155.208 256.506 155.229 256.26C155.228 255.972 155.251 255.685 155.297 255.4C155.343 254.995 155.415 254.593 155.511 254.196C156.034 252.03 157.166 250.06 158.771 248.522C160.377 246.983 162.389 245.941 164.568 245.519C166.62 245.127 168.739 245.293 170.705 246.001C171.768 246.374 172.768 246.911 173.667 247.592C174.62 248.287 175.458 249.128 176.149 250.086C177.634 252.095 178.435 254.532 178.435 257.034C178.435 259.537 177.634 261.973 176.149 263.983C174.781 265.86 172.885 267.283 170.705 268.068C168.872 268.737 166.9 268.929 164.973 268.629C163.046 268.328 161.225 267.544 159.68 266.348C157.592 264.741 156.12 262.46 155.511 259.89C155.415 259.493 155.343 259.091 155.297 258.686C155.251 258.401 155.228 258.114 155.229 257.826C155.208 257.579 155.208 257.332 155.229 257.086C155.316 258.026 155.465 258.96 155.674 259.881C156.33 262.379 157.805 264.581 159.86 266.133C161.368 267.278 163.137 268.024 165.007 268.303C166.876 268.583 168.785 268.386 170.56 267.733C171.583 267.366 172.544 266.844 173.41 266.185C174.329 265.518 175.133 264.705 175.79 263.777C177.213 261.839 177.982 259.494 177.982 257.086C177.982 254.678 177.213 252.333 175.79 250.395C175.131 249.469 174.327 248.656 173.41 247.987C172.542 247.331 171.582 246.809 170.56 246.439C168.661 245.749 166.615 245.574 164.628 245.932C162.896 246.249 161.263 246.971 159.86 248.039C157.807 249.593 156.332 251.795 155.674 254.291C155.469 255.184 155.321 256.089 155.229 257Z" fill="#263238"/>
<path d="M162.385 248.796C162.231 248.563 163.01 247.635 164.807 247.007C165.997 246.614 167.254 246.467 168.501 246.575C169.749 246.683 170.962 247.043 172.067 247.635C173.173 248.226 174.147 249.036 174.933 250.016C175.718 250.996 176.298 252.125 176.637 253.336C177.117 255.185 176.791 256.355 176.509 256.355C176.227 256.355 175.927 255.332 175.165 253.913C174.266 252.077 172.815 250.572 171.018 249.61C169.22 248.649 167.168 248.28 165.15 248.555C163.558 248.71 162.548 249.079 162.385 248.796Z" fill="white"/>
<path d="M159.5 250.627C158.995 250.275 158.781 249.707 159.072 249.423C159.363 249.14 159.928 249.363 160.262 249.888C160.596 250.412 160.75 250.903 160.63 251.023C160.51 251.143 160.014 250.98 159.5 250.627Z" fill="white"/>
<path d="M94.3072 300.576C94.1531 299.974 109.27 295.623 128.068 290.85C146.866 286.077 162.231 282.697 162.385 283.299C162.539 283.901 147.413 288.252 128.616 293.025C109.818 297.798 94.4613 301.178 94.3072 300.576Z" fill="#263238"/>
<path d="M184.863 237.418C184.836 237.331 184.816 237.242 184.804 237.151C184.804 236.979 184.718 236.73 184.632 236.394C184.378 235.432 184.001 234.507 183.511 233.642C182.728 232.284 181.611 231.15 180.267 230.349C179.882 230.108 179.411 229.944 179 229.729C178.528 229.565 178.048 229.424 177.562 229.308C177.047 229.187 176.523 229.107 175.995 229.067C175.44 229.024 174.882 229.024 174.326 229.067C171.822 229.348 169.347 229.849 166.93 230.564C164.302 231.286 161.537 232.18 158.644 233.195C152.866 235.233 146.575 237.676 140.172 240.66C139.376 241.047 138.588 241.434 137.826 241.847C137.079 242.263 136.369 242.744 135.703 243.283C134.386 244.337 133.187 245.531 132.125 246.843C130.174 249.518 128.385 252.236 126.673 254.781C123.249 259.89 120.304 264.577 117.907 268.541C115.51 272.506 113.627 275.808 112.386 278.079L110.922 280.659L110.537 281.338C110.497 281.418 110.448 281.493 110.391 281.562C110.418 281.474 110.455 281.39 110.503 281.312C110.588 281.132 110.7 280.899 110.845 280.616C111.153 280.005 111.616 279.102 112.232 277.958C113.456 275.662 115.271 272.36 117.633 268.343C119.996 264.327 122.932 259.623 126.33 254.497C128.042 251.917 129.754 249.251 131.783 246.517C132.863 245.177 134.086 243.96 135.429 242.887C136.112 242.328 136.843 241.83 137.612 241.4C138.383 240.978 139.179 240.591 139.975 240.204C146.412 237.211 152.712 234.778 158.507 232.748C161.409 231.75 164.191 230.865 166.836 230.168C169.277 229.461 171.774 228.972 174.3 228.706C174.87 228.659 175.443 228.659 176.012 228.706C176.557 228.755 177.097 228.841 177.63 228.964C178.144 229.067 178.623 229.282 179.094 229.42C179.537 229.613 179.968 229.832 180.387 230.073C181.759 230.913 182.889 232.099 183.665 233.513C184.144 234.4 184.498 235.35 184.718 236.334C184.778 236.589 184.821 236.848 184.846 237.108C184.873 237.209 184.878 237.315 184.863 237.418Z" fill="#263238"/>
<g opacity="0.3">
<path d="M188.424 242.285C189.28 242.569 193.92 245.476 195.889 246.585C196.899 247.1 197.798 247.812 198.533 248.678C199.267 249.545 199.823 250.549 200.169 251.634C200.734 253.827 200.109 256.123 199.493 258.29C197.464 265.385 195.11 278.139 193.081 285.234C191.497 272.334 189.768 250.455 188.442 242.285" fill="white"/>
</g>
<path d="M124.678 344.35C124.678 344.23 137.869 342.295 154.176 340.05C170.483 337.806 183.725 336.043 183.742 336.163C183.759 336.283 170.551 338.227 154.236 340.463C137.921 342.699 124.695 344.479 124.678 344.35Z" fill="#455A64"/>
<path d="M128.864 347.601C129.043 347.544 129.226 347.504 129.412 347.481L130.987 347.223C132.357 347.008 134.342 346.715 136.791 346.363C141.704 345.675 148.501 344.815 156.008 343.92L175.234 341.615L181.063 340.91L182.647 340.738C182.832 340.725 183.018 340.725 183.203 340.738C183.029 340.803 182.848 340.844 182.664 340.859L181.089 341.117C179.719 341.34 177.733 341.624 175.276 341.977C170.363 342.656 163.575 343.516 156.059 344.41L136.833 346.715L131.004 347.42L129.42 347.601C129.236 347.624 129.049 347.624 128.864 347.601Z" fill="#455A64"/>
<path d="M138.152 350.035C138.1 350.035 138.674 349.949 139.641 349.828L143.776 349.304L157.42 347.653L171.116 346.096L175.268 345.675C175.775 345.598 176.287 345.567 176.8 345.58C176.304 345.702 175.801 345.791 175.293 345.847L171.168 346.414C167.675 346.87 162.847 347.463 157.472 348.091C152.096 348.719 147.311 349.261 143.776 349.613C141.912 349.88 140.034 350.021 138.152 350.035Z" fill="#455A64"/>
<path d="M121.588 340.652C121.588 340.523 135.472 338.588 152.635 336.352C169.798 334.116 183.734 332.345 183.751 332.474C183.768 332.603 169.866 334.529 152.695 336.774C135.524 339.018 121.605 340.773 121.588 340.652Z" fill="#455A64"/>
<path d="M119.183 337.212C119.183 337.092 133.555 335.088 151.325 332.74C169.096 330.392 183.52 328.586 183.537 328.707C183.554 328.827 169.156 330.831 151.385 333.187C133.615 335.544 119.191 337.333 119.183 337.212Z" fill="#455A64"/>
<path d="M116.461 333.153C116.461 333.033 131.244 330.969 149.511 328.561C167.778 326.153 182.612 324.261 182.629 324.407C182.646 324.553 167.846 326.591 149.571 328.999C131.295 331.407 116.478 333.273 116.461 333.153Z" fill="#455A64"/>
<path d="M114.38 329.008C114.38 328.879 129.429 326.789 148.021 324.338C166.614 321.887 181.705 319.986 181.722 320.107C181.739 320.227 166.674 322.326 148.081 324.777C129.489 327.228 114.398 329.128 114.38 329.008Z" fill="#455A64"/>
<path d="M112.275 324.863C112.275 324.742 127.443 322.635 146.189 320.158C164.936 317.682 180.147 315.772 180.164 315.858C180.181 315.944 164.996 318.086 146.249 320.563C127.503 323.039 112.292 324.983 112.275 324.863Z" fill="#455A64"/>
<path d="M161.392 315.411C161.512 315.411 163.19 322.79 165.124 331.949C167.059 341.108 168.548 348.556 168.428 348.581C168.309 348.607 166.631 341.203 164.688 332.044C162.745 322.885 161.247 315.48 161.392 315.411Z" fill="#455A64"/>
<path d="M166.973 314.465C167.093 314.465 168.762 321.844 170.705 331.003C172.648 340.162 174.129 347.618 174.001 347.644C173.872 347.67 172.212 340.265 170.269 331.098C168.326 321.93 166.853 314.491 166.973 314.465Z" fill="#455A64"/>
<path d="M172.58 313.528C172.7 313.528 174.292 320.502 176.124 329.171C177.956 337.84 179.351 344.883 179.231 344.909C179.111 344.935 177.519 337.935 175.687 329.266C173.855 320.597 172.46 313.554 172.58 313.528Z" fill="#455A64"/>
<path d="M178.649 314.809C178.782 315.099 178.877 315.406 178.931 315.721C179.086 316.314 179.291 317.174 179.522 318.249C180.001 320.382 180.592 323.358 181.157 326.651C181.722 329.945 182.261 332.818 182.664 335.079C182.843 336.077 182.997 336.928 183.117 337.659C183.197 337.968 183.234 338.286 183.229 338.605C183.101 338.314 183.009 338.008 182.955 337.694C182.801 337.1 182.595 336.232 182.355 335.165C181.885 333.024 181.294 330.048 180.72 326.755C180.147 323.461 179.616 320.597 179.214 318.335C179.034 317.329 178.889 316.478 178.76 315.755C178.686 315.445 178.649 315.128 178.649 314.809Z" fill="#455A64"/>
<path d="M154.895 316.572C155.015 316.572 156.607 323.693 158.507 332.525C160.407 341.357 161.803 348.556 161.674 348.581C161.546 348.607 159.962 341.461 158.071 332.62C156.179 323.779 154.775 316.598 154.895 316.572Z" fill="#455A64"/>
<path d="M148.449 317.879C148.569 317.879 150.161 325.017 152.07 333.884C153.979 342.751 155.374 349.949 155.255 349.975C155.135 350 153.542 342.837 151.634 333.97C149.725 325.103 148.329 317.905 148.449 317.879Z" fill="#455A64"/>
<path d="M141.807 318.232C141.927 318.232 143.519 325.31 145.393 334.09C147.268 342.871 148.663 350.018 148.543 350.043C148.424 350.069 146.831 342.974 144.957 334.185C143.082 325.396 141.704 318.258 141.807 318.232Z" fill="#455A64"/>
<path d="M135.267 319.092C135.387 319.092 136.979 326.135 138.836 334.864C140.694 343.593 142.089 350.706 141.969 350.731C141.85 350.757 140.257 343.697 138.4 334.959C136.542 326.221 135.147 319.118 135.267 319.092Z" fill="#455A64"/>
<path d="M128.864 320.382C128.984 320.382 130.482 326.952 132.211 335.131C133.94 343.31 135.25 349.949 135.13 349.975C135.01 350 133.512 343.396 131.774 335.217C130.037 327.038 128.693 320.408 128.864 320.382Z" fill="#455A64"/>
<path d="M122.213 320.924C122.333 320.924 123.745 327.073 125.363 334.684C126.981 342.295 128.196 348.53 128.076 348.556C127.956 348.581 126.544 342.415 124.926 334.796C123.308 327.176 122.093 320.95 122.213 320.924Z" fill="#455A64"/>
<path d="M115.716 321.99C116.51 324.659 117.162 327.369 117.667 330.109C118.314 332.815 118.816 335.553 119.174 338.313C118.38 335.644 117.732 332.934 117.231 330.195C116.58 327.489 116.074 324.75 115.716 321.99Z" fill="#455A64"/>
<path d="M-97.6508 346.638C-97.6508 346.517 -55.1161 346.414 -2.63475 346.414C49.8466 346.414 92.3813 346.517 92.3813 346.638C92.3813 346.758 49.8552 346.861 -2.63475 346.861C-55.1247 346.861 -97.6508 346.767 -97.6508 346.638Z" fill="#263238"/>
<path d="M-93.9271 342.321C-93.9271 342.192 -53.2158 342.097 -3.01134 342.097C47.1931 342.097 87.9044 342.192 87.9044 342.321C87.9044 342.45 47.2102 342.544 -3.01134 342.544C-53.2329 342.544 -93.9271 342.441 -93.9271 342.321Z" fill="#263238"/>
<path d="M-88.269 337.9C-88.269 337.771 -49.749 337.677 -2.27522 337.677C45.1985 337.677 83.7186 337.771 83.7186 337.9C83.7186 338.029 45.1985 338.124 -2.27522 338.124C-49.749 338.124 -88.269 338.021 -88.269 337.9Z" fill="#263238"/>
<path d="M-84.494 333.48C-84.494 333.351 -47.8229 333.256 -2.5919 333.256C42.6391 333.256 79.3187 333.351 79.3187 333.48C79.3187 333.609 42.6563 333.703 -2.5919 333.703C-47.8401 333.703 -84.494 333.6 -84.494 333.48Z" fill="#263238"/>
<path d="M-78.211 329.24C-78.211 329.12 -44.2107 329.016 -2.27526 329.016C39.6602 329.016 73.6605 329.12 73.6605 329.24C73.6605 329.36 39.6687 329.464 -2.27526 329.464C-44.2193 329.464 -78.211 329.395 -78.211 329.24Z" fill="#263238"/>
<path d="M-71.0891 325.06C-71.0891 324.94 -40.3758 324.837 -2.48923 324.837C35.3973 324.837 66.1192 324.94 66.1192 325.06C66.1192 325.181 35.4059 325.284 -2.48923 325.284C-40.3843 325.284 -71.0891 325.181 -71.0891 325.06Z" fill="#263238"/>
</g>
<defs>
<clipPath id="clip0_1_495">
<rect width="348" height="430" fill="white"/>
</clipPath>
</defs>
</svg>
