<svg width="375" height="430" viewBox="0 0 375 430" fill="none" xmlns="http://www.w3.org/2000/svg">
<g clip-path="url(#clip0_7_2)">
<path d="M-85.9412 330.75V346.02H346.513V330.75C346.547 330.136 346.455 329.522 346.243 328.944C346.031 328.366 345.703 327.837 345.279 327.389C344.855 326.942 344.345 326.584 343.778 326.338C343.211 326.092 342.6 325.964 341.982 325.96H-81.4569C-82.0713 325.97 -82.6772 326.103 -83.2385 326.352C-83.7997 326.6 -84.3048 326.959 -84.7235 327.406C-85.1421 327.854 -85.4658 328.38 -85.675 328.955C-85.8842 329.53 -85.9748 330.14 -85.9412 330.75Z" fill="#E0E0E0"/>
<path d="M321.862 325.96H294.968V346.02H321.862V325.96Z" fill="#F5F5F5"/>
<path d="M270.317 325.96H244.551V346.02H270.317V325.96Z" fill="#F5F5F5"/>
<path d="M219.899 325.96H193.006V346.02H219.899V325.96Z" fill="#F5F5F5"/>
<path d="M168.354 325.96H142.588V346.02H168.354V325.96Z" fill="#F5F5F5"/>
<path d="M117.937 325.96H92.1702V346.02H117.937V325.96Z" fill="#F5F5F5"/>
<path d="M67.5187 325.96H40.6252V346.02H67.5187V325.96Z" fill="#F5F5F5"/>
<path d="M15.974 325.96H-9.79248V346.02H15.974V325.96Z" fill="#F5F5F5"/>
<path d="M71.9321 231.064C71.9321 231.064 81.0268 237.908 84.2733 253.319C87.5197 268.73 99.7671 302.784 71.9321 289.332L72.6588 286.146C72.6588 286.146 81.5308 293.769 84.7655 288.636C88.0002 283.503 86.3243 255.962 73.2565 241.33L71.9321 231.064Z" fill="#263238"/>
<path d="M53.1919 224.692C53.1919 224.692 56.4852 217.99 61.3959 217.836C66.3066 217.683 67.9708 219.087 67.6544 223.913L65.4627 224.067C65.4627 224.067 67.6895 220.031 62.4038 219.866C60.9082 219.838 59.4428 220.291 58.2203 221.159C56.9978 222.026 56.0821 223.264 55.6062 224.692H53.1919Z" fill="#263238"/>
<path d="M26.6695 291.952C26.6695 291.952 22.3917 265.296 33.5257 257.213C33.5257 257.213 31.756 251.62 40.7218 233.247C44.437 225.624 47.5897 223.524 50.719 223.382L72.4244 222.485C73.5256 222.437 74.6049 222.805 75.4505 223.517C76.2962 224.228 76.8471 225.233 76.9952 226.332C78.5188 237.731 82.1989 270.771 77.1007 291.952H26.6695Z" fill="#263238"/>
<path opacity="0.1" d="M26.6695 291.952C26.6695 291.952 22.3917 265.296 33.5257 257.213C33.5257 257.213 31.756 251.62 40.7218 233.247C44.437 225.624 47.5897 223.524 50.719 223.382L72.4244 222.485C73.5256 222.437 74.6049 222.805 75.4505 223.517C76.2962 224.228 76.8471 225.233 76.9952 226.332C78.5188 237.731 82.1989 270.771 77.1007 291.952H26.6695Z" fill="white"/>
<path d="M61.5365 251.62C62.0372 251.639 62.5356 251.543 62.9933 251.337C63.451 251.132 63.8557 250.824 64.1763 250.436C64.4968 250.048 64.7246 249.592 64.8419 249.101C64.9593 248.611 64.9632 248.1 64.8533 247.608C63.8454 243.265 61.0326 236.917 53.1919 235.737C44.7652 234.462 39.4443 242.132 36.9714 246.947C36.7668 247.342 36.6652 247.783 36.6761 248.228C36.687 248.674 36.8101 249.109 37.0338 249.494C37.2576 249.878 37.5746 250.199 37.9552 250.426C38.3358 250.654 38.7675 250.78 39.2099 250.794L61.5365 251.62Z" fill="#263238"/>
<path d="M30.2089 263.903C30.7597 261.98 58.8057 263.125 60.6809 263.903C62.5561 264.682 60.2941 284.282 58.6299 286.146C56.9656 288.011 29.6111 286.772 27.525 286.146C25.4388 285.521 25.7318 279.609 30.2089 263.903Z" fill="#263238"/>
<path opacity="0.2" d="M61.5365 251.62C62.0372 251.639 62.5356 251.543 62.9933 251.337C63.451 251.132 63.8557 250.824 64.1763 250.436C64.4968 250.048 64.7246 249.592 64.8419 249.101C64.9593 248.611 64.9632 248.1 64.8533 247.608C63.8454 243.265 61.0326 236.917 53.1919 235.737C44.7652 234.462 39.4443 242.132 36.9714 246.947C36.7668 247.342 36.6652 247.783 36.6761 248.228C36.687 248.674 36.8101 249.109 37.0338 249.494C37.2576 249.878 37.5746 250.199 37.9552 250.426C38.3358 250.654 38.7675 250.78 39.2099 250.794L61.5365 251.62Z" fill="white"/>
<path opacity="0.2" d="M30.2089 263.903C30.7597 261.98 58.8057 263.125 60.6809 263.903C62.5561 264.682 60.2941 284.282 58.6299 286.146C56.9656 288.011 29.6111 286.772 27.525 286.146C25.4388 285.521 25.7318 279.609 30.2089 263.903Z" fill="white"/>
<path d="M75.1785 271.019H75.1082C74.9545 270.998 74.8151 270.917 74.7206 270.793C74.6261 270.669 74.5843 270.513 74.6043 270.358C76.1044 258.983 73.7135 231.324 73.2213 229.341C73.0801 228.472 72.6378 227.681 71.9728 227.109C71.3078 226.536 70.463 226.219 69.5881 226.214C67.1738 226.061 47.8709 226.214 47.6834 226.214C47.5289 226.211 47.3816 226.148 47.2724 226.038C47.1631 225.928 47.1004 225.78 47.0974 225.624C47.0974 225.468 47.1592 225.318 47.269 225.207C47.3789 225.096 47.528 225.034 47.6834 225.034C48.4804 225.034 67.2089 224.881 69.6701 225.034C70.7903 225.066 71.866 225.482 72.7188 226.214C73.5715 226.946 74.15 227.949 74.3581 229.058C74.8269 230.934 77.3467 258.558 75.7645 270.511C75.7446 270.653 75.6742 270.783 75.5664 270.876C75.4586 270.97 75.3207 271.02 75.1785 271.019Z" fill="#263238"/>
<path d="M57.4697 268.222H57.3525C50.6018 266.853 31.1583 267.609 30.959 267.609C30.8036 267.609 30.6546 267.546 30.5447 267.436C30.4348 267.325 30.373 267.175 30.373 267.019C30.373 266.862 30.4348 266.712 30.5447 266.601C30.6546 266.491 30.8036 266.429 30.959 266.429C31.756 266.429 50.7307 265.673 57.622 267.066C57.7729 267.1 57.9047 267.191 57.9899 267.321C58.0751 267.451 58.1071 267.609 58.0791 267.762C58.0487 267.899 57.9706 268.021 57.8588 268.105C57.7471 268.19 57.6091 268.231 57.4697 268.222Z" fill="#263238"/>
<path d="M62.9781 247.372C62.8523 247.374 62.7292 247.335 62.6275 247.261C62.5259 247.186 62.4514 247.08 62.4155 246.959C61.1263 242.982 57.915 236.339 50.8596 236.94C43.6283 237.53 40.5225 245.448 40.4874 245.531C40.4239 245.665 40.3123 245.771 40.1749 245.826C40.0375 245.881 39.8844 245.882 39.7465 245.828C39.6086 245.774 39.496 245.67 39.4312 245.536C39.3665 245.402 39.3544 245.248 39.3974 245.106C39.538 244.752 42.8079 236.409 50.7658 235.772C58.7237 235.135 62.1342 242.286 63.5289 246.605C63.5769 246.753 63.5644 246.915 63.4941 247.054C63.4238 247.194 63.3014 247.299 63.1538 247.348L62.9781 247.372Z" fill="#263238"/>
<path d="M169.485 156.929C170.414 150.086 160.872 144.453 153.688 143.873C150.267 143.589 146.712 144.12 143.474 142.983C136.45 140.513 133.701 131.335 126.786 128.407C121.667 126.221 115.79 128.172 110.806 130.692C105.821 133.212 100.922 136.399 95.3751 136.77C90.4882 137.079 85.3081 135.263 81.0809 137.647C77.9411 139.426 76.2918 143.094 73.3841 145.256C70.4764 147.418 66.8478 147.825 63.3293 148.011C59.8107 148.196 56.1578 148.245 52.9568 149.728C49.7559 151.21 47.0926 154.669 47.7645 158.14L169.485 156.929Z" fill="#F5F5F5"/>
<path d="M323.057 387.06L190.159 386.487C182.487 386.442 175.146 383.54 169.745 378.418C164.344 373.296 161.323 366.37 161.344 359.158L162.754 45.9941C162.799 38.779 165.886 31.8751 171.338 26.7961C176.79 21.7171 184.163 18.8776 191.839 18.9001L324.737 19.4734C332.406 19.5181 339.744 22.417 345.144 27.5354C350.545 32.6538 353.568 39.5748 353.552 46.7835L352.142 359.947C352.102 367.166 349.018 374.074 343.565 379.157C338.112 384.24 330.737 387.082 323.057 387.06Z" fill="#455A64"/>
<path d="M323.089 30.0958L297.658 29.9826C295.984 30.0124 294.39 30.6757 293.227 31.8272C292.063 32.9787 291.425 34.5244 291.451 36.1253V40.5413C291.464 41.3339 291.313 42.1212 291.008 42.8582C290.702 43.5951 290.248 44.2672 289.67 44.836C289.093 45.4048 288.404 45.8591 287.643 46.173C286.881 46.4869 286.063 46.6541 285.234 46.6652L235.655 46.4482C233.981 46.4013 232.395 45.7229 231.243 44.5612C230.091 43.3996 229.467 41.8492 229.507 40.2488V35.8328C229.536 34.243 228.909 32.7061 227.762 31.5547C226.615 30.4032 225.04 29.73 223.378 29.6806H214.437L192.184 29.5202C186.878 29.4951 181.779 31.4859 178.007 35.0549C174.236 38.6239 172.101 43.4788 172.072 48.5524L170.72 355.463C170.697 360.537 172.781 365.412 176.516 369.016C180.25 372.62 185.329 374.659 190.635 374.684L321.55 375.26C324.178 375.271 326.783 374.787 329.215 373.836C331.648 372.884 333.861 371.484 335.727 369.715C337.594 367.946 339.078 365.843 340.094 363.525C341.111 361.208 341.64 358.722 341.652 356.209L343.004 49.3072C343.015 46.7955 342.51 44.3062 341.515 41.9814C340.521 39.6565 339.057 37.5418 337.208 35.7578C335.359 33.9739 333.16 32.5557 330.737 31.5842C328.315 30.6127 325.716 30.107 323.089 30.0958Z" fill="#FAFAFA"/>
<path d="M175.408 180.56H195.227L212.912 193.291L194.525 206.52L175.618 192.91L175.408 180.56Z" fill="#EBEBEB"/>
<path d="M217.993 186.46L207.052 180.56H231.664L217.993 186.46Z" fill="#EBEBEB"/>
<path d="M226.976 192.292L244.988 180.56H307.923C307.923 180.56 317.557 208.585 279.617 226.58L226.976 192.292Z" fill="#EBEBEB"/>
<path d="M219.308 194.72L200.02 208.193L253.396 245.46L272.684 231.538L219.308 194.72Z" fill="#EBEBEB"/>
<path d="M175.408 215.96L188.3 208.073L175.66 200.62L175.408 215.96Z" fill="#EBEBEB"/>
<path d="M193.846 213.6L175.408 226.181V243.664L213.475 270.24L245.728 249.762L193.846 213.6Z" fill="#EBEBEB"/>
<path d="M285.576 232.064C285.576 232.064 325.291 212.334 312.449 180.56H337.144L336.842 270.24L285.576 232.064Z" fill="#EBEBEB"/>
<path d="M278.814 237.2L259.792 250.386L318.128 289.12L335.972 276.566L278.814 237.2Z" fill="#EBEBEB"/>
<path d="M252.388 252.54L222.288 272.598L282.488 312.72L312.532 293.224L252.388 252.54Z" fill="#EBEBEB"/>
<path d="M235.18 352.84L280.831 320.98L324.252 350.786L235.18 352.84Z" fill="#EBEBEB"/>
<path d="M289.092 317.449L337.144 285.58C337.144 286.994 336.729 351.66 336.729 351.66L289.092 317.449Z" fill="#EBEBEB"/>
<path d="M248.59 299.74L276.2 317.611L221.688 354.02L196.504 334.468L248.59 299.74Z" fill="#EBEBEB"/>
<path d="M175.408 338.68C177.919 338.508 242.212 296.87 242.212 296.87L175.408 249V338.68Z" fill="#EBEBEB"/>
<path d="M174.236 346.994L189.469 338.68L210.568 354.02H174.236V348.153" fill="#EBEBEB"/>
<path d="M192.54 66.6968C190.742 65.4644 189.053 64.1017 187.487 62.6214C187.487 61.9077 187.487 62.4242 187.487 62.2645L187.558 62.2082L187.679 62.1049L187.932 61.8889L188.417 61.4664L189.337 60.6776L190.923 59.3629C191.403 58.9067 191.947 58.512 192.54 58.1891C192.179 58.6998 191.744 59.1612 191.246 59.5601L189.731 60.9499L188.831 61.7575L188.346 62.1894L188.104 62.4054L187.972 62.5087L187.912 62.565V62.2082C189.578 63.5902 191.125 65.0909 192.54 66.6968Z" fill="#263238"/>
<path d="M332.24 59.532C332.242 59.7352 332.179 59.9344 332.059 60.1041C331.939 60.2739 331.767 60.4065 331.565 60.4852C331.363 60.5638 331.141 60.5848 330.927 60.5457C330.712 60.5065 330.515 60.4088 330.36 60.2651C330.206 60.1214 330.1 59.9381 330.058 59.7387C330.016 59.5393 330.039 59.3327 330.123 59.1453C330.208 58.9579 330.351 58.7982 330.533 58.6864C330.716 58.5747 330.93 58.516 331.149 58.5178C331.439 58.5178 331.716 58.6247 331.921 58.8149C332.125 59.0051 332.24 59.263 332.24 59.532Z" fill="#263238"/>
<path d="M331.927 62.3209C332.081 62.4639 332.186 62.6463 332.229 62.8449C332.272 63.0435 332.25 63.2494 332.167 63.4366C332.084 63.6237 331.942 63.7837 331.761 63.8962C331.58 64.0088 331.367 64.0689 331.149 64.0689C330.931 64.0689 330.718 64.0088 330.537 63.8962C330.356 63.7837 330.215 63.6237 330.131 63.4366C330.048 63.2494 330.026 63.0435 330.069 62.8449C330.112 62.6463 330.217 62.4639 330.371 62.3209C330.579 62.1316 330.858 62.0256 331.149 62.0256C331.44 62.0256 331.719 62.1316 331.927 62.3209Z" fill="#263238"/>
<path d="M332.24 66.5465C332.214 66.7999 332.087 67.035 331.885 67.2062C331.682 67.3773 331.418 67.4721 331.144 67.4721C330.87 67.4721 330.606 67.3773 330.403 67.2062C330.201 67.035 330.074 66.7999 330.048 66.5465C330.033 66.4045 330.05 66.2612 330.099 66.1258C330.147 65.9904 330.225 65.8659 330.329 65.7603C330.432 65.6547 330.558 65.5704 330.698 65.5126C330.839 65.4549 330.99 65.4251 331.144 65.4251C331.297 65.4251 331.449 65.4549 331.59 65.5126C331.73 65.5704 331.856 65.6547 331.959 65.7603C332.062 65.8659 332.141 65.9904 332.189 66.1258C332.238 66.2612 332.255 66.4045 332.24 66.5465Z" fill="#263238"/>
<path d="M284.889 63.6919H237.618V67.3541H284.889V63.6919Z" fill="#263238"/>
<path d="M333.792 80.26H179.932C177.434 80.26 175.408 82.3116 175.408 84.8423V166.538C175.408 169.068 177.434 171.12 179.932 171.12H333.792C336.29 171.12 338.316 169.068 338.316 166.538V84.8423C338.316 82.3116 336.29 80.26 333.792 80.26Z" fill="#EBEBEB"/>
<path d="M297.05 82.62H216.674C214.596 82.62 212.912 84.3299 212.912 86.4391V164.941C212.912 167.05 214.596 168.76 216.674 168.76H297.05C299.128 168.76 300.812 167.05 300.812 164.941V86.4391C300.812 84.3299 299.128 82.62 297.05 82.62Z" fill="white"/>
<path d="M198.848 128.05C198.848 129.1 198.539 130.127 197.959 131C197.38 131.873 196.556 132.554 195.592 132.956C194.629 133.358 193.568 133.463 192.545 133.258C191.522 133.053 190.582 132.547 189.845 131.805C189.107 131.062 188.605 130.116 188.401 129.086C188.198 128.056 188.302 126.988 188.702 126.018C189.101 125.048 189.777 124.218 190.644 123.635C191.511 123.051 192.531 122.74 193.574 122.74C194.973 122.74 196.314 123.299 197.303 124.295C198.292 125.291 198.848 126.642 198.848 128.05Z" fill="#263238"/>
<path opacity="0.2" d="M196.504 128.05C196.504 128.634 196.332 129.205 196.01 129.69C195.687 130.175 195.229 130.553 194.693 130.776C194.157 130.999 193.568 131.057 192.999 130.943C192.431 130.828 191.909 130.546 191.499 130.133C191.09 129.719 190.811 129.193 190.699 128.62C190.587 128.047 190.647 127.454 190.87 126.915C191.093 126.376 191.47 125.916 191.953 125.593C192.436 125.27 193.003 125.098 193.583 125.1C194.358 125.102 195.101 125.414 195.649 125.967C196.197 126.52 196.504 127.269 196.504 128.05Z" fill="black"/>
<path d="M180.096 119.785L181.515 117.433C181.515 117.433 186.901 118.169 189.252 115.66H196.177L196.504 115.961L188.717 122.74L181.564 121.625L180.096 119.785Z" fill="#263238"/>
<path d="M192.988 120.544H195.831L200.194 127.46H201.192L198.045 120.544V118.02H195.397L192.988 120.544Z" fill="#263238"/>
<path d="M176.506 109.383L176.014 110.448L176.785 110.887L176.99 111.551L176.744 111.893L177.563 112.636C177.587 112.701 177.597 112.771 177.596 112.842C177.594 112.912 177.579 112.981 177.553 113.044C177.526 113.108 177.488 113.163 177.442 113.207C177.396 113.251 177.342 113.283 177.285 113.3L176.228 112.636H175.408V110.35H175.769L176.211 109.188C176.211 109.188 175.851 108.133 177.391 107.4L177.752 107.742V108.66L177.268 109.188L176.506 109.383Z" fill="#263238"/>
<path d="M200.02 116.207L198.231 119.031L198.03 118.859L197.508 118.397L194.121 120.308L193.819 120.458L186.965 123.851L187.428 124.463H191.005L191.407 125.139L190.252 126.76L188.091 129.798L187.237 131H175.408V120.716C176.204 121.437 177.158 121.928 178.182 122.144C178.238 122.161 178.297 122.161 178.353 122.144C178.421 122.106 178.486 122.059 178.543 122.004H178.594C178.64 121.956 178.68 121.902 178.714 121.843C178.735 121.813 178.752 121.781 178.765 121.747C178.794 121.686 178.814 121.621 178.825 121.553C178.861 121.222 178.786 120.887 178.614 120.609L180.071 119.342C188.211 119.557 190.473 117.367 190.473 117.367L196.623 115.66L200.02 116.207Z" fill="#407BFF"/>
<path d="M191.816 125.389L190.631 126.941L188.415 129.849L187.539 131H175.408V130.476L177.541 130.116L177.139 127.815L182.478 123.92L184.612 124.742L187.26 124.156L187.735 124.742H191.404L191.816 125.389Z" fill="#263238"/>
<path d="M177.752 122.226C177.483 122.461 177.195 122.634 176.896 122.74L175.408 121.532V120.38C176.08 121.308 176.887 121.943 177.752 122.226Z" fill="#263238"/>
<path opacity="0.2" d="M181.268 120.88L177.979 125.1L175.408 123.272V120.511C176.232 121.394 177.221 121.996 178.281 122.26C178.339 122.281 178.4 122.281 178.458 122.26C178.529 122.214 178.595 122.157 178.655 122.089H178.707C178.755 122.03 178.797 121.964 178.832 121.892C178.854 121.855 178.871 121.816 178.884 121.774C178.914 121.699 178.935 121.619 178.947 121.537C178.984 121.131 178.907 120.721 178.728 120.38L181.268 120.88Z" fill="black"/>
<path opacity="0.2" d="M200.02 116.84L198.231 119.543L198.03 119.378L197.508 118.936L194.121 120.765L193.819 120.909L186.965 124.156L187.428 124.742H191.005L191.407 125.389L190.252 126.941L188.091 129.849L187.237 131H175.408V124.043L178.282 125.615L182.202 122.964L186.141 123.478L188.221 122.409L190.051 121.454L195.467 118.659L195.699 118.535L197.146 117.785L200.02 116.84Z" fill="black"/>
<path d="M225.804 127.46H286.748L285.526 116.049L267.967 112.12L251.65 115.094L231.996 117.112L227.118 122.951L225.804 127.46Z" fill="#263238"/>
<path opacity="0.2" d="M225.804 127.46H286.748L285.526 116.049L267.967 112.12L251.65 115.094L231.996 117.112L227.118 122.951L225.804 127.46Z" fill="black"/>
<path d="M242.212 126.87C242.212 128.154 241.834 129.408 241.126 130.476C240.417 131.543 239.411 132.375 238.233 132.866C237.055 133.357 235.759 133.486 234.509 133.235C233.258 132.985 232.11 132.367 231.208 131.459C230.307 130.551 229.693 129.395 229.444 128.136C229.195 126.877 229.323 125.572 229.811 124.386C230.299 123.2 231.125 122.187 232.185 121.474C233.245 120.761 234.491 120.38 235.766 120.38C236.613 120.38 237.451 120.548 238.233 120.874C239.015 121.2 239.726 121.678 240.324 122.281C240.923 122.884 241.397 123.599 241.721 124.386C242.045 125.174 242.212 126.018 242.212 126.87Z" fill="#263238"/>
<path opacity="0.2" d="M235.766 131C238.032 131 239.868 129.151 239.868 126.87C239.868 124.589 238.032 122.74 235.766 122.74C233.501 122.74 231.664 124.589 231.664 126.87C231.664 129.151 233.501 131 235.766 131Z" fill="black"/>
<path d="M284.404 126.87C284.404 128.154 284.026 129.408 283.318 130.476C282.609 131.543 281.603 132.375 280.425 132.866C279.247 133.357 277.951 133.486 276.7 133.235C275.45 132.985 274.301 132.367 273.4 131.459C272.498 130.551 271.885 129.395 271.636 128.136C271.387 126.877 271.515 125.572 272.003 124.386C272.491 123.2 273.317 122.187 274.377 121.474C275.437 120.761 276.683 120.38 277.958 120.38C278.804 120.38 279.643 120.548 280.425 120.874C281.207 121.2 281.917 121.678 282.516 122.281C283.115 122.884 283.589 123.599 283.913 124.386C284.237 125.174 284.404 126.018 284.404 126.87Z" fill="#263238"/>
<path opacity="0.2" d="M277.958 131C280.223 131 282.06 129.151 282.06 126.87C282.06 124.589 280.223 122.74 277.958 122.74C275.692 122.74 273.856 124.589 273.856 126.87C273.856 129.151 275.692 131 277.958 131Z" fill="black"/>
<path d="M291.436 121.991L290.715 126.945L286.681 128.176C286.681 128.176 286.577 119.802 277.799 119.802C269.021 119.802 270.149 129.78 270.149 129.78H268.613L265.718 128.579H246.762L245.111 129.82H243.993C243.993 129.82 244.923 119.842 235.873 119.842C226.823 119.842 227.973 129.82 227.973 129.82L222.8 127.671L222.288 122.627L224.451 121.325L224.974 118.299C225.204 118.127 225.444 117.966 225.684 117.814C231.735 113.9 240.011 113.375 240.011 113.375C247.128 106.384 250.012 105.395 250.012 105.395C260.65 104.771 271.322 104.97 281.927 105.99L286.681 111.872L287.799 112.75L288.959 113.668C289.397 115.704 289.569 117.785 289.471 119.862L291.436 121.991Z" fill="#407BFF"/>
<path opacity="0.6" d="M230.257 117.473L226.54 120.38H224.397L224.933 117.629C225.169 117.473 225.415 117.326 225.662 117.189L228.361 116.84L230.257 117.473Z" fill="white"/>
<path opacity="0.6" d="M289.071 119.2L288.041 118.728C287.949 116.865 287.507 115.053 286.748 113.436L287.762 112.12L288.67 113.034C289.013 115.061 289.148 117.132 289.071 119.2Z" fill="white"/>
<path d="M286.748 111.543C278.109 113.813 239.868 113.234 239.868 113.234L240.519 112.531C242.927 109.786 245.586 107.311 248.455 105.144C248.909 104.792 249.398 104.495 249.914 104.26C260.599 103.557 271.319 103.781 281.972 104.929L286.748 111.543Z" fill="#263238"/>
<path opacity="0.6" d="M250.416 105.062L244.402 112.12H241.04C243.363 109.489 245.927 107.117 248.695 105.04L250.416 105.062Z" fill="white"/>
<path opacity="0.6" d="M245.728 112.12L251.371 105.04H259.792L259.146 112.12H245.728Z" fill="white"/>
<path opacity="0.6" d="M260.964 112.12L261.691 105.04H273.047L275.028 111.457C275.028 111.457 268.159 112.12 260.964 112.12Z" fill="white"/>
<path opacity="0.6" d="M273.856 105.04L275.89 110.94C275.89 110.94 282.327 110.539 283.232 110.128L280.568 106.448C280.323 106.153 280.023 105.909 279.684 105.733C279.345 105.556 278.975 105.45 278.595 105.42C277.025 105.186 275.442 105.059 273.856 105.04Z" fill="white"/>
<path opacity="0.2" d="M291.436 121.67L290.715 126.827L286.681 128.108C286.681 128.108 286.577 119.391 277.799 119.391C269.021 119.391 270.149 129.778 270.149 129.778H268.613L265.718 128.528H246.762L245.111 129.82H243.993C243.993 129.82 244.923 119.433 235.873 119.433C226.823 119.433 227.973 129.82 227.973 129.82L222.8 127.583L222.288 122.332H226.552C227.668 120.733 229.156 119.434 230.886 118.546C232.617 117.658 234.537 117.209 236.479 117.238C243.303 117.238 245.498 122.332 245.498 122.332H267.38C267.38 122.332 271.1 117.164 276.576 116.891C279.608 116.636 282.643 117.337 285.26 118.897H288.134L289.451 119.391L291.436 121.67Z" fill="black"/>
<path d="M338.316 115.66V129.82H317.22C317.22 129.82 318.62 124.977 319.71 121.685C319.979 120.64 320.373 119.634 320.883 118.688C323.693 117.127 330.238 116.188 338.316 115.66Z" fill="#263238"/>
<path opacity="0.2" d="M338.316 115.66V129.82H317.22C317.22 129.82 318.62 124.977 319.71 121.685C319.979 120.64 320.373 119.634 320.883 118.688C323.693 117.127 330.238 116.188 338.316 115.66Z" fill="black"/>
<path d="M328.94 133.36C332.176 133.36 334.8 130.718 334.8 127.46C334.8 124.202 332.176 121.56 328.94 121.56C325.704 121.56 323.08 124.202 323.08 127.46C323.08 130.718 325.704 133.36 328.94 133.36Z" fill="#263238"/>
<path opacity="0.2" d="M328.94 132.18C331.529 132.18 333.628 130.067 333.628 127.46C333.628 124.853 331.529 122.74 328.94 122.74C326.351 122.74 324.252 124.853 324.252 127.46C324.252 130.067 326.351 132.18 328.94 132.18Z" fill="white"/>
<path d="M330.51 109.58C333.484 107.746 336.052 106.249 338.316 105.04V131H336.336L336.002 129.186L335.23 124.994C335.009 123.779 334.373 122.681 333.433 121.891C332.492 121.1 331.307 120.668 330.083 120.669H327.657C326.511 120.659 325.393 121.03 324.476 121.725C323.559 122.419 322.893 123.399 322.582 124.513L321.272 129.186L320.765 131L312.532 129.924L313.547 122.863L313.71 121.745L315.313 120.669L318.46 113.372L321.384 112.45L330.51 109.58Z" fill="#407BFF"/>
<path opacity="0.7" d="M323.08 112.635L318.912 119.288L314.876 120.38L318.267 113.047L321.417 112.12C322.402 112.367 323.08 112.635 323.08 112.635Z" fill="#EBEBEB"/>
<path opacity="0.4" d="M338.316 106.22V110.926C336.355 110.991 334.393 110.827 332.456 110.439C332.456 110.439 335.278 108.354 338.316 106.22Z" fill="black"/>
<path opacity="0.2" d="M338.316 123.22V131H336.336L336.002 129.23L335.23 125.14C335.009 123.954 334.373 122.883 333.433 122.112C332.492 121.341 331.307 120.919 330.083 120.92H327.657C326.511 120.91 325.393 121.272 324.476 121.95C323.559 122.627 322.893 123.583 322.582 124.67L321.272 129.23L320.765 131L312.532 129.95L313.547 123.06L319.729 121.28L319.912 121.52L321.069 123.03C321.069 123.03 323.099 119.2 329.982 119.2C335.555 119.2 337.687 122.07 338.316 123.22Z" fill="black"/>
<path d="M272.335 160.5H241.389C240.727 160.5 240.071 160.378 239.459 160.14C238.847 159.903 238.291 159.554 237.824 159.115C237.356 158.677 236.985 158.156 236.732 157.582C236.48 157.009 236.351 156.395 236.352 155.775C236.352 154.525 236.883 153.325 237.827 152.441C238.772 151.557 240.053 151.06 241.389 151.06H272.335C273.671 151.06 274.952 151.557 275.897 152.441C276.841 153.325 277.372 154.525 277.372 155.775C277.372 157.026 276.842 158.227 275.897 159.113C274.953 159.998 273.672 160.497 272.335 160.5Z" fill="#407BFF"/>
<path opacity="0.2" d="M205.88 123.925L210.568 131V116.84L205.88 123.925Z" fill="black"/>
<path opacity="0.2" d="M307.844 123.925L303.156 116.84V131L307.844 123.925Z" fill="black"/>
<path d="M173.662 296.047H165.118V386.022H173.662V296.047Z" fill="#263238"/>
<path opacity="0.2" d="M173.662 296.047H165.118V386.022H173.662V296.047Z" fill="black"/>
<path d="M234.829 296.047H226.285V386.022H234.829V296.047Z" fill="#263238"/>
<path opacity="0.2" d="M234.829 296.047H226.285V386.022H234.829V296.047Z" fill="black"/>
<path d="M92.1022 296.047H83.5583V386.022H92.1022V296.047Z" fill="#263238"/>
<path d="M30.9355 296.047H22.3916V386.022H30.9355V296.047Z" fill="#263238"/>
<path d="M252.338 292.719V299.374C252.34 299.629 252.291 299.882 252.195 300.118C252.099 300.355 251.958 300.569 251.779 300.75C251.601 300.931 251.388 301.075 251.154 301.173C250.92 301.271 250.669 301.321 250.416 301.321H14.3049C13.792 301.321 13.3002 301.116 12.9375 300.751C12.5748 300.386 12.3711 299.891 12.3711 299.374V292.719C12.3711 292.203 12.5748 291.707 12.9375 291.342C13.3002 290.977 13.792 290.772 14.3049 290.772H250.416C250.669 290.772 250.92 290.822 251.154 290.92C251.388 291.018 251.601 291.162 251.779 291.343C251.958 291.524 252.099 291.739 252.195 291.975C252.291 292.211 252.34 292.464 252.338 292.719Z" fill="#263238"/>
<path opacity="0.1" d="M252.338 292.719V299.374C252.34 299.629 252.291 299.882 252.195 300.118C252.099 300.355 251.958 300.569 251.779 300.75C251.601 300.931 251.388 301.075 251.154 301.173C250.92 301.271 250.669 301.321 250.416 301.321H14.3049C13.792 301.321 13.3002 301.116 12.9375 300.751C12.5748 300.386 12.3711 299.891 12.3711 299.374V292.719C12.3711 292.203 12.5748 291.707 12.9375 291.342C13.3002 290.977 13.792 290.772 14.3049 290.772H250.416C250.669 290.772 250.92 290.822 251.154 290.92C251.388 291.018 251.601 291.162 251.779 291.343C251.958 291.524 252.099 291.739 252.195 291.975C252.291 292.211 252.34 292.464 252.338 292.719Z" fill="white"/>
<path opacity="0.2" d="M79.0227 292.719V299.374C79.0243 299.629 78.9757 299.882 78.8798 300.118C78.7839 300.355 78.6426 300.569 78.4639 300.75C78.2853 300.931 78.0729 301.075 77.8389 301.173C77.605 301.271 77.354 301.321 77.1006 301.321H14.3049C13.792 301.321 13.3002 301.116 12.9375 300.751C12.5748 300.386 12.3711 299.891 12.3711 299.374V292.719C12.3711 292.203 12.5748 291.707 12.9375 291.342C13.3002 290.977 13.792 290.772 14.3049 290.772H77.1006C77.354 290.772 77.605 290.822 77.8389 290.92C78.0729 291.018 78.2853 291.162 78.4639 291.343C78.6426 291.524 78.7839 291.739 78.8798 291.975C78.9757 292.211 79.0243 292.464 79.0227 292.719Z" fill="white"/>
<path d="M144.655 188.82C144.655 188.82 149.038 189.717 149.026 190.519C149.015 191.322 147.315 197.705 146.53 198.484C145.714 199.156 144.825 199.734 143.881 200.207L145.053 210.508L139.064 212.066L138.982 201.092C138.982 201.092 136.873 197.859 138.385 194.696C139.896 191.534 144.655 188.82 144.655 188.82Z" fill="#FFBF9D"/>
<path opacity="0.2" d="M144.655 188.82C144.655 188.82 149.038 189.717 149.026 190.519C149.015 191.322 147.315 197.705 146.53 198.484C145.714 199.156 144.825 199.734 143.881 200.207L145.053 210.508L139.064 212.066L138.982 201.092C138.982 201.092 136.873 197.859 138.385 194.696C139.896 191.534 144.655 188.82 144.655 188.82Z" fill="#FFBF9D"/>
<path d="M128.739 190C132.701 192.856 134.201 208.632 135.771 210.921C137.342 213.211 137.951 206.567 137.951 206.567L145.932 206.178C145.932 206.178 147.022 215.618 142.416 222.238C137.81 228.857 129.325 223.96 124.508 213.246C119.691 202.532 128.739 190 128.739 190Z" fill="#407BFF"/>
<path opacity="0.2" d="M142.416 222.261C141.576 223.596 140.293 224.587 138.795 225.058C134.177 226.391 128.247 221.518 124.52 213.258C123.401 210.687 122.93 207.878 123.149 205.08C123.664 197.056 128.739 190.012 128.739 190.012C132.689 192.867 134.201 208.644 135.771 210.933C137.342 213.222 137.951 206.579 137.951 206.579L145.932 206.19C145.932 206.19 147.022 215.582 142.416 222.261Z" fill="white"/>
<path d="M180.823 376.039L188.734 373.856L187.316 354.445L179.428 356.628L180.823 376.039Z" fill="#EBB376"/>
<path d="M189.214 372.806L180.037 373.443C179.961 373.444 179.886 373.461 179.816 373.492C179.746 373.524 179.683 373.569 179.63 373.625C179.578 373.681 179.537 373.747 179.511 373.819C179.484 373.891 179.472 373.968 179.475 374.045L179.533 381.384C179.558 381.767 179.731 382.125 180.017 382.379C180.303 382.634 180.676 382.764 181.057 382.741C184.257 382.458 185.745 382.163 189.8 381.856C193.4 381.756 196.988 381.393 200.536 380.771C203.876 379.992 203.02 376.688 201.532 376.711C198.016 376.782 193.082 374.823 190.644 373.171C190.223 372.889 189.718 372.759 189.214 372.806Z" fill="#263238"/>
<path d="M192.203 373.997C191.465 374.033 190.726 373.986 190 373.856C189.965 373.851 189.932 373.836 189.905 373.813C189.878 373.79 189.858 373.76 189.847 373.726C189.842 373.688 189.844 373.65 189.854 373.614C189.864 373.577 189.882 373.543 189.906 373.514C190.152 373.313 192.367 371.567 193.422 371.885C193.537 371.924 193.641 371.993 193.723 372.083C193.805 372.174 193.863 372.285 193.891 372.404C193.971 372.581 194 372.777 193.973 372.97C193.946 373.162 193.864 373.343 193.738 373.49C193.309 373.849 192.76 374.03 192.203 373.997ZM193.281 372.286C192.73 372.121 191.429 372.9 190.515 373.573C191.992 373.761 193.07 373.643 193.433 373.23C193.504 373.133 193.548 373.019 193.563 372.899C193.577 372.779 193.561 372.658 193.516 372.546C193.502 372.486 193.474 372.43 193.432 372.385C193.391 372.339 193.339 372.305 193.281 372.286Z" fill="#407BFF"/>
<path d="M190.046 373.856H189.964C189.907 373.822 189.865 373.767 189.847 373.702C189.847 373.632 189.496 371.26 190.257 370.398C190.358 370.287 190.481 370.2 190.619 370.143C190.757 370.086 190.905 370.06 191.054 370.068C191.217 370.064 191.376 370.114 191.507 370.21C191.638 370.305 191.735 370.442 191.781 370.599C192.027 371.484 190.925 373.289 190.152 373.832L190.046 373.856ZM190.949 370.505C190.872 370.508 190.797 370.528 190.729 370.563C190.66 370.597 190.599 370.646 190.55 370.705C190.149 371.524 190.025 372.452 190.199 373.348C190.887 372.658 191.303 371.74 191.371 370.764C191.371 370.646 191.265 370.516 190.996 370.505H190.949Z" fill="#407BFF"/>
<path opacity="0.2" d="M179.428 356.628L187.316 354.457L188.124 365.549L180.19 367.33L179.428 356.628Z" fill="black"/>
<path d="M170.497 375.756L163.032 379.178L161.133 371.118L158.578 360.25L166.02 356.817L168.575 367.673L170.497 375.756Z" fill="#EBB376"/>
<path opacity="0.2" d="M168.575 367.673L161.133 371.118L158.578 360.25L166.02 356.817L168.575 367.673Z" fill="black"/>
<path d="M170.802 374.646L161.848 376.747C161.696 376.775 161.562 376.864 161.474 376.992C161.386 377.12 161.352 377.278 161.379 377.431L162.551 384.676C162.641 385.049 162.871 385.371 163.192 385.576C163.514 385.781 163.902 385.852 164.274 385.774C167.392 384.983 168.833 384.452 172.771 383.496C176.304 382.811 179.785 381.881 183.19 380.712C186.378 379.402 185.007 376.263 183.542 376.534C179.684 376.943 175.788 376.337 172.232 374.776C171.781 374.583 171.281 374.538 170.802 374.646Z" fill="#263238"/>
<path d="M173.943 375.343C173.223 375.496 172.488 375.567 171.752 375.555C171.715 375.556 171.679 375.547 171.648 375.528C171.617 375.509 171.592 375.482 171.576 375.449C171.561 375.415 171.553 375.379 171.553 375.343C171.553 375.306 171.561 375.27 171.576 375.236C171.798 375 173.697 372.876 174.764 373.065C174.885 373.083 175 373.133 175.097 373.209C175.194 373.286 175.269 373.387 175.314 373.502C175.418 373.666 175.472 373.856 175.472 374.051C175.472 374.245 175.418 374.435 175.314 374.599C174.965 375.01 174.476 375.275 173.943 375.343ZM174.74 373.478C174.166 373.396 173.006 374.387 172.209 375.189C173.709 375.189 174.74 374.847 175.033 374.387C175.094 374.281 175.126 374.161 175.126 374.039C175.126 373.917 175.094 373.796 175.033 373.691C175.007 373.637 174.97 373.59 174.923 373.553C174.876 373.516 174.822 373.49 174.764 373.478H174.74Z" fill="#407BFF"/>
<path d="M171.787 375.543C171.776 375.548 171.764 375.551 171.751 375.551C171.739 375.551 171.727 375.548 171.716 375.543C171.657 375.522 171.607 375.48 171.576 375.425C171.576 375.354 170.837 373.065 171.458 372.086C171.538 371.961 171.645 371.856 171.771 371.778C171.897 371.701 172.038 371.653 172.185 371.637C172.345 371.601 172.513 371.62 172.66 371.693C172.807 371.767 172.925 371.888 172.994 372.039C173.38 372.876 172.583 374.835 171.892 375.496C171.881 375.513 171.865 375.527 171.846 375.535C171.828 375.544 171.807 375.546 171.787 375.543ZM172.15 372.098C172 372.133 171.869 372.226 171.787 372.357C171.53 373.231 171.554 374.165 171.857 375.024C172.448 374.237 172.732 373.258 172.654 372.275C172.654 372.168 172.513 372.05 172.244 372.086L172.15 372.098Z" fill="#407BFF"/>
<path d="M115.167 265.52L112.753 238.699L68.217 239.749C68.217 239.749 62.9547 277.131 66.7872 283.999C73.6199 296.259 118.472 289.297 128.962 290.347C133.251 292.648 156.176 369.136 156.176 369.136L169.009 363.92C169.009 363.92 155.203 299.362 152.062 287.22C147.725 270.24 129.899 270.547 115.167 265.52Z" fill="#407BFF"/>
<path opacity="0.6" d="M115.167 265.52L112.753 238.699L68.217 239.749C68.217 239.749 62.9547 277.131 66.7872 283.999C73.6199 296.259 118.472 289.297 128.962 290.347C133.251 292.648 156.176 369.136 156.176 369.136L169.009 363.92C169.009 363.92 155.203 299.362 152.062 287.22C147.725 270.24 129.899 270.547 115.167 265.52Z" fill="white"/>
<path d="M188.91 362.563L177.588 363.625C177.588 363.625 163.688 292.436 162.622 292.141C160.688 291.586 155.062 290.961 152.074 290.147C131.036 284.648 79.3042 274.523 79.3042 274.523L98.3726 256.08C98.3726 256.08 184.878 266.535 186.8 286.972C187.714 296.743 188.91 362.563 188.91 362.563Z" fill="#407BFF"/>
<path opacity="0.6" d="M188.91 362.563L177.588 363.625C177.588 363.625 163.688 292.436 162.622 292.141C160.688 291.586 155.062 290.961 152.074 290.147C131.036 284.648 79.3042 274.523 79.3042 274.523L98.3726 256.08C98.3726 256.08 184.878 266.535 186.8 286.972C187.714 296.743 188.91 362.563 188.91 362.563Z" fill="white"/>
<path opacity="0.2" d="M159.563 292.188C157.629 291.633 155.062 290.949 152.038 290.147C152.882 290.595 150.444 279.527 148.018 276.647C143.213 270.936 123.887 267.845 116.949 266.724C111.159 265.791 91.7039 264.057 91.7039 264.057C91.7039 264.057 126.043 261.071 151.921 268.222C164.708 271.762 162.434 284.4 159.563 292.188Z" fill="black"/>
<path d="M113.773 244.138C116.374 229.105 120.805 208.986 128.856 190.165C124.596 188.349 120.208 186.851 115.73 185.681C109.174 183.896 102.522 182.494 95.8058 181.48C91.178 180.985 86.5188 180.855 81.8708 181.091C81.8708 181.091 71.8384 199.971 66.752 244.138H113.773Z" fill="#407BFF"/>
<path d="M99.2867 194.213C99.2867 194.213 87.5667 184.832 86.1368 179.286C84.707 173.74 91.528 169.999 101.138 172.135C110.749 174.271 119.633 180.395 116.796 187.475C113.96 194.555 108.991 196.278 108.991 196.278C108.991 196.278 106.928 192.218 99.2867 194.213Z" fill="#407BFF"/>
<path d="M123.582 200.431L130.333 195.971C130.333 195.971 133.204 187.262 133.849 186.413C134.494 185.563 141.619 187.51 142.405 187.593C143.19 187.675 141.104 196.561 140.154 197.328C139.205 198.095 136.099 198.201 136.099 198.201L128.423 205.01L123.582 200.431Z" fill="#FFBF9D"/>
<path d="M143.59 177.02H151.288C151.579 177.035 151.862 177.112 152.118 177.245C152.373 177.378 152.595 177.564 152.766 177.79C152.937 178.015 153.053 178.274 153.107 178.548C153.16 178.821 153.149 179.103 153.075 179.373L145.329 193.809C145.182 194.084 144.959 194.314 144.684 194.475C144.408 194.636 144.092 194.721 143.769 194.72H134.409C134.189 194.696 133.978 194.621 133.796 194.501C133.614 194.381 133.466 194.219 133.364 194.03C133.263 193.842 133.212 193.632 133.216 193.42C133.22 193.208 133.279 193.001 133.387 192.816L140.852 178.678C141.106 178.188 141.496 177.774 141.979 177.482C142.461 177.19 143.019 177.03 143.59 177.02Z" fill="#455A64"/>
<path d="M144.397 178.2H151.881C152.096 178.199 152.307 178.251 152.495 178.352C152.683 178.452 152.841 178.598 152.954 178.775C153.067 178.952 153.13 179.153 153.139 179.361C153.148 179.569 153.101 179.775 153.003 179.96L145.655 193.825C145.511 194.094 145.294 194.32 145.026 194.478C144.759 194.635 144.452 194.719 144.139 194.72H135.115C134.991 194.715 134.87 194.681 134.763 194.62C134.656 194.56 134.566 194.474 134.501 194.372C134.436 194.27 134.398 194.154 134.39 194.035C134.382 193.915 134.404 193.795 134.455 193.686L141.72 179.813C141.965 179.329 142.346 178.921 142.819 178.636C143.293 178.351 143.839 178.2 144.397 178.2Z" fill="#263238"/>
<path d="M144.039 184.1L148.642 186.047L149.624 189.973L147.407 195.814L139.298 197.08L141.677 194.508L141.377 192.261C141.377 192.261 139.076 191.507 139.076 191.142C139.076 190.777 139.36 189.519 139.705 189.479C140.613 189.698 141.503 189.994 142.367 190.363C142.367 190.363 139.552 188.002 139.628 187.621C139.705 187.24 140.012 186.274 140.572 186.161C141.132 186.047 145.689 188.327 145.689 188.327L146.456 190.103L147.1 187.256C147.1 187.256 143.042 186.055 144.039 184.1Z" fill="#FFBF9D"/>
<path d="M148.452 181.15C148.452 181.267 148.383 181.381 148.255 181.478C148.126 181.575 147.943 181.65 147.729 181.695C147.514 181.74 147.279 181.751 147.051 181.729C146.824 181.706 146.615 181.65 146.451 181.567C146.288 181.485 146.176 181.38 146.131 181.265C146.085 181.151 146.109 181.032 146.197 180.924C146.286 180.816 146.436 180.724 146.629 180.659C146.822 180.595 147.048 180.56 147.28 180.56C147.434 180.559 147.587 180.574 147.73 180.604C147.873 180.633 148.003 180.677 148.112 180.731C148.221 180.786 148.307 180.852 148.365 180.923C148.424 180.995 148.453 181.072 148.452 181.15Z" fill="#FAFAFA"/>
<path opacity="0.2" d="M99.2867 194.213C99.2867 194.213 87.5667 184.832 86.1368 179.286C84.707 173.74 91.528 169.999 101.138 172.135C110.749 174.271 119.633 180.395 116.796 187.475C113.96 194.555 108.991 196.278 108.991 196.278C108.991 196.278 106.928 192.218 99.2867 194.213Z" fill="white"/>
<path d="M113.292 220.043C113.254 220.041 113.216 220.032 113.181 220.016C113.146 220 113.114 219.977 113.088 219.948C113.062 219.92 113.042 219.886 113.029 219.85C113.015 219.813 113.009 219.775 113.011 219.736C113.995 205.269 109.19 195.841 109.143 195.747C109.125 195.713 109.113 195.675 109.109 195.636C109.105 195.598 109.108 195.559 109.119 195.521C109.13 195.484 109.148 195.449 109.172 195.419C109.197 195.389 109.227 195.364 109.26 195.345C109.331 195.312 109.411 195.306 109.485 195.33C109.56 195.355 109.622 195.406 109.659 195.475C109.659 195.57 114.593 205.139 113.597 219.771C113.591 219.848 113.556 219.918 113.499 219.969C113.442 220.02 113.368 220.046 113.292 220.043Z" fill="white"/>
<path d="M95.5479 214.898C95.4977 214.909 95.4458 214.909 95.3956 214.898C95.331 214.857 95.2851 214.792 95.2676 214.717C95.25 214.642 95.2623 214.563 95.3018 214.497C100.564 205.482 99.017 193.257 99.0053 193.162C98.9987 193.124 98.9999 193.085 99.0088 193.048C99.0178 193.01 99.0343 192.975 99.0573 192.944C99.0804 192.913 99.1095 192.887 99.1429 192.868C99.1763 192.848 99.2132 192.836 99.2515 192.832C99.3275 192.822 99.4044 192.842 99.4658 192.888C99.5271 192.935 99.568 193.003 99.5796 193.08C99.5796 193.21 101.174 205.611 95.8058 214.792C95.7749 214.83 95.7352 214.859 95.6902 214.878C95.6452 214.896 95.5963 214.903 95.5479 214.898Z" fill="white"/>
<path d="M113.081 219.5C113.081 219.5 114.019 219.5 113.855 221.081L112.483 220.951C112.483 220.951 112.331 219.712 113.081 219.5Z" fill="white"/>
<path d="M95.6417 214.06C95.6417 214.06 96.4153 214.591 95.5011 215.818L94.3877 214.992C94.3877 214.992 94.9034 213.812 95.6417 214.06Z" fill="white"/>
<path d="M83.0312 181.103C87.5434 182.153 98.3609 200.986 104.127 204.455C109.893 207.924 125.903 196.761 125.903 196.761L131.376 203.617C131.376 203.617 118.426 215.122 107.092 215.417C95.7591 215.712 79.691 199.558 77.3001 193.634C74.9092 187.711 77.5579 179.828 83.0312 181.103Z" fill="#407BFF"/>
<path opacity="0.2" d="M83.0312 181.103C87.5434 182.153 98.3609 200.986 104.127 204.455C109.893 207.924 125.903 196.761 125.903 196.761L131.376 203.617C131.376 203.617 118.426 215.122 107.092 215.417C95.7591 215.712 79.691 199.558 77.3001 193.634C74.9092 187.711 77.5579 179.828 83.0312 181.103Z" fill="white"/>
<path d="M118.792 155.172C119.533 155.261 120.298 155.011 120.939 154.47C121.581 153.93 122.053 153.137 122.264 152.245C122.475 151.353 122.411 150.425 122.084 149.641C121.756 148.857 121.189 148.272 120.492 147.999C120.988 147.415 121.331 146.672 121.474 145.875C121.617 145.078 121.551 144.268 121.287 143.56C121.022 142.851 120.572 142.28 120 141.927C119.428 141.575 118.764 141.459 118.101 141.596C118.119 140.805 117.968 140.04 117.661 139.374C117.354 138.708 116.903 138.164 116.35 137.795C115.798 137.427 115.163 137.246 114.509 137.271C113.855 137.296 113.203 137.525 112.617 137.937C111.922 137.226 111.03 136.836 110.082 136.83C109.135 136.824 108.186 137.202 107.388 137.905C106.76 137.777 106.098 137.901 105.499 138.257C104.9 138.613 104.396 139.183 104.061 139.883C103.725 140.584 103.576 141.377 103.635 142.147C103.695 142.917 103.959 143.624 104.39 144.162" fill="#263238"/>
<path d="M119.638 174.072C119.849 170.172 119.718 162.149 119.534 154.895C119.425 151.137 118.074 147.629 115.75 145.065C113.426 142.5 110.296 141.066 106.981 141.046L106.304 141.029C98.9121 141.493 94.8332 148.868 95.0964 157.242L94.9601 186.672L96.9264 188.926L98.8927 190.59L100.651 191.77L102.995 192.36C102.995 192.36 105.944 192.913 107.683 192.36C109.623 191.743 111.825 189.184 111.825 189.184L112.067 183.346C112.067 183.346 119.195 182.123 119.638 174.072Z" fill="#FFBF9D"/>
<path d="M111.872 182.995C108.781 183.049 105.818 182.023 103.335 180.038C103.335 180.038 105.04 185.83 111.722 184.993L111.872 182.995Z" fill="#FF9A6C"/>
<path d="M116.496 162.056C116.491 162.347 116.381 162.625 116.187 162.833C115.994 163.04 115.732 163.161 115.457 163.169C115.323 163.177 115.188 163.155 115.061 163.107C114.934 163.059 114.818 162.984 114.72 162.887C114.621 162.79 114.542 162.673 114.487 162.543C114.432 162.413 114.402 162.272 114.399 162.129C114.403 161.84 114.514 161.562 114.707 161.356C114.901 161.15 115.162 161.031 115.435 161.024C115.57 161.016 115.704 161.037 115.831 161.084C115.957 161.132 116.073 161.207 116.172 161.303C116.271 161.399 116.35 161.515 116.406 161.644C116.461 161.774 116.492 161.914 116.496 162.056Z" fill="#263238"/>
<path d="M117.293 159.054C117.172 159.238 116.63 158.56 115.736 158.676C114.843 158.792 114.105 159.606 114.03 159.436C113.954 159.266 114.134 159.029 114.457 158.654C114.893 158.168 115.378 157.879 115.847 157.824C116.311 157.762 116.736 157.944 117.06 158.344C117.298 158.659 117.356 158.963 117.293 159.054Z" fill="#263238"/>
<path d="M106.681 162.669C106.677 162.96 106.566 163.238 106.373 163.445C106.18 163.652 105.919 163.773 105.645 163.781C105.51 163.789 105.375 163.768 105.249 163.719C105.122 163.671 105.005 163.596 104.906 163.499C104.808 163.403 104.728 163.286 104.672 163.155C104.617 163.025 104.586 162.885 104.583 162.741C104.589 162.453 104.7 162.177 104.893 161.971C105.085 161.766 105.345 161.646 105.617 161.637C105.752 161.628 105.887 161.648 106.014 161.695C106.141 161.743 106.258 161.817 106.357 161.913C106.456 162.009 106.536 162.126 106.592 162.256C106.647 162.386 106.678 162.526 106.681 162.669Z" fill="#263238"/>
<path d="M107.542 159.421C107.411 159.599 106.565 158.976 105.386 159.075C104.208 159.174 103.364 159.931 103.233 159.777C103.102 159.624 103.327 159.41 103.673 159.059C104.174 158.617 104.774 158.356 105.392 158.31C106.01 158.264 106.616 158.436 107.127 158.803C107.479 159.063 107.606 159.349 107.542 159.421Z" fill="#263238"/>
<path d="M110.099 168.457C110.686 168.273 111.288 168.17 111.892 168.149C112.175 168.123 112.445 168.061 112.499 167.849C112.538 167.528 112.487 167.204 112.352 166.923C112.111 166.165 111.87 165.374 111.613 164.539C110.587 161.148 109.856 158.361 109.984 158.316C110.112 158.271 111.038 160.975 112.064 164.365L112.763 166.762C112.93 167.138 112.966 167.572 112.864 167.984C112.819 168.093 112.753 168.191 112.67 168.269C112.587 168.347 112.49 168.403 112.385 168.434C112.228 168.484 112.065 168.506 111.903 168.502C111.3 168.571 110.694 168.556 110.099 168.457Z" fill="#263238"/>
<path d="M106.441 155.369C106.373 155.633 105.618 155.62 104.734 155.873C103.85 156.126 103.152 156.541 103.018 156.324C102.962 156.218 103.068 155.958 103.344 155.663C103.702 155.301 104.13 155.045 104.588 154.919C105.042 154.788 105.511 154.793 105.95 154.935C106.266 155.049 106.442 155.234 106.441 155.369Z" fill="#263238"/>
<path d="M118.163 155.62C117.954 155.771 117.127 155.455 116.133 155.296C115.139 155.138 114.303 155.144 114.109 154.922C114.026 154.814 114.177 154.657 114.531 154.515C115.035 154.382 115.605 154.365 116.181 154.464C116.757 154.562 117.316 154.774 117.8 155.076C118.146 155.341 118.256 155.546 118.163 155.62Z" fill="#263238"/>
<path d="M119.213 151.591C119.213 151.591 117.526 146.484 115.404 145.289C112.858 143.842 111.56 147.086 109.089 146.284C106.619 145.481 104.16 144.066 101.498 146.254C98.5901 148.639 99.8343 150.327 99.5293 153.934C98.2072 168.533 95.6648 172.675 95.2814 165.781C95.2408 165.029 93.4397 164.432 93.2773 161.226C93.0909 157.09 93.1731 152.048 94.1078 149.142C94.8999 146.678 96.225 144.98 98.5709 143.111C102.242 140.168 107.088 140.124 110.371 140.515C113.655 140.905 119.781 145.222 119.213 151.591Z" fill="#263238"/>
<path d="M95.929 165.11C95.9333 164.799 95.8814 164.492 95.7766 164.209C95.6717 163.927 95.5161 163.673 95.319 163.465C95.122 163.256 94.8876 163.096 94.6302 162.995C94.3728 162.895 94.0976 162.854 93.8214 162.878C92.4144 163.02 90.8166 163.907 90.7584 167.222C90.6749 173.012 95.8618 171.667 95.8678 171.495C95.8738 171.323 95.9162 167.535 95.929 165.11Z" fill="#FFBF9D"/>
<path d="M94.3667 168.98C94.3667 168.98 94.2994 169.045 94.1775 169.126C94.0148 169.228 93.8362 169.249 93.6788 169.184C93.2824 169.019 92.975 168.222 93.0058 167.29C93.0209 166.858 93.1074 166.424 93.2594 166.016C93.3029 165.855 93.3749 165.705 93.4688 165.579C93.5628 165.454 93.6759 165.356 93.7984 165.296C93.8772 165.261 93.9593 165.263 94.0299 165.301C94.1005 165.339 94.1551 165.411 94.1838 165.504C94.228 165.638 94.2006 165.745 94.2216 165.751C94.2426 165.757 94.3067 165.66 94.2966 165.459C94.2819 165.335 94.2341 165.227 94.1612 165.153C94.0618 165.056 93.9317 165.019 93.7992 165.051C93.6381 165.106 93.485 165.212 93.3544 165.36C93.2239 165.508 93.1204 165.693 93.0537 165.897C92.864 166.352 92.7581 166.848 92.7457 167.339C92.7158 168.355 93.0639 169.279 93.613 169.441C93.7133 169.469 93.8199 169.466 93.9253 169.434C94.0308 169.401 94.1326 169.34 94.2236 169.253C94.3357 169.101 94.3558 169.023 94.3667 168.98Z" fill="#FF9A6C"/>
<path d="M96.2096 154.347C96.7858 154.885 97.4793 155.252 98.2271 155.415C98.6013 155.483 98.9889 155.399 99.3186 155.178C99.6484 154.958 99.8981 154.616 100.022 154.216C100.115 153.852 100.025 153.42 100.256 153.135C100.487 152.849 101.033 152.907 101.421 152.961C102.127 153.03 102.84 152.829 103.44 152.391C104.04 151.954 104.491 151.306 104.717 150.558C104.924 150.825 105.217 150.994 105.538 151.033C105.859 151.071 106.184 150.977 106.452 150.767C106.973 150.327 107.435 149.808 107.824 149.226C108.02 148.942 108.274 148.712 108.564 148.555C108.854 148.398 109.172 148.319 109.492 148.325C109.823 148.466 110.169 148.563 110.524 148.615C111.162 148.563 111.506 147.752 111.641 147.057C111.776 146.363 111.875 145.53 112.415 145.188C112.976 144.95 113.591 144.939 114.147 145.158C114.732 145.258 115.494 145.114 115.669 144.487C115.728 144.147 115.662 143.799 115.486 143.519C115.117 142.869 114.555 142.382 113.892 142.136C113.228 141.891 112.503 141.901 111.832 142.166C111.627 141.275 111.185 140.478 110.561 139.878C109.936 139.277 109.159 138.899 108.326 138.791C107.494 138.683 106.644 138.851 105.884 139.272C105.124 139.694 104.489 140.351 104.059 141.159C103.564 140.638 102.959 140.26 102.295 140.057C101.631 139.853 100.927 139.831 100.244 139.992C99.5612 140.153 98.9187 140.491 98.3717 140.98C97.8246 141.468 97.3891 142.091 97.1023 142.796C96.5154 142.616 95.8882 142.631 95.2992 142.841C94.7101 143.05 94.1852 143.444 93.7898 143.973C93.3944 144.502 93.1461 145.143 93.0759 145.817C93.0056 146.49 93.1165 147.165 93.3947 147.758C92.9359 147.999 92.5365 148.361 92.2338 148.812C91.931 149.263 91.7347 149.788 91.6631 150.337C91.6089 151.445 92.5328 152.549 93.5219 152.277C93.2773 152.711 93.1966 153.229 93.2977 153.718C93.3988 154.206 93.6734 154.625 94.061 154.882C94.4486 155.138 94.9175 155.212 95.3646 155.087C95.8116 154.962 96.2002 154.648 96.4448 154.214" fill="#263238"/>
<path d="M107.075 169.889C108.411 170.165 109.7 170.644 110.912 171.315C110.686 172.452 110.344 173.702 109.513 174.329C109.197 174.551 108.847 174.672 108.497 174.678C108.147 174.685 107.811 174.576 107.523 174.365C107.247 174.168 107.017 173.894 106.85 173.561C106.683 173.229 106.583 172.847 106.558 172.445C106.57 171.574 106.747 170.699 107.075 169.889Z" fill="#FF9A6C"/>
<path d="M93.3166 40.4354C94.0755 35.4344 86.277 31.3181 80.4057 30.8938C77.6098 30.6862 74.7041 31.0744 72.058 30.2439C66.3165 28.4385 64.0698 21.7314 58.4181 19.592C54.2343 17.9943 49.4314 19.4205 45.3574 21.262C41.2835 23.1035 37.2794 25.4325 32.7461 25.7033C28.752 25.929 24.5182 24.602 21.0633 26.3442C18.4971 27.6441 17.1491 30.3251 14.7726 31.9049C12.3961 33.4846 9.43048 33.7825 6.55473 33.9179C3.67898 34.0533 0.693397 34.0894 -1.92274 35.1726C-4.53888 36.2559 -6.71566 38.7834 -6.16647 41.32L93.3166 40.4354Z" fill="#F5F5F5"/>
</g>
<defs>
<clipPath id="clip0_7_2">
<rect width="375" height="430" fill="white"/>
</clipPath>
</defs>
</svg>
