<svg width="332" height="430" viewBox="0 0 332 430" fill="none" xmlns="http://www.w3.org/2000/svg">
<g clip-path="url(#clip0_7_1189)">
<path d="M316.156 72.9356C316.615 69.6745 311.991 67.0016 308.482 66.7436C306.826 66.6094 305.097 66.8571 303.525 66.3101C300.109 65.1337 298.745 60.7683 295.413 59.3751C292.924 58.3431 290.061 59.2616 287.645 60.469C285.229 61.6765 282.855 63.1832 280.158 63.3586C277.804 63.5031 275.263 62.6362 273.212 63.7714C271.681 64.6177 270.879 66.3721 269.473 67.3937C268.006 68.2945 266.305 68.7534 264.579 68.7147C262.866 68.6702 261.159 68.9468 259.55 69.53C257.988 70.2317 256.696 71.8623 257.019 73.5341L316.156 72.9356Z" fill="#EBEBEB"/>
<path d="M289.176 148.419C290.268 140.581 279.091 134.126 270.693 133.464C266.676 133.132 262.529 133.752 258.73 132.441C250.507 129.559 247.218 119.085 239.199 115.743C233.203 113.236 226.305 115.469 220.483 118.365C214.662 121.261 208.928 124.906 202.437 125.309C196.79 125.669 190.648 123.595 185.7 126.332C182.018 128.363 180.097 132.57 176.691 134.976C173.286 137.382 169.051 137.858 164.917 138.132C160.784 138.405 156.534 138.391 152.78 140.091C149.025 141.791 145.925 145.724 146.711 149.744L289.176 148.419Z" fill="#F5F5F5"/>
<path d="M153.972 402.34H124.277L128.164 388.042H153.972V402.34Z" fill="#E0E0E0"/>
<path d="M153.972 402.34C153.944 401.982 153.944 401.623 153.972 401.266V398.376L153.785 388.042L154.14 388.412L128.332 388.524L128.799 388.172L128.239 390.283C127.061 394.543 125.94 398.654 124.893 402.451L124.277 401.895C132.798 401.895 140.161 402.025 145.431 402.118L151.655 402.247C152.429 402.24 153.202 402.277 153.972 402.358C153.272 402.448 152.566 402.485 151.86 402.469L145.749 402.599C140.498 402.692 133.004 402.784 124.277 402.821H123.679L123.828 402.229L127.117 390.042L127.697 387.931V387.579H128.07L153.878 387.709H154.252V388.061C154.252 392.561 154.121 396.173 154.047 398.617V401.432C154.068 401.737 154.043 402.043 153.972 402.34Z" fill="#263238"/>
<path d="M201.012 239.701H176.825C175.034 239.701 173.317 238.996 172.051 237.741C170.785 236.486 170.073 234.785 170.073 233.01C170.073 230.313 171.155 227.726 173.079 225.819C175.004 223.911 177.614 222.84 180.336 222.84H195.256C196.002 222.84 196.741 222.986 197.43 223.269C198.119 223.553 198.745 223.968 199.272 224.492C199.799 225.016 200.216 225.637 200.5 226.321C200.784 227.005 200.929 227.738 200.927 228.477L201.012 239.701Z" fill="#FF725E"/>
<path d="M208.422 340.181H184.014C177.387 340.181 172.014 345.553 172.014 352.181V392.447C172.014 399.074 177.387 404.447 184.014 404.447H208.422C215.049 404.447 220.422 399.074 220.422 392.447V352.181C220.422 345.553 215.049 340.181 208.422 340.181Z" fill="#263238"/>
<path d="M176.943 254.772L191.019 243.565L213.282 182.979C216.658 175.435 223.004 165.734 237.739 164.262L391.147 165.6C395.392 165.64 399.524 166.961 402.992 169.388C406.46 171.814 409.099 175.231 410.557 179.182L430.491 233.278L435.959 245.572L448.956 254.588C451.404 256.279 453.405 258.531 454.789 261.151C456.173 263.772 456.899 266.685 456.905 269.643V356.456C456.905 356.456 456.264 372.431 439.521 372.431H188.926C188.926 372.431 172.824 373.067 170.242 354.55C168.2 339.863 169.398 288.996 169.989 268.605C170.066 265.938 170.728 263.319 171.929 260.93C173.13 258.541 174.841 256.44 176.943 254.772Z" fill="#FF725E"/>
<g opacity="0.3">
<path d="M168.791 316.83C170.715 317.298 456.905 316.83 456.905 316.83V355.503C456.905 364.92 450.154 372.464 440.601 372.464H190.547C187.719 372.539 184.906 372.039 182.281 370.995C179.656 369.95 177.275 368.383 175.285 366.39C173.295 364.398 171.739 362.022 170.712 359.41C169.685 356.798 169.209 354.006 169.314 351.204L168.791 316.83Z" fill="black"/>
</g>
<path d="M178.698 261.112L234.228 267.803V300.069C234.228 300.069 172.774 298.397 169.094 290.267L169.922 268.522C169.965 267.449 170.232 266.398 170.706 265.432C171.179 264.467 171.85 263.61 172.674 262.914C173.498 262.218 174.459 261.698 175.496 261.388C176.533 261.078 177.623 260.984 178.698 261.112Z" fill="#E0E0E0"/>
<path d="M178.698 261.112C177.895 261.098 177.093 261.159 176.302 261.296C175.182 261.528 174.129 262.003 173.216 262.685C172.302 263.368 171.552 264.241 171.019 265.243C170.303 266.721 169.989 268.359 170.107 269.994C170.107 271.8 169.989 273.774 169.921 275.882C169.77 280.13 169.618 284.931 169.432 290.217V290.083C170.742 291.612 172.52 292.676 174.496 293.111C176.605 293.789 178.752 294.347 180.926 294.783C185.416 295.67 190.226 296.373 195.273 296.941C205.4 298.079 216.32 298.815 227.781 299.333L234.313 299.584L233.857 300.019C233.857 288.544 233.857 277.655 233.857 267.752L234.211 268.154L194.176 263.136L182.783 261.664L179.728 261.296C179.375 261.259 179.025 261.197 178.681 261.112C179.035 261.085 179.391 261.085 179.745 261.112L182.766 261.396L194.176 262.651L234.262 267.301H234.617V267.803C234.617 277.705 234.617 288.594 234.617 300.069V300.521H234.161L227.629 300.27C216.152 299.751 205.147 298.999 195.053 297.811C189.99 297.226 185.18 296.523 180.656 295.586C178.453 295.156 176.278 294.597 174.141 293.914C173.114 293.565 172.116 293.14 171.154 292.642C170.153 292.166 169.314 291.41 168.74 290.468V290.384C168.976 285.098 169.179 280.348 169.348 276.049C169.449 273.941 169.533 271.968 169.618 270.161C169.538 268.466 169.899 266.778 170.664 265.26C171.228 264.183 172.034 263.248 173.02 262.529C174.006 261.809 175.147 261.325 176.352 261.112C177.127 260.961 177.924 260.961 178.698 261.112Z" fill="#263238"/>
<path d="M255.563 267.803C251.378 267.778 247.324 269.239 244.132 271.921C240.94 274.602 238.822 278.327 238.161 282.422C237.76 285.191 237.641 287.993 237.807 290.786C238.786 310.072 242.668 333.708 251.917 339.478H315.65V267.803H255.563Z" fill="#263238"/>
<path d="M368.462 267.803C372.648 267.775 376.704 269.235 379.897 271.917C383.089 274.599 385.206 278.326 385.864 282.422C386.266 285.191 386.384 287.993 386.219 290.786C385.256 310.072 381.358 333.708 372.108 339.478H308.375V267.803H368.462Z" fill="#263238"/>
<path d="M384.514 293.211H240.136C239.106 293.211 238.119 292.806 237.391 292.084C236.663 291.363 236.254 290.384 236.254 289.364C236.251 288.857 236.35 288.355 236.544 287.886C236.738 287.418 237.024 286.992 237.385 286.633C237.745 286.274 238.174 285.989 238.646 285.794C239.118 285.6 239.624 285.5 240.136 285.5H384.514C385.025 285.5 385.531 285.6 386.003 285.794C386.475 285.989 386.904 286.274 387.265 286.633C387.626 286.992 387.911 287.418 388.105 287.886C388.299 288.355 388.398 288.857 388.396 289.364C388.396 290.384 387.987 291.363 387.259 292.084C386.531 292.806 385.543 293.211 384.514 293.211Z" fill="#455A64"/>
<path d="M376.952 277.989H245.301C244.789 277.989 244.282 277.889 243.808 277.695C243.335 277.501 242.906 277.216 242.544 276.858C242.182 276.499 241.894 276.073 241.698 275.604C241.502 275.135 241.402 274.633 241.402 274.125C241.402 273.618 241.502 273.116 241.698 272.647C241.894 272.178 242.182 271.752 242.544 271.393C242.906 271.034 243.335 270.75 243.808 270.556C244.282 270.361 244.789 270.261 245.301 270.261H376.952C377.983 270.266 378.971 270.675 379.698 271.399C380.426 272.123 380.834 273.104 380.834 274.125C380.834 275.147 380.426 276.128 379.698 276.852C378.971 277.576 377.983 277.985 376.952 277.989Z" fill="#455A64"/>
<path d="M384.497 302.679H241.638C239.485 302.679 237.739 304.405 237.739 306.534C237.739 308.664 239.485 310.39 241.638 310.39H384.497C386.65 310.39 388.396 308.664 388.396 306.534C388.396 304.405 386.65 302.679 384.497 302.679Z" fill="#455A64"/>
<path d="M379.535 327.552H244.862C243.832 327.552 242.845 327.147 242.117 326.425C241.389 325.704 240.98 324.725 240.98 323.705C240.978 323.198 241.076 322.696 241.27 322.227C241.465 321.759 241.75 321.333 242.111 320.973C242.472 320.614 242.9 320.33 243.372 320.135C243.844 319.941 244.351 319.841 244.862 319.841H379.535C380.046 319.841 380.552 319.941 381.024 320.135C381.496 320.33 381.925 320.614 382.286 320.973C382.647 321.333 382.932 321.759 383.126 322.227C383.32 322.696 383.419 323.198 383.417 323.705C383.417 324.725 383.008 325.704 382.28 326.425C381.552 327.147 380.564 327.552 379.535 327.552Z" fill="#455A64"/>
<path d="M201.67 234.248C201.67 234.248 217.755 180.989 225.435 174.231H401.578C401.578 174.231 416.769 207.2 422.237 234.248H201.67Z" fill="#455A64"/>
<path d="M246.617 348.879V353.512C246.617 356.219 247.702 358.814 249.633 360.727C251.564 362.641 254.182 363.716 256.913 363.716H369.34C372.071 363.716 374.69 362.641 376.621 360.727C378.551 358.814 379.636 356.219 379.636 353.512V348.879H246.617Z" fill="#263238"/>
<path d="M229.604 335.999V356.289C229.604 356.289 188.454 362.043 182.445 335.999H229.604Z" fill="#263238"/>
<path d="M435.959 245.572C435.902 245.469 435.852 245.363 435.807 245.254L435.385 244.267C435.031 243.364 434.508 242.076 433.849 240.437C432.499 237.092 430.575 232.073 428.128 225.901C423.25 213.372 416.313 195.625 408.194 174.632L408.566 174.883H351.567L256.963 174.632L228.27 174.448L220.472 174.348H228.27L256.963 174.248H351.567L408.566 174.365H408.836L408.937 174.616L428.566 226.001C430.929 232.241 432.786 237.192 434.086 240.621C434.693 242.294 435.166 243.565 435.52 244.502L435.858 245.505C435.942 245.455 435.976 245.572 435.959 245.572Z" fill="#263238"/>
<path d="M422.237 234.248C422.237 234.482 372.868 234.716 311.954 234.75C251.039 234.783 201.67 234.633 201.67 234.348C201.67 234.064 251.039 233.88 311.954 233.846C372.868 233.813 422.237 234.014 422.237 234.248Z" fill="#263238"/>
<path d="M201.67 234.248C201.822 234.432 195.847 239.718 188.319 246.057C180.791 252.397 174.563 257.398 174.411 257.214C174.259 257.03 180.234 251.744 187.745 245.405C192.192 241.454 196.84 237.73 201.67 234.248Z" fill="#263238"/>
<path d="M203.712 209.04C203.932 209.04 201.282 216.919 197.771 226.453C194.26 235.988 191.239 243.649 191.02 243.565C190.8 243.481 193.45 235.686 196.944 226.152C200.438 216.618 203.476 208.956 203.712 209.04Z" fill="#263238"/>
<path d="M397.949 267.016C397.809 267.034 397.667 267.034 397.527 267.016L396.295 267.1L391.535 267.368C387.383 267.585 381.408 267.836 373.999 268.037C359.179 268.488 338.706 268.723 316.106 268.656C293.505 268.589 273.015 268.304 258.213 268.137L240.659 267.886L235.899 267.786H240.659H258.213L316.106 268.053C338.706 268.053 359.162 268.053 373.982 267.702L391.518 267.301L396.278 267.2H397.966L397.949 267.016Z" fill="#263238"/>
<path d="M287.108 174.231H334.368V176.89C334.368 178.869 333.575 180.767 332.163 182.166C330.751 183.565 328.837 184.351 326.84 184.351H294.636C292.64 184.351 290.725 183.565 289.313 182.166C287.902 180.767 287.108 178.869 287.108 176.89V174.231Z" fill="#263238"/>
<path d="M228.051 234.867C226.987 235.971 228.54 218.675 230.937 211.081C231.292 210.164 231.931 209.383 232.761 208.848C233.592 208.313 234.572 208.052 235.562 208.103H278.197C279.253 208.036 280.3 208.332 281.161 208.941C282.022 209.551 282.645 210.437 282.923 211.449C283.901 216.668 286.518 226.704 287.108 234.867H228.051Z" fill="#263238"/>
<path d="M270.669 189.185H244.153C241.095 189.185 238.617 191.641 238.617 194.671V200.325C238.617 203.355 241.095 205.812 244.153 205.812H270.669C273.726 205.812 276.205 203.355 276.205 200.325V194.671C276.205 191.641 273.726 189.185 270.669 189.185Z" fill="#263238"/>
<path d="M330.908 234.248C329.861 235.352 331.752 217.186 334.132 209.592C334.494 208.682 335.135 207.906 335.964 207.375C336.793 206.844 337.77 206.584 338.756 206.631H381.391C382.447 206.564 383.495 206.86 384.356 207.469C385.217 208.079 385.839 208.965 386.117 209.977C387.096 215.212 389.712 226.052 390.303 234.248H330.908Z" fill="#263238"/>
<path d="M110.515 201.339H93.7659V403.515H110.515V201.339Z" fill="#E0E0E0"/>
<path d="M110.515 403.533C110.515 403.533 110.515 403.156 110.515 402.474C110.515 401.793 110.515 400.68 110.515 399.424C110.515 396.715 110.515 392.785 110.515 387.726C110.515 377.57 110.515 362.875 110.357 344.664C110.357 308.276 110.22 257.804 110.141 201.321L110.653 201.787H93.7661L94.2778 201.321C94.2778 293.563 94.1401 372.367 93.9432 403.515L93.7661 403.336L106.205 403.443H109.413H110.515H109.472H106.323L93.7661 403.533H93.5693V403.372C93.3922 372.223 93.2544 293.42 93.2544 201.177V200.711H110.968V201.177C110.968 257.786 110.81 308.384 110.751 344.861C110.751 363.019 110.633 377.66 110.594 387.797C110.594 392.803 110.594 396.769 110.594 399.388C110.594 400.68 110.594 401.667 110.594 402.367C110.594 403.067 110.515 403.533 110.515 403.533Z" fill="#263238"/>
<path d="M150.37 92.984H59.3238C48.8128 92.984 40.292 100.752 40.292 110.334V193.336C40.292 202.919 48.8128 210.687 59.3238 210.687H150.37C160.881 210.687 169.401 202.919 169.401 193.336V110.334C169.401 100.752 160.881 92.984 150.37 92.984Z" fill="#455A64"/>
<path d="M150.212 206.775H59.4614C55.5464 206.766 51.7949 205.343 49.0284 202.817C46.2618 200.292 44.7056 196.87 44.7004 193.301V110.639C44.7108 107.073 46.2693 103.656 49.0353 101.134C51.8013 98.6128 55.5498 97.192 59.4614 97.1825H150.212C154.125 97.1873 157.877 98.6066 160.644 101.129C163.411 103.652 164.968 107.072 164.973 110.639V193.372C164.952 196.931 163.388 200.337 160.623 202.848C157.858 205.359 154.115 206.771 150.212 206.775ZM59.4614 98.905C56.0701 98.9098 52.8193 100.14 50.4213 102.326C48.0233 104.512 46.6738 107.476 46.6686 110.568V193.301C46.6686 196.395 48.0158 199.364 50.4143 201.554C52.8129 203.744 56.0667 204.976 59.4614 204.981H150.212C153.607 204.976 156.86 203.744 159.259 201.554C161.658 199.364 163.005 196.395 163.005 193.301V110.639C163 107.548 161.65 104.584 159.252 102.398C156.854 100.212 153.603 98.9815 150.212 98.9768L59.4614 98.905Z" fill="white"/>
<path d="M123.879 124.383C127.779 125.9 131.105 128.426 133.444 131.65C135.233 134.08 136.412 136.841 136.895 139.734C137.379 142.627 137.156 145.582 136.243 148.388C135.329 151.194 133.747 153.781 131.61 155.965C129.472 158.149 126.833 159.876 123.879 161.022C119.259 162.811 114.273 163.679 109.255 163.57H98.4504V178.354H80.9143V121.836H109.255C114.273 121.726 119.259 122.595 123.879 124.383ZM116.341 148.839C117.274 148.077 118.006 147.132 118.483 146.076C118.961 145.02 119.17 143.879 119.096 142.739C119.166 141.593 118.955 140.448 118.478 139.387C118.002 138.325 117.271 137.374 116.341 136.602C114.002 135.004 111.107 134.233 108.193 134.431H98.4504V150.974H108.193C111.101 151.173 113.992 150.416 116.341 148.839Z" fill="white"/>
<path d="M145.876 265.926C145.933 265.986 146.281 265.947 146.772 265.591C147.416 265.116 147.864 264.426 148.033 263.648C148.196 262.873 148.081 262.065 147.706 261.366C147.4 260.845 147.052 260.672 147.045 260.665C147.038 260.657 147.723 261.943 147.382 263.487C147.042 265.031 145.764 265.776 145.876 265.926Z" fill="#263238"/>
<path d="M148.898 269.314C149.588 269.301 150.254 269.062 150.793 268.633C151.495 268.189 152.1 267.609 152.572 266.929C153.045 266.249 153.376 265.483 153.545 264.674C153.764 263.781 153.756 262.847 153.521 261.957C153.298 261.249 152.952 260.585 152.498 259.995C152.131 259.438 151.669 258.948 151.133 258.547C151.356 259.169 151.685 259.748 152.106 260.259C152.468 260.831 152.742 261.453 152.919 262.105C153.101 262.901 153.09 263.729 152.887 264.521C152.571 266 151.734 267.32 150.526 268.245C149.587 268.972 148.865 269.203 148.898 269.314Z" fill="#263238"/>
<path d="M153.95 271.939C154.84 271.765 155.66 271.336 156.306 270.704C157.15 270.008 157.847 269.154 158.357 268.191C158.867 267.227 159.18 266.173 159.278 265.09C159.375 264.006 159.256 262.914 158.926 261.876C158.596 260.838 158.063 259.875 157.356 259.042C156.831 258.31 156.103 257.743 155.261 257.409C155.178 257.486 156.063 258.079 156.978 259.336C158.219 260.971 158.803 263.005 158.617 265.042C158.431 267.08 157.488 268.976 155.971 270.364C154.836 271.443 153.894 271.834 153.95 271.939Z" fill="#263238"/>
<path d="M114.495 214.169L128.465 243.702L135.967 248.359C136.783 248.643 137.469 249.212 137.899 249.961L140.309 256.129L133.068 257.106L131.59 254.016C130.166 254.528 128.617 254.584 127.159 254.177C125.7 253.77 124.405 252.92 123.452 251.744L102.116 218.644L114.495 214.169Z" fill="#FFBE9D"/>
<path d="M141.286 254.709C141.286 254.709 136.592 265.614 135.194 265.216C133.795 264.819 133.273 263.955 133.602 263.16C133.932 262.365 136.592 256.799 136.592 256.799C136.592 256.799 133.875 262.036 132.943 262.161C132.011 262.285 131.101 261.604 131.352 260.832C131.602 260.059 133.625 255.595 133.625 255.595C133.625 255.595 131.352 260.593 130.567 260.286C129.783 259.98 129.249 260.286 129.374 259.15C129.499 258.015 132.147 253.619 132.147 253.619L139.99 253.187L141.286 254.709Z" fill="#FFBE9D"/>
<path d="M130.837 254.938L139.931 258.878C140.15 258.972 140.25 259.227 140.156 259.445L139.057 261.978C138.962 262.197 138.708 262.297 138.489 262.202L129.395 258.262C129.176 258.168 129.075 257.913 129.17 257.695L130.269 255.162C130.364 254.944 130.618 254.843 130.837 254.938Z" fill="#455A64"/>
<path d="M132.25 251.245C133.034 254.402 133.51 257.628 133.67 260.877C133.67 261.297 133.67 261.797 133.307 262.013C132.943 262.229 132.42 261.615 132.102 261.24C131.522 260.582 129.362 256.89 129.362 256.89C127.863 256.751 126.466 256.068 125.437 254.968C124.409 253.869 123.819 252.431 123.781 250.927" fill="#FFBE9D"/>
<path d="M123.781 250.927C123.739 251.148 123.739 251.375 123.781 251.597C123.833 252.223 123.987 252.837 124.236 253.414C124.627 254.299 125.223 255.077 125.975 255.686C126.958 256.463 128.139 256.951 129.385 257.094L129.214 256.992C129.908 258.128 130.647 259.446 131.488 260.752C131.624 260.945 131.749 261.138 131.908 261.331C132.067 261.524 132.193 261.672 132.363 261.854C132.537 262.063 132.771 262.214 133.034 262.285C133.192 262.3 133.352 262.265 133.489 262.183C133.626 262.101 133.733 261.978 133.795 261.831C133.939 261.388 133.974 260.916 133.898 260.457C133.898 260.036 133.841 259.627 133.807 259.23C133.689 257.82 133.5 256.417 133.238 255.027C133.022 253.834 132.795 252.88 132.613 252.233C132.554 251.885 132.443 251.548 132.283 251.233C132.299 251.583 132.352 251.929 132.443 252.267C132.556 252.937 132.738 253.891 132.909 255.073C133.079 256.254 133.261 257.685 133.375 259.264C133.375 259.662 133.432 260.07 133.454 260.479C133.51 260.859 133.483 261.247 133.375 261.615C133.306 261.752 133.181 261.842 133.113 261.82C132.951 261.751 132.807 261.646 132.693 261.513C132.556 261.365 132.408 261.184 132.272 261.013C132.134 260.842 132.005 260.664 131.886 260.479C131.044 259.196 130.283 257.912 129.612 256.754L129.555 256.651H129.442C128.286 256.529 127.185 256.093 126.259 255.391C125.532 254.825 124.942 254.103 124.531 253.278C124.185 252.528 123.933 251.738 123.781 250.927Z" fill="#EB996E"/>
<path d="M38.3252 396.696L36.8589 402.853C36.8589 402.853 26.7765 415.938 23.6619 415.348C21.6273 414.927 24.128 411.508 27.97 401.58L28.777 397.468L38.3252 396.696Z" fill="#FF725E"/>
<path d="M23.2528 413.371C23.2689 413.436 23.2958 413.497 23.3324 413.553C23.439 413.721 23.588 413.858 23.7643 413.95C24.0388 414.1 24.3506 414.167 24.6623 414.143C25.0722 414.109 25.4651 413.963 25.799 413.723C27.6043 412.272 29.3024 410.693 30.88 408.998C32.4917 407.322 34.0096 405.559 35.4267 403.716C35.9609 403.012 36.3929 402.432 36.6657 402.023L36.9953 401.546C37.0635 401.444 37.0976 401.376 37.0862 401.376L36.9612 401.524L36.6088 401.978L35.3244 403.636C34.1877 405.022 32.6418 406.896 30.7776 408.861C29.2066 410.546 27.5325 412.132 25.7649 413.61C25.5006 413.827 25.1815 413.967 24.8427 414.015C24.5038 414.063 24.1583 414.017 23.8439 413.882C23.6022 413.771 23.3972 413.594 23.2528 413.371Z" fill="#263238"/>
<path d="M24.6851 409.157C24.6851 409.157 25.0033 409.157 25.5035 409.157C26.147 409.262 26.7621 409.498 27.3108 409.85C27.8795 410.169 28.351 410.636 28.6749 411.201C28.9136 411.644 28.9818 411.951 29.0159 411.951C29.0051 411.67 28.9313 411.394 28.7999 411.145C28.4962 410.528 28.0128 410.017 27.4132 409.679C26.8418 409.312 26.191 409.086 25.5149 409.021C25.2313 408.999 24.9468 409.046 24.6851 409.157Z" fill="#263238"/>
<path d="M34.2221 406.067C34.2221 406.067 34.1197 405.624 34.0402 404.931C33.9381 404.003 34.1162 403.065 34.5517 402.239C34.9688 401.404 35.6418 400.723 36.4727 400.297C36.8382 400.129 37.2188 399.996 37.6094 399.899C37.504 399.882 37.3965 399.882 37.2911 399.899C37.0038 399.948 36.7246 400.036 36.4613 400.16C35.5718 400.564 34.8491 401.262 34.4153 402.137C33.9695 403 33.8065 403.982 33.9493 404.943C33.9919 405.228 34.0603 405.51 34.1539 405.783C34.1622 405.881 34.1852 405.976 34.2221 406.067Z" fill="#263238"/>
<path d="M37.6774 397.741C37.3963 398.353 37.2086 399.004 37.1204 399.672C36.9385 400.808 36.7453 401.626 36.7908 401.649C37.0603 401.03 37.2364 400.376 37.3136 399.706C37.4728 398.616 37.7342 397.764 37.6774 397.741Z" fill="#263238"/>
<path d="M27.7882 402.398C27.7882 402.455 28.368 402.398 29.0386 402.603C29.7093 402.807 30.1753 403.012 30.2549 402.966C29.9364 402.677 29.5422 402.484 29.1182 402.41C28.6859 402.273 28.2228 402.269 27.7882 402.398Z" fill="#263238"/>
<path d="M27.5839 403.455C27.5839 403.511 28.0726 403.455 28.6296 403.602C29.1866 403.75 29.5958 403.989 29.6299 403.943C29.3909 403.65 29.0496 403.46 28.6751 403.409C28.3178 403.292 27.9302 403.308 27.5839 403.455Z" fill="#263238"/>
<path d="M26.7768 404.772C27.1548 404.737 27.5354 404.737 27.9134 404.772C28.2569 404.882 28.5883 405.027 28.9023 405.204C28.8007 405.037 28.6635 404.894 28.5004 404.786C28.3374 404.678 28.1524 404.608 27.9589 404.579C27.7599 404.521 27.5504 404.508 27.3459 404.542C27.1413 404.575 26.9468 404.654 26.7768 404.772Z" fill="#263238"/>
<path d="M28.4817 401.955C28.5949 401.971 28.7095 401.971 28.8227 401.955C29.123 401.895 29.4191 401.815 29.7093 401.717C30.1458 401.565 30.5681 401.375 30.971 401.149C31.1984 401.024 31.4257 400.887 31.6644 400.728C31.8026 400.645 31.9197 400.531 32.0064 400.395C32.0932 400.259 32.1474 400.105 32.1646 399.945C32.1505 399.86 32.1185 399.779 32.0705 399.707C32.0226 399.636 31.9599 399.576 31.8867 399.53C31.8134 399.485 31.7314 399.456 31.646 399.445C31.5605 399.435 31.4738 399.442 31.3916 399.468C31.1208 399.559 30.8807 399.725 30.6982 399.945C30.3684 400.26 30.0571 400.593 29.7661 400.944C29.516 401.251 29.3342 401.501 29.2091 401.683C29.1426 401.773 29.089 401.873 29.05 401.978C29.05 401.978 29.3569 401.614 29.8798 401.035C30.1299 400.751 30.4482 400.422 30.8233 400.07C30.9897 399.883 31.2009 399.743 31.4371 399.661C31.6644 399.604 31.9599 399.718 31.9713 399.956C31.9506 400.083 31.9021 400.204 31.8295 400.31C31.7568 400.416 31.6616 400.504 31.5507 400.569C31.3234 400.728 31.0961 400.865 30.8801 401.001C30.49 401.225 30.0834 401.419 29.6638 401.58C28.9477 401.83 28.4817 401.921 28.4817 401.955Z" fill="#263238"/>
<path d="M29.0158 401.83C29.0276 401.728 29.0276 401.625 29.0158 401.524C29.0158 401.319 29.0158 401.035 28.9476 400.683C28.9004 400.265 28.7932 399.855 28.6293 399.468C28.5288 399.234 28.3948 399.016 28.2315 398.82C28.146 398.692 28.0192 398.598 27.8723 398.552C27.7254 398.507 27.5672 398.513 27.4244 398.57C27.3069 398.662 27.2187 398.786 27.1703 398.928C27.1219 399.069 27.1154 399.221 27.1516 399.365C27.1946 399.615 27.2671 399.859 27.3676 400.092C27.55 400.475 27.7959 400.825 28.0951 401.126C28.2891 401.328 28.5023 401.511 28.7316 401.671C28.8907 401.785 28.993 401.842 29.0044 401.83C29.0158 401.819 28.6634 401.546 28.1974 401.035C27.929 400.733 27.7068 400.392 27.5381 400.024C27.4447 399.806 27.3797 399.577 27.3449 399.343C27.3154 399.235 27.3168 399.122 27.349 399.015C27.3812 398.909 27.4427 398.814 27.5267 398.741C27.7086 398.627 27.9359 398.741 28.0951 398.956C28.2435 399.137 28.3695 399.336 28.4702 399.547C28.6301 399.91 28.7447 400.292 28.8112 400.683C28.854 401.07 28.9224 401.453 29.0158 401.83Z" fill="#263238"/>
<g opacity="0.4">
<path d="M36.8587 402.853L37.5635 399.899C37.5635 399.899 35.0968 400.354 34.4603 402.171C34.0772 403.178 33.9107 404.254 33.9715 405.329L28.6064 411.111C28.6064 411.111 27.2537 408.475 24.8212 409.111C24.8212 409.111 22.9002 413.326 22.957 414.382C23.0139 415.438 24.2529 415.313 24.6848 415.12C26.4564 414.085 28.0747 412.808 29.493 411.326C32.3347 408.407 35.4834 404.67 36.8587 402.853Z" fill="black"/>
</g>
<path d="M88.4304 399.808V391.596L73.0284 391.414L72.8351 403.421L73.7899 403.5C78.0298 403.784 95.3869 404.636 98.24 403.829C101.48 402.909 88.4304 399.808 88.4304 399.808Z" fill="#FF725E"/>
<g opacity="0.4">
<path d="M78.4731 403.375C78.263 402.074 77.5788 400.897 76.5521 400.07C75.5409 399.252 74.258 398.847 72.9602 398.934L72.9034 403.228L78.4731 403.375Z" fill="black"/>
</g>
<g opacity="0.4">
<path d="M94.8069 401.524C94.8069 401.524 99.3537 402.898 98.7967 403.648C98.2397 404.397 80.6097 404.17 72.8916 403.387V403.046L93.3519 403.489C93.3519 403.489 93.909 401.58 94.8069 401.524Z" fill="black"/>
</g>
<path d="M72.7097 403.068H72.9711L73.7327 403.125L76.5289 403.284C78.8932 403.398 82.1555 403.511 85.7702 403.557C89.3848 403.602 92.5903 403.557 95.0114 403.557L97.8077 403.477H98.5692H98.842H97.7167H94.9205C92.5562 403.477 89.237 403.477 85.6792 403.477C82.1214 403.477 78.8591 403.33 76.4494 403.25L73.6418 403.148H72.6187L72.7097 403.068Z" fill="#263238"/>
<path d="M93.4092 403.795C93.5396 403.333 93.7226 402.887 93.9547 402.466C94.2398 402.079 94.5635 401.721 94.9209 401.399C94.4367 401.571 94.0323 401.914 93.7842 402.364C93.4916 402.781 93.3585 403.289 93.4092 403.795Z" fill="#263238"/>
<path d="M88.8964 401.399C88.8964 401.399 89.1579 401.16 89.3966 400.808C89.6353 400.456 89.7716 400.149 89.7262 400.126C89.6807 400.104 89.4647 400.354 89.2374 400.706C89.0101 401.058 88.851 401.365 88.8964 401.399Z" fill="#263238"/>
<path d="M87.6574 400.717C87.6574 400.717 87.9416 400.604 88.203 400.365C88.4644 400.126 88.669 399.911 88.6349 399.865C88.6008 399.82 88.3508 399.99 88.0894 400.229C87.8279 400.467 87.6233 400.683 87.6574 400.717Z" fill="#263238"/>
<path d="M86.8958 399.252C87.1498 399.346 87.4212 399.385 87.6915 399.365C88.1348 399.365 88.4985 399.365 88.4985 399.286C88.4985 399.206 88.1461 399.184 87.7028 399.172C87.2595 399.161 86.8958 399.252 86.8958 399.252Z" fill="#263238"/>
<path d="M86.6345 398.23C86.9101 398.38 87.2141 398.472 87.5271 398.499C87.8402 398.527 88.1554 398.489 88.4531 398.389C88.152 398.344 87.8481 398.321 87.5438 398.32C87.2437 398.265 86.9396 398.235 86.6345 398.23Z" fill="#263238"/>
<path d="M89.4422 400.058C89.7695 400.113 90.1038 400.113 90.4312 400.058C90.7901 400.017 91.1441 399.941 91.4883 399.831C91.6991 399.78 91.9017 399.699 92.0907 399.593C92.2095 399.531 92.2994 399.425 92.3408 399.297C92.3592 399.224 92.355 399.147 92.3286 399.076C92.3022 399.005 92.2549 398.943 92.193 398.9C91.8159 398.702 91.381 398.644 90.9651 398.735C90.5492 398.827 90.1789 399.062 89.9196 399.399C89.7673 399.591 89.6551 399.811 89.59 400.047C89.59 400.217 89.59 400.32 89.59 400.32C89.6915 400.015 89.8454 399.731 90.0447 399.479C90.2713 399.223 90.5674 399.037 90.8972 398.945C91.2736 398.827 91.681 398.86 92.0339 399.036C92.1816 399.161 92.1248 399.343 91.9429 399.445C91.7653 399.539 91.5787 399.615 91.3859 399.672C91.0525 399.784 90.7103 399.867 90.363 399.922C89.7605 400.036 89.4422 400.024 89.4422 400.058Z" fill="#263238"/>
<path d="M89.6922 400.115C89.8196 399.908 89.8643 399.661 89.8172 399.422C89.788 399.166 89.6984 398.921 89.5558 398.707C89.4767 398.556 89.3596 398.428 89.2161 398.337C89.0725 398.245 88.9075 398.192 88.7373 398.184C88.6376 398.206 88.5501 398.265 88.493 398.35C88.4358 398.435 88.4135 398.538 88.4304 398.638C88.4483 398.796 88.5027 398.948 88.5895 399.081C88.7157 399.303 88.8726 399.506 89.0556 399.683C89.3625 399.99 89.6012 400.115 89.6126 400.092C89.6239 400.07 89.4194 399.911 89.1466 399.604C88.9919 399.416 88.8548 399.215 88.7373 399.002C88.6123 398.786 88.5213 398.411 88.7373 398.366C88.9533 398.32 89.2375 398.604 89.3852 398.797C89.515 398.995 89.6075 399.214 89.658 399.445C89.6906 399.667 89.7021 399.891 89.6922 400.115Z" fill="#263238"/>
<path d="M73.0393 398.866C73.0393 398.866 73.4826 398.866 74.176 398.866C75.0826 398.979 75.9402 399.341 76.654 399.911C77.3499 400.5 77.8757 401.265 78.1771 402.126C78.3931 402.784 78.4158 403.261 78.4499 403.261C78.4718 403.16 78.4718 403.056 78.4499 402.955C78.4272 402.671 78.3777 402.389 78.3022 402.114C78.0259 401.222 77.492 400.432 76.7677 399.842C76.033 399.249 75.1393 398.885 74.1988 398.797C73.9151 398.773 73.6299 398.773 73.3462 398.797C73.2406 398.801 73.1365 398.824 73.0393 398.866Z" fill="#263238"/>
<path d="M74.7219 392.436C74.6015 393.485 74.5445 394.539 74.5514 395.594C74.4861 396.65 74.4861 397.708 74.5514 398.763C74.6647 397.711 74.7217 396.653 74.7219 395.594C74.7805 394.542 74.7805 393.488 74.7219 392.436Z" fill="#263238"/>
<path d="M80.4281 401.898C81.172 402.079 81.9361 402.163 82.7015 402.148C83.4625 402.198 84.2267 402.149 84.9749 402.001C84.9749 401.944 83.9632 402.001 82.7015 402.001C81.4398 402.001 80.4395 401.842 80.4281 401.898Z" fill="#263238"/>
<path d="M77.4158 401.853C77.4158 401.853 77.4954 402.069 77.5863 402.296C77.6772 402.523 77.7454 402.739 77.8023 402.739C77.8591 402.739 77.8818 402.489 77.8023 402.228C77.7227 401.967 77.4499 401.819 77.4158 401.853Z" fill="#263238"/>
<path d="M76.2906 400.388C76.2906 400.388 76.3588 400.592 76.5066 400.751C76.6544 400.91 76.8249 401.024 76.859 400.978C76.8931 400.933 76.8589 400.785 76.643 400.626C76.427 400.467 76.3247 400.388 76.2906 400.388Z" fill="#263238"/>
<path d="M74.6763 399.763C74.6763 399.763 74.8923 399.763 75.1083 399.899C75.3242 400.036 75.4947 400.104 75.5402 400.07C75.5857 400.036 75.4606 399.82 75.1764 399.718C74.8923 399.615 74.6536 399.706 74.6763 399.763Z" fill="#263238"/>
<path d="M73.5171 399.434C73.5171 399.434 73.5852 399.57 73.7103 399.615C73.8353 399.661 73.9603 399.672 73.9831 399.615C74.0058 399.558 73.9149 399.479 73.7899 399.434C73.6648 399.388 73.5398 399.388 73.5171 399.434Z" fill="#263238"/>
<path d="M24.9693 397.9L52.4089 236.671L94.739 243.112L89.8285 396.696L70.2321 398.366L71.7325 263.16L41.5763 398.514L24.9693 397.9Z" fill="#455A64"/>
<path d="M48.135 248.7L53.7502 201.152L45.2592 214.407L31.6871 202.674L47.6007 181.239C50.497 178.204 54.0679 175.892 58.0242 174.492C60.1251 173.741 62.3299 173.319 64.5601 173.243C69.6945 174.861 75.2029 174.861 80.3373 173.243C81.2353 173.345 82.6106 173.47 84.4066 173.72C87.4514 174.128 90.3834 175.143 93.029 176.704C95.6745 178.265 97.9799 180.34 99.8087 182.807L116.143 214.146L102.15 219.439L94.739 206.149L96.1145 250.268L82.9403 253.153L72.8919 245.894L59.0244 253.153L48.135 248.7Z" fill="#263238"/>
<path d="M94.0116 189.509C93.8639 189.509 94.0117 196.858 94.3413 205.9C94.671 214.941 95.0801 222.279 95.2393 222.268C95.3984 222.256 95.2393 214.93 94.8983 205.877C94.5573 196.824 94.1594 189.509 94.0116 189.509Z" fill="#455A64"/>
<path d="M54.7051 192.405C54.1363 195.541 53.7567 198.708 53.5684 201.89C53.1702 205.052 52.954 208.234 52.9205 211.42C53.5016 208.284 53.9001 205.117 54.114 201.935C54.4929 198.772 54.6902 195.591 54.7051 192.405Z" fill="#455A64"/>
<path d="M76.7451 133.145C74.5913 132.545 72.3658 132.239 70.1296 132.237C69.0088 132.239 67.8999 132.466 66.8689 132.905C65.8378 133.344 64.9056 133.986 64.128 134.792C63.3844 135.95 62.5318 137.034 61.5818 138.03C60.2291 139.098 58.0808 139.45 57.6261 141.108C57.1714 142.766 58.9674 144.391 58.8423 146.151C58.6481 147.143 58.193 148.064 57.5238 148.821C57.1927 149.2 56.9546 149.651 56.8283 150.138C56.702 150.625 56.6911 151.134 56.7963 151.626C57.0805 152.388 57.8421 152.876 58.2172 153.603C58.7969 154.739 58.3309 156.068 58.5127 157.306C58.7175 158.205 59.175 159.027 59.8315 159.675C60.488 160.323 61.3161 160.77 62.2183 160.964C64.0314 161.316 65.8954 161.316 67.7085 160.964" fill="#263238"/>
<path d="M78.3936 133.918C79.8772 133.528 81.4264 133.454 82.9403 133.702C83.6915 133.842 84.3853 134.198 84.9366 134.727C85.4879 135.256 85.8726 135.934 86.0435 136.678C86.1799 137.61 85.8843 138.655 86.4072 139.438C86.9301 140.222 88.3169 140.37 88.9989 141.188C90.4425 142.914 87.6576 145.924 89.1125 147.651C89.499 148.117 90.1128 148.344 90.5448 148.787C90.8778 149.187 91.0676 149.688 91.084 150.208C91.1005 150.729 90.9428 151.24 90.6357 151.661C90.3129 152.072 89.9028 152.406 89.435 152.64C88.9672 152.874 88.4533 153.001 87.9304 153.012C86.8852 153.026 85.8482 152.825 84.8841 152.422C81.4921 151.306 78.6489 148.948 76.9273 145.822C76.1114 144.257 75.7583 142.492 75.9093 140.734C76.0602 138.976 76.7091 137.297 77.7798 135.894" fill="#263238"/>
<path d="M64.3668 145.629L63.9576 175.48L78.9277 175.787C79.1891 174.06 79.7461 167.347 79.7461 167.347C79.7461 167.347 86.0206 167.007 86.714 160.839C87.055 157.84 87.2483 151.604 87.3506 145.97C87.4096 142.968 86.2897 140.062 84.2309 137.875C82.1721 135.688 79.3381 134.394 76.3361 134.27C74.7981 134.208 73.2633 134.454 71.8224 134.995C70.3816 135.537 69.0641 136.361 67.948 137.42C66.8319 138.48 65.9397 139.752 65.3246 141.162C64.7095 142.572 64.3838 144.091 64.3668 145.629Z" fill="#FFBE9D"/>
<path d="M79.7576 167.29C76.9011 167.062 74.178 165.986 71.9372 164.201C71.9372 164.201 73.3921 168.835 79.6098 168.892L79.7576 167.29Z" fill="#EB996E"/>
<path d="M84.5427 149.605C84.5224 149.836 84.4123 150.05 84.2359 150.2C84.0594 150.351 83.8309 150.427 83.5993 150.411C83.4864 150.408 83.3751 150.383 83.272 150.337C83.1689 150.29 83.0761 150.224 82.9989 150.142C82.9217 150.059 82.8617 149.962 82.8223 149.856C82.7829 149.75 82.7649 149.638 82.7695 149.525C82.7925 149.295 82.9036 149.083 83.0793 148.933C83.2551 148.782 83.482 148.706 83.713 148.719C83.8264 148.72 83.9384 148.744 84.0422 148.79C84.146 148.836 84.2394 148.902 84.317 148.985C84.3945 149.067 84.4544 149.165 84.4932 149.272C84.532 149.378 84.5489 149.491 84.5427 149.605Z" fill="#263238"/>
<path d="M85.7252 148.991C85.6001 149.093 84.9863 148.525 84.0315 148.435C83.0767 148.344 82.3378 148.753 82.2469 148.628C82.156 148.503 82.3378 148.366 82.6561 148.185C83.0959 147.942 83.5996 147.839 84.0997 147.889C84.5926 147.939 85.0576 148.142 85.4296 148.469C85.7024 148.719 85.782 148.946 85.7252 148.991Z" fill="#263238"/>
<path d="M74.9834 149.037C74.9631 149.268 74.853 149.482 74.6766 149.632C74.5002 149.783 74.2716 149.859 74.04 149.843C73.9265 149.842 73.8146 149.817 73.7108 149.772C73.607 149.726 73.5135 149.66 73.436 149.577C73.3584 149.494 73.2985 149.397 73.2597 149.29C73.2209 149.184 73.2041 149.07 73.2102 148.957C73.2333 148.727 73.3442 148.515 73.52 148.365C73.6957 148.214 73.9228 148.138 74.1537 148.151C74.2666 148.154 74.3779 148.179 74.4809 148.225C74.584 148.271 74.6769 148.338 74.7541 148.42C74.8313 148.503 74.8913 148.6 74.9307 148.705C74.9701 148.811 74.988 148.924 74.9834 149.037Z" fill="#263238"/>
<path d="M76.3703 148.219C76.2453 148.321 75.6315 147.764 74.6767 147.674C73.7219 147.583 72.983 147.98 72.8921 147.855C72.8011 147.73 72.9831 147.605 73.3127 147.412C73.748 147.168 74.2484 147.065 74.7449 147.117C75.2404 147.17 75.7083 147.372 76.0862 147.696C76.3476 147.969 76.4272 148.219 76.3703 148.219Z" fill="#263238"/>
<path d="M79.1097 155.613C79.6246 155.502 80.1522 155.46 80.6783 155.489C80.9284 155.489 81.1557 155.489 81.2125 155.307C81.2609 155.057 81.2291 154.799 81.1216 154.568C80.9625 153.955 80.7806 153.319 80.5987 152.649C80.0799 151.022 79.6997 149.353 79.462 147.662C80.0902 149.25 80.5994 150.883 80.9852 152.547C81.1557 153.217 81.3262 153.864 81.4853 154.478C81.5993 154.785 81.5993 155.124 81.4853 155.432C81.4443 155.516 81.3836 155.588 81.3084 155.644C81.2332 155.699 81.1457 155.735 81.0534 155.75C80.9175 155.766 80.7801 155.766 80.6442 155.75C80.1289 155.771 79.6131 155.725 79.1097 155.613Z" fill="#263238"/>
<path d="M76.245 155.988C76.4041 155.988 76.245 157.022 77.1088 157.84C77.9727 158.658 79.0298 158.658 79.0185 158.805C79.0071 158.953 78.757 158.987 78.291 158.953C77.6863 158.895 77.1202 158.63 76.6883 158.203C76.2791 157.791 76.0432 157.239 76.029 156.658C76.0403 156.17 76.1199 155.977 76.245 155.988Z" fill="#263238"/>
<path d="M76.9842 144.538C76.8705 144.788 75.9385 144.538 74.8018 144.538C73.6651 144.538 72.7443 144.777 72.6193 144.538C72.4943 144.3 72.7443 144.186 73.1308 143.971C73.6471 143.715 74.2143 143.579 74.7904 143.573C75.3696 143.56 75.9432 143.689 76.4613 143.948C76.8591 144.198 77.041 144.414 76.9842 144.538Z" fill="#263238"/>
<path d="M85.6454 146.208C85.4635 146.401 84.8269 146.117 84.0426 146.027C83.2583 145.936 82.5763 146.027 82.4399 145.788C82.3035 145.549 82.5195 145.459 82.8264 145.288C83.2427 145.086 83.7091 145.011 84.1677 145.072C84.6264 145.132 85.0571 145.326 85.4067 145.629C85.6681 145.879 85.7363 146.106 85.6454 146.208Z" fill="#263238"/>
<path d="M65.9922 150.491C65.8899 150.491 61.866 148.809 61.5818 153.046C61.2977 157.283 65.6057 156.693 65.6171 156.579C65.6284 156.465 65.9922 150.491 65.9922 150.491Z" fill="#FFBE9D"/>
<path d="M64.4348 154.864C64.4348 154.864 64.3552 154.864 64.2302 154.955C64.0506 155.022 63.8528 155.022 63.6732 154.955C63.412 154.76 63.2071 154.5 63.0793 154.201C62.9515 153.902 62.9054 153.574 62.9457 153.251C62.9565 152.89 63.0498 152.536 63.2186 152.217C63.3777 151.91 63.5823 151.706 63.821 151.683C63.908 151.667 63.998 151.682 64.0749 151.726C64.1519 151.769 64.2109 151.839 64.2416 151.922C64.2416 152.035 64.2416 152.126 64.2416 152.126C64.2416 152.126 64.3325 152.126 64.3212 151.888C64.2968 151.783 64.2413 151.688 64.162 151.615C64.1091 151.566 64.0464 151.528 63.9778 151.504C63.9092 151.481 63.8364 151.472 63.7642 151.479C63.5885 151.503 63.4216 151.571 63.2788 151.676C63.1359 151.781 63.0214 151.92 62.9457 152.081C62.7485 152.428 62.6356 152.818 62.6161 153.217C62.567 153.594 62.6316 153.977 62.8017 154.317C62.9718 154.657 63.2397 154.938 63.571 155.125C63.6824 155.166 63.8017 155.181 63.9198 155.169C64.0379 155.158 64.1519 155.119 64.253 155.057C64.4235 154.966 64.4462 154.864 64.4348 154.864Z" fill="#EB996E"/>
<path d="M80.3599 134.588C79.8667 133.933 79.2534 133.378 78.5526 132.952C77.7338 132.479 76.8145 132.207 75.87 132.157C73.9595 131.978 72.0323 132.155 70.1866 132.68C68.3434 133.205 66.7776 134.427 65.8217 136.087C65.1397 137.405 64.9465 139.018 63.8893 140.074C63.0368 140.915 61.6956 141.313 61.2068 142.414C60.3429 144.368 62.9345 146.606 62.0934 148.571C61.8931 148.891 61.7543 149.245 61.6842 149.616C61.6911 149.844 61.7664 150.064 61.9002 150.248C62.034 150.432 62.2201 150.572 62.4344 150.65C62.8609 150.8 63.3127 150.866 63.7643 150.843C65.3557 150.843 67.2994 150.65 67.9701 149.196C68.6407 147.742 67.7655 146.083 68.6748 144.936C69.5842 143.789 70.789 144.334 71.8803 143.698C72.3441 143.432 72.772 143.107 73.1533 142.732C73.8755 142.695 74.5899 142.565 75.2789 142.346C76.1569 142.096 76.9054 141.518 77.3704 140.733C77.8478 139.859 77.8478 138.723 78.5071 138.018C79.1664 137.314 80.6327 137.189 80.9851 136.201C81.0675 135.901 81.0512 135.582 80.9386 135.291C80.8261 135.001 80.6232 134.755 80.3599 134.588Z" fill="#263238"/>
<path d="M116.109 212.658L117.427 215.237C117.595 215.567 117.695 215.928 117.722 216.298C117.749 216.668 117.703 217.039 117.586 217.391C117.468 217.743 117.282 218.068 117.039 218.347C116.795 218.627 116.498 218.855 116.165 219.019L107.004 223.495C106.362 223.816 105.62 223.878 104.934 223.666C104.248 223.455 103.67 222.986 103.321 222.359L101.298 218.633L116.109 212.658Z" fill="#263238"/>
<path d="M22.5595 176.775L30.9141 178.888L31.3802 176.73C31.6787 175.675 31.6105 174.549 31.1869 173.538C31.1226 173.359 31.0843 173.171 31.0733 172.981C31.6629 171.319 32.3733 169.701 33.1989 168.142C33.8581 166.802 33.1989 165.871 32.7669 166.427C32.0167 167.393 29.6979 171.686 29.1523 172.016C28.6067 172.345 29.2887 170.051 29.2887 170.051C30.9141 165.166 31.3574 164.485 30.5049 164.144C29.6524 163.803 27.0949 171.016 27.0949 171.016C27.0949 171.016 27.4359 169.994 26.6743 169.642C25.9127 169.29 25.3558 170.255 25.3558 170.255C25.549 169.744 24.7988 169.528 24.7988 169.528C22.8664 169.46 22.5254 176.832 22.5254 176.832L30.9141 178.888L30.0048 207.853L33.0511 204.593L43.2812 212.999L33.0511 222.347C31.9859 223.248 30.7275 223.892 29.3733 224.229C28.0192 224.566 26.6056 224.586 25.2421 224.29C23.006 223.825 21.0267 222.536 19.6978 220.68C18.3689 218.824 17.7877 216.536 18.0696 214.271L22.5595 176.775Z" fill="#FFBE9D"/>
<path d="M29.1752 178.013C29.1752 178.013 28.8456 177.502 28.3795 176.662C28.1016 176.166 27.8622 175.649 27.6634 175.117C27.5497 174.821 27.4474 174.503 27.3565 174.174C27.2401 173.866 27.2011 173.535 27.2428 173.208C27.2574 173.133 27.2944 173.063 27.3491 173.008C27.4038 172.953 27.4738 172.916 27.5498 172.902C27.7187 172.9 27.8832 172.956 28.0158 173.061C28.3212 173.277 28.6031 173.524 28.8569 173.799C29.2623 174.238 29.5926 174.741 29.8345 175.287L29.9027 175.458L30.005 175.321C30.2363 175.029 30.5171 174.779 30.8347 174.583C30.8347 174.583 30.3573 174.583 29.8458 175.196H30.0163C29.8089 174.603 29.4885 174.055 29.0729 173.583C28.8127 173.281 28.5147 173.014 28.1863 172.788C27.9955 172.63 27.752 172.549 27.5042 172.561C27.3674 172.584 27.2406 172.647 27.1395 172.742C27.0383 172.837 26.9675 172.96 26.9359 173.095C26.8764 173.478 26.9196 173.87 27.061 174.231C27.3253 175.118 27.7076 175.967 28.1977 176.752C28.4476 177.226 28.7784 177.653 29.1752 178.013Z" fill="#EB996E"/>
<path d="M26.8902 171.425C26.7445 171.933 26.6531 172.454 26.6174 172.981C26.5606 173.504 26.4924 174.117 26.4128 174.674C26.3961 174.999 26.3505 175.322 26.2764 175.639C26.1969 175.935 25.8899 176.139 25.6967 175.98C25.5035 175.821 25.4466 175.435 25.4125 175.105C25.3784 174.776 25.4125 174.424 25.4125 174.106C25.4125 173.47 25.4125 172.89 25.4125 172.402C25.4392 171.878 25.4087 171.352 25.3216 170.834C25.2296 171.352 25.184 171.876 25.1852 172.402C25.1852 172.89 25.1852 173.47 25.1852 174.117C25.1852 174.435 25.1852 174.776 25.1852 175.128C25.1723 175.335 25.2019 175.543 25.2723 175.738C25.3426 175.934 25.4523 176.113 25.5944 176.264C25.6965 176.334 25.8173 176.371 25.9411 176.371C26.0648 176.371 26.1856 176.334 26.2877 176.264C26.4673 176.139 26.5963 175.953 26.6515 175.742C26.7275 175.406 26.7731 175.063 26.7879 174.719C26.8333 174.106 26.8788 173.538 26.9243 173.015C26.9682 172.486 26.9568 171.953 26.8902 171.425Z" fill="#EB996E"/>
<path d="M25.0944 173.311C25.0376 173.311 25.0944 173.674 24.9694 174.219C24.9104 174.521 24.7687 174.8 24.5602 175.026C24.4352 175.105 24.367 175.094 24.2874 174.958C24.2118 174.774 24.1509 174.584 24.1055 174.39C23.8919 173.364 23.7589 172.324 23.7077 171.277C23.4369 172.328 23.4645 173.433 23.7873 174.469C23.8375 174.693 23.9138 174.911 24.0146 175.117C24.049 175.182 24.0974 175.24 24.1563 175.285C24.2152 175.33 24.2832 175.362 24.3556 175.378C24.4959 175.389 24.6347 175.344 24.7421 175.253C24.8906 175.111 25.0036 174.936 25.0717 174.742C25.1266 174.587 25.1684 174.427 25.1968 174.265C25.2763 173.651 25.1285 173.299 25.0944 173.311Z" fill="#EB996E"/>
<path d="M31.6868 201.913L46.3955 214.169L46.1682 214.419C45.3484 215.315 44.2102 215.855 42.9971 215.923C41.7841 215.991 40.5926 215.581 39.6777 214.782L31.5391 207.672C30.8641 207.081 30.4348 206.259 30.336 205.367C30.2371 204.476 30.4757 203.58 31.0048 202.855L31.6868 201.913Z" fill="#263238"/>
<path d="M81.2693 173.617L80.2576 169.176C80.2576 169.176 74.8015 169.528 73.051 174.572C72.2638 172.867 71.0518 171.394 69.5312 170.292C68.0106 169.19 66.2323 168.497 64.3667 168.279L63.0368 173.958L73.5625 178.354L81.2693 173.629" fill="#263238"/>
<path d="M102.127 219.212C104.31 218.3 106.442 217.272 108.516 216.134C110.682 215.185 112.796 214.119 114.847 212.942C110.318 214.386 106.03 216.499 102.127 219.212Z" fill="#455A64"/>
<path d="M32.5625 201.742C32.9007 202.53 33.3568 203.261 33.9151 203.912C35.1544 205.551 36.5433 207.072 38.0641 208.455C39.5842 209.845 41.2321 211.089 42.9859 212.17C43.6889 212.649 44.4536 213.031 45.2592 213.306C45.3615 213.135 41.9628 211.216 38.4391 207.99C34.9154 204.764 32.7102 201.606 32.5625 201.742Z" fill="#455A64"/>
<path d="M73.0509 174.572C73.0189 174.805 73.0189 175.042 73.0509 175.276C73.0509 175.798 73.0509 176.412 72.9827 177.286C72.9827 179.115 72.9145 181.625 72.869 184.692C72.869 191.019 72.7781 199.629 72.7099 209.137C72.6417 218.644 72.7099 227.311 72.7099 233.581C72.7099 236.66 72.7099 239.17 72.7781 240.999C72.7781 241.817 72.778 242.487 72.8349 243.009C72.7475 243.024 72.6687 243.07 72.6142 243.14C72.5596 243.21 72.5334 243.297 72.5405 243.385C72.5477 243.473 72.5878 243.556 72.6528 243.616C72.7179 243.676 72.8032 243.709 72.8917 243.709C72.9802 243.709 73.0656 243.676 73.1306 243.616C73.1957 243.556 73.2358 243.473 73.243 243.385C73.2501 243.297 73.2238 243.21 73.1693 243.14C73.1147 243.07 73.036 243.024 72.9486 243.009C72.9486 242.487 72.9486 241.817 73.0168 240.987C73.0168 239.17 73.085 236.648 73.1304 233.581C73.1304 227.254 73.2214 218.656 73.2782 209.137C73.335 199.618 73.2782 191.019 73.2782 184.692C73.2782 181.625 73.2214 179.115 73.1986 177.286C73.1986 176.469 73.1986 175.798 73.1986 175.276C73.1744 175.037 73.1248 174.8 73.0509 174.572Z" fill="#455A64"/>
<path d="M74.1194 172.89C74.1194 172.89 74.2899 172.811 74.5514 172.89C74.8128 172.97 75.0515 173.243 75.3129 173.731C75.9937 174.93 76.3831 176.273 76.4496 177.65V178.331L76.9271 177.843C79.2005 175.458 81.3715 173.811 81.2692 173.674C79.4628 174.628 77.845 175.902 76.4951 177.434L77.0067 177.627C76.9341 176.156 76.4583 174.734 75.6312 173.515C75.3357 173.072 74.9265 172.663 74.4946 172.675C74.0626 172.686 74.0853 172.879 74.1194 172.89Z" fill="#455A64"/>
<path d="M64.2302 168.381C63.6047 170.115 63.122 171.896 62.7867 173.708V173.879L62.9344 173.992C63.8779 174.64 64.9463 175.321 66.0944 176.003C67.2424 176.684 68.47 177.332 69.5044 177.843L69.9023 178.036V177.604C69.897 176.355 70.2651 175.133 70.9594 174.094C71.4709 173.333 71.8915 172.959 71.846 172.959C71.8005 172.959 71.3231 173.197 70.7093 173.947C69.8712 174.997 69.4038 176.295 69.3794 177.638L69.7658 177.4C68.7315 176.855 67.5834 176.264 66.3558 175.526C65.1282 174.787 64.1507 174.185 63.2072 173.572L63.3209 173.856C63.7664 172.057 64.0704 170.227 64.2302 168.381Z" fill="#455A64"/>
<path d="M71.3235 187.146C71.3235 187.146 71.3803 187.373 71.3235 187.612C71.2666 187.85 71.0506 188.021 70.7892 187.85C70.5278 187.68 70.596 187.43 70.7892 187.26C70.9824 187.089 71.1757 187.146 71.2098 187.066C71.2439 186.987 71.0506 186.76 70.6187 186.885C70.4894 186.923 70.3718 186.993 70.2765 187.088C70.1812 187.183 70.1112 187.301 70.0731 187.43C70.0323 187.602 70.0466 187.782 70.1139 187.945C70.1812 188.108 70.2982 188.246 70.4482 188.339C70.5895 188.444 70.7609 188.501 70.937 188.501C71.1131 188.501 71.2845 188.444 71.4257 188.339C71.5292 188.254 71.611 188.146 71.6644 188.024C71.7178 187.901 71.7412 187.768 71.7327 187.634C71.6758 187.169 71.3462 187.066 71.3235 187.146Z" fill="#455A64"/>
<path d="M70.9028 206.524C70.9028 206.524 70.9596 206.751 70.9028 206.99C70.8459 207.229 70.63 207.399 70.3685 207.229C70.1071 207.058 70.1753 206.808 70.3685 206.638C70.5618 206.468 70.755 206.513 70.7891 206.445C70.8232 206.377 70.63 206.127 70.198 206.263C70.0678 206.299 69.9491 206.368 69.8535 206.464C69.7579 206.56 69.6886 206.678 69.6524 206.808C69.6116 206.98 69.6259 207.16 69.6932 207.323C69.7605 207.486 69.8775 207.624 70.0276 207.717C70.1688 207.822 70.3402 207.879 70.5163 207.879C70.6924 207.879 70.8638 207.822 71.0051 207.717C71.1086 207.632 71.1904 207.524 71.2437 207.402C71.2971 207.279 71.3205 207.146 71.312 207.013C71.2552 206.547 70.9255 206.445 70.9028 206.524Z" fill="#455A64"/>
<path d="M70.8005 228.004C70.7437 228.072 70.8005 228.243 70.8005 228.47C70.8005 228.697 70.539 228.89 70.2662 228.708C69.9934 228.527 70.0844 228.288 70.2662 228.129C70.4481 227.97 70.6413 228.004 70.6868 227.936C70.7323 227.868 70.5277 227.618 70.0844 227.743C69.9564 227.785 69.8407 227.857 69.7475 227.954C69.6543 228.051 69.5865 228.17 69.5501 228.299C69.5149 228.47 69.5317 228.648 69.5982 228.809C69.6647 228.97 69.7779 229.108 69.9234 229.204C70.0688 229.301 70.2397 229.352 70.4142 229.35C70.5887 229.349 70.7589 229.296 70.9028 229.197C71.0081 229.112 71.0905 229.002 71.1421 228.877C71.1938 228.752 71.2131 228.616 71.1983 228.481C71.1528 228.038 70.8232 227.936 70.8005 228.004Z" fill="#455A64"/>
<path d="M106.401 211.829C106.56 211.829 106.867 211 107.095 209.909C107.322 208.819 107.356 207.899 107.197 207.865C107.038 207.831 106.731 208.694 106.515 209.796C106.299 210.898 106.242 211.829 106.401 211.829Z" fill="#F5F5F5"/>
<path d="M102.093 199.709C102.093 199.868 102.957 200.197 104.094 200.447C105.23 200.697 106.197 200.777 106.231 200.618C106.265 200.459 105.367 200.118 104.23 199.868C103.093 199.618 102.127 199.55 102.093 199.709Z" fill="#F5F5F5"/>
<path d="M99.1036 206.615C98.9785 206.729 99.3537 207.319 99.922 207.921C100.49 208.524 101.059 208.944 101.172 208.83C101.286 208.717 100.922 208.137 100.354 207.524C99.7856 206.911 99.2172 206.502 99.1036 206.615Z" fill="#F5F5F5"/>
<path d="M98.4332 193.462C98.868 191.856 98.9186 190.171 98.581 188.543C98.1318 190.146 98.081 191.834 98.4332 193.462Z" fill="#F5F5F5"/>
<path d="M89.7605 182.455C91.3246 182.841 92.9591 182.841 94.5232 182.455C93.7604 182.176 92.9431 182.079 92.1362 182.171C91.333 182.075 90.5184 182.172 89.7605 182.455Z" fill="#F5F5F5"/>
<path d="M83.5991 182.171C83.6026 181.319 83.4162 180.477 83.0534 179.706C82.5874 178.4 82.0986 177.434 81.9167 177.434C81.9132 178.286 82.0996 179.128 82.4624 179.899C82.9398 181.217 83.4399 182.228 83.5991 182.171Z" fill="#F5F5F5"/>
<path d="M85.9066 195.836C86.0431 195.915 86.6569 195.052 87.2593 193.905C87.8617 192.757 88.2369 191.769 88.0891 191.69C87.9414 191.61 87.3389 192.485 86.7365 193.632C86.134 194.779 85.7589 195.756 85.9066 195.836Z" fill="#F5F5F5"/>
<path d="M77.6429 191.088C77.8021 191.088 77.8362 190.258 77.6429 189.304C77.4497 188.35 77.2792 187.578 77.1087 187.589C76.9382 187.6 76.9268 188.418 77.1087 189.384C77.2905 190.349 77.4838 191.11 77.6429 191.088Z" fill="#F5F5F5"/>
<path d="M78.6091 199.334C78.6091 199.504 79.348 199.732 80.3141 199.857C81.2803 199.982 82.0874 199.947 82.0987 199.788C82.1101 199.629 81.3599 199.391 80.3937 199.266C79.4275 199.141 78.6319 199.186 78.6091 199.334Z" fill="#F5F5F5"/>
<path d="M89.7603 209.966C89.9308 209.966 90.1354 209.171 90.2263 208.16C90.3173 207.149 90.2263 206.331 90.0899 206.308C89.9535 206.286 89.7262 207.104 89.6353 208.115C89.5444 209.126 89.5671 209.943 89.7603 209.966Z" fill="#F5F5F5"/>
<path d="M80.5417 213.113C80.4167 213.215 80.985 214.123 81.8148 215.134C82.6446 216.145 83.4175 216.872 83.5426 216.77C83.6676 216.668 83.0992 215.759 82.2694 214.76C81.4396 213.76 80.6667 212.965 80.5417 213.113Z" fill="#F5F5F5"/>
<path d="M88.6235 225.176C88.7712 225.244 89.2486 224.471 89.6806 223.472C90.1125 222.472 90.3513 221.586 90.2035 221.518C90.0557 221.45 89.5783 222.222 89.135 223.233C88.6917 224.244 88.4302 225.108 88.6235 225.176Z" fill="#F5F5F5"/>
<path d="M78.1435 226.459C77.9843 226.459 78.0298 227.436 78.2571 228.572C78.4844 229.708 78.7913 230.617 78.9505 230.583C79.1096 230.549 79.0642 229.606 78.8368 228.459C78.6095 227.311 78.3026 226.425 78.1435 226.459Z" fill="#F5F5F5"/>
<path d="M88.021 241.601C88.146 241.703 88.8736 241.056 89.6465 240.158C90.4195 239.261 90.9423 238.443 90.7832 238.341C90.6241 238.239 89.9306 238.875 89.1577 239.772C88.3847 240.669 87.896 241.487 88.021 241.601Z" fill="#F5F5F5"/>
<path d="M87.4867 247.371C87.4867 247.53 88.362 247.803 89.4986 247.985C90.6353 248.166 91.5788 248.178 91.6129 247.985C91.647 247.791 90.7262 247.542 89.5895 247.36C88.4528 247.178 87.4867 247.201 87.4867 247.371Z" fill="#F5F5F5"/>
<path d="M75.7678 239.613C75.6541 239.727 76.4839 240.681 77.6206 241.737C78.7572 242.793 79.7689 243.566 79.8939 243.441C80.019 243.316 79.1778 242.373 78.0411 241.306C76.9044 240.238 75.8814 239.488 75.7678 239.613Z" fill="#F5F5F5"/>
<path d="M85.3159 231.219C85.1454 231.219 85.0885 231.787 85.1908 232.445C85.2931 233.104 85.4864 233.581 85.6455 233.581C85.8047 233.581 85.8615 233.013 85.7706 232.355C85.6796 231.696 85.4751 231.196 85.3159 231.219Z" fill="#F5F5F5"/>
<path d="M75.9154 206.468C75.9154 206.627 76.711 206.547 77.5863 206.274C78.4615 206.002 79.1322 205.672 79.0867 205.525C79.0412 205.377 78.291 205.445 77.4158 205.706C76.5405 205.968 75.8699 206.32 75.9154 206.468Z" fill="#F5F5F5"/>
<path d="M67.9928 200.47C68.1496 199.667 68.1146 198.838 67.8905 198.051C67.6745 196.733 67.3677 195.688 67.1971 195.711C67.0409 196.518 67.0798 197.352 67.3108 198.141C67.5268 199.425 67.8336 200.47 67.9928 200.47Z" fill="#F5F5F5"/>
<path d="M58.3991 205.945C58.5241 206.059 59.263 205.366 60.0701 204.412C60.8771 203.457 61.4113 202.594 61.2863 202.481C61.1613 202.367 60.411 203.071 59.6154 204.025C58.8197 204.979 58.2627 205.843 58.3991 205.945Z" fill="#F5F5F5"/>
<path d="M64.3211 210.591C64.3288 211.387 64.5359 212.168 64.9236 212.863C65.401 213.999 65.9125 214.953 66.0603 214.896C66.0527 214.1 65.8455 213.319 65.4578 212.624C64.9918 211.443 64.4689 210.534 64.3211 210.591Z" fill="#F5F5F5"/>
<path d="M63.5369 223.461C63.6506 223.574 64.4917 222.904 65.4011 221.973C66.3104 221.041 66.947 220.201 66.8333 220.087C66.7196 219.973 65.8785 220.632 64.9691 221.564C64.0598 222.495 63.4232 223.347 63.5369 223.461Z" fill="#F5F5F5"/>
<path d="M56.2507 224.074C56.4098 224.074 56.3302 223.052 56.0574 221.87C55.7846 220.689 55.455 219.758 55.2959 219.792C55.1367 219.826 55.2163 220.814 55.4778 221.995C55.7392 223.177 56.0916 224.108 56.2507 224.074Z" fill="#F5F5F5"/>
<path d="M63.1962 235.49C63.3212 235.592 64.0259 234.956 64.9012 234.195C65.7764 233.434 66.4926 232.798 66.4016 232.661C66.3107 232.525 65.4127 232.945 64.5034 233.797C63.594 234.649 63.0711 235.387 63.1962 235.49Z" fill="#F5F5F5"/>
<path d="M62.7301 242.498C62.6278 242.612 63.3212 243.373 64.401 244.009C65.4809 244.645 66.4925 244.861 66.5494 244.713C66.6062 244.566 65.731 244.1 64.708 243.498C63.6849 242.896 62.8437 242.35 62.7301 242.498Z" fill="#F5F5F5"/>
<path d="M53.3863 243.907C53.2158 243.907 53.0567 244.781 53.0112 245.883C52.9657 246.985 53.0112 247.871 53.2272 247.871C53.4432 247.871 53.5568 246.996 53.6023 245.906C53.6478 244.815 53.5227 243.918 53.3863 243.907Z" fill="#F5F5F5"/>
<path d="M56.7964 235.501C57.062 234.463 57.139 233.386 57.0237 232.321C57.0975 231.255 56.9742 230.184 56.66 229.163C56.3947 230.197 56.3177 231.27 56.4326 232.332C56.3515 233.402 56.4749 234.477 56.7964 235.501Z" fill="#F5F5F5"/>
<path d="M54.7957 211.545C54.7275 211.693 55.3299 212.136 56.2052 212.317C57.0804 212.499 57.8193 212.317 57.8193 212.181C57.8193 212.045 57.1373 211.909 56.3303 211.738C55.5232 211.568 54.8753 211.397 54.7957 211.545Z" fill="#F5F5F5"/>
<path d="M58.0582 187.282C57.8882 189.005 58.1218 190.743 58.7402 192.36C58.9352 191.511 58.9352 190.63 58.7402 189.781C58.7127 188.906 58.479 188.05 58.0582 187.282Z" fill="#F5F5F5"/>
<path d="M65.4121 184.408C65.2529 184.408 64.8665 185.135 64.5482 186.146C64.2299 187.157 64.1049 187.998 64.264 188.055C64.4232 188.111 64.7983 187.328 65.1165 186.317C65.4348 185.306 65.5712 184.465 65.4121 184.408Z" fill="#F5F5F5"/>
<path d="M62.116 178.206C62.0478 178.343 62.9458 178.922 64.1961 179.342C64.9379 179.661 65.7616 179.737 66.5491 179.558C66.5491 179.388 65.5715 179.127 64.3666 178.774C63.1617 178.422 62.1842 178.047 62.116 178.206Z" fill="#F5F5F5"/>
<path d="M56.7056 181.092C56.8533 181.035 56.7056 180.137 56.2623 179.081C55.819 178.025 55.4325 177.218 55.2733 177.286C55.1142 177.355 55.2733 178.241 55.7167 179.286C56.16 180.331 56.5464 181.16 56.7056 181.092Z" fill="#F5F5F5"/>
<path d="M45.7364 187.407C45.8273 187.544 46.7707 186.976 47.8279 186.146C48.885 185.317 49.6466 184.533 49.5443 184.408C49.442 184.284 48.5099 184.851 47.4528 185.681C46.3957 186.51 45.6341 187.282 45.7364 187.407Z" fill="#F5F5F5"/>
<path d="M49.5446 194.257C49.8687 193.454 49.9973 192.586 49.9197 191.724C50.0469 190.87 49.9729 189.999 49.7038 189.179C49.2574 190.836 49.2029 192.575 49.5446 194.257Z" fill="#F5F5F5"/>
<path d="M45.7589 202.56C45.7589 202.719 46.6342 202.776 47.6799 202.685C48.7257 202.594 49.5782 202.378 49.5555 202.219C49.5327 202.06 48.6802 201.992 47.6345 202.094C46.5887 202.197 45.7362 202.39 45.7589 202.56Z" fill="#F5F5F5"/>
<path d="M40.7011 201.878C41.2302 201.127 41.5835 200.266 41.735 199.36C41.8865 198.453 41.8322 197.525 41.5763 196.642C41.3435 197.5 41.1987 198.379 41.1444 199.266C40.9065 200.119 40.758 200.995 40.7011 201.878Z" fill="#F5F5F5"/>
<path d="M41.6329 209.126C41.6329 209.285 42.315 209.557 43.2357 209.739C44.1564 209.921 44.9293 209.932 44.9634 209.739C44.9975 209.546 44.27 209.307 43.3493 209.126C42.4286 208.944 41.6556 208.967 41.6329 209.126Z" fill="#F5F5F5"/>
<path d="M68.4475 173.947C68.5612 174.072 69.0159 173.822 69.3114 173.288C69.607 172.754 69.5615 172.232 69.4024 172.209C69.2432 172.186 69.0386 172.561 68.7885 173.004C68.5385 173.447 68.3339 173.833 68.4475 173.947Z" fill="#F5F5F5"/>
<path d="M65.276 172.993C65.4237 173.072 65.7875 172.629 66.0944 172.016C66.4013 171.402 66.5377 170.88 66.3899 170.778C66.2421 170.675 65.8784 171.141 65.5715 171.755C65.2646 172.368 65.1282 172.925 65.276 172.993Z" fill="#F5F5F5"/>
<path d="M77.6546 172.368C77.6546 172.527 78.1775 172.618 78.7913 172.584C79.4051 172.55 79.928 172.368 79.928 172.209C79.928 172.05 79.4051 171.948 78.7913 171.993C78.1775 172.039 77.6432 172.198 77.6546 172.368Z" fill="#F5F5F5"/>
<path d="M57.5463 152.49C57.5463 152.49 57.6714 152.49 57.876 152.49C58.188 152.387 58.4859 152.246 58.7626 152.069C59.2818 151.747 59.7267 151.318 60.0676 150.811C60.4086 150.304 60.6379 149.73 60.7404 149.127C60.8202 148.336 60.9493 147.551 61.1269 146.776C61.247 146.391 61.4907 146.055 61.8203 145.822C62.2031 145.589 62.6217 145.42 63.0593 145.322C63.5787 145.211 64.0799 145.027 64.5483 144.777C65.0419 144.452 65.4137 143.973 65.6054 143.414C66.0147 142.369 66.0374 141.142 66.6626 140.404C68.0379 138.814 70.9024 140.404 72.5392 138.507C73.0298 137.68 73.3686 136.772 73.5395 135.826C73.8397 134.917 74.4824 134.161 75.3312 133.718C76.1801 133.275 77.1682 133.179 78.0862 133.452C78.4738 133.594 78.8533 133.757 79.2229 133.941C79.2229 133.941 79.2229 133.838 78.9842 133.702C78.7203 133.506 78.4293 133.349 78.1204 133.236C77.5426 133.024 76.9228 132.953 76.312 133.028C75.7013 133.103 75.1171 133.323 74.608 133.668C73.8891 134.152 73.3435 134.852 73.0507 135.667C72.8722 136.543 72.5496 137.384 72.0959 138.155C71.7377 138.467 71.3181 138.701 70.8639 138.842C70.4098 138.983 69.9312 139.028 69.4588 138.973C68.8989 138.979 68.3402 139.028 67.7879 139.12C67.1665 139.234 66.6019 139.554 66.1852 140.029C65.3895 141.074 65.4236 142.301 65.0485 143.209C64.905 143.669 64.6132 144.069 64.2187 144.345C63.8008 144.573 63.3531 144.741 62.8888 144.845C62.3906 144.961 61.9172 145.165 61.4907 145.447C61.0826 145.75 60.7835 146.176 60.6381 146.663C60.4628 147.466 60.3526 148.283 60.3085 149.105C60.2272 149.665 60.0356 150.203 59.7449 150.688C59.4542 151.174 59.0701 151.597 58.6148 151.933C57.9328 152.319 57.5236 152.444 57.5463 152.49Z" fill="#455A64"/>
<path d="M80.4283 396.696C80.4402 396.575 80.4402 396.453 80.4283 396.333C80.4283 396.049 80.4283 395.696 80.4283 395.197C80.4283 394.208 80.5193 392.811 80.5875 391.028C80.7125 387.359 80.8831 382.123 81.099 375.671C81.5537 362.676 82.1675 344.797 82.8495 325.032C83.5315 305.268 83.9066 287.343 83.9862 274.371C83.9862 267.885 83.9862 262.638 83.9862 259.014C83.9862 257.231 83.9862 255.822 83.9862 254.834C83.9862 254.38 83.9862 254.027 83.9862 253.698C84.0007 253.577 84.0007 253.455 83.9862 253.335C83.9691 253.455 83.9691 253.578 83.9862 253.698V254.834C83.9862 255.822 83.9862 257.231 83.9862 259.014C83.9293 262.672 83.8725 267.908 83.7816 274.36C83.5883 287.332 83.111 305.234 82.4631 325.021C81.8151 344.808 81.2127 362.699 80.883 375.659C80.7239 382.145 80.6102 387.393 80.5647 391.017C80.5647 392.8 80.5647 394.197 80.5647 395.197V396.276C80.5061 396.411 80.4604 396.552 80.4283 396.696Z" fill="#263238"/>
<path d="M32.6417 398.184C32.8009 398.184 38.8366 365.766 46.1228 325.725C53.4089 285.685 59.1833 253.176 59.0696 253.153C58.956 253.13 52.8747 285.56 45.5886 325.623C38.3024 365.686 32.4826 398.116 32.6417 398.184Z" fill="#263238"/>
<path d="M70.9479 262.535C70.9479 262.535 71.1638 262.683 71.6298 262.638C72.2749 262.527 72.8549 262.178 73.2553 261.661C73.7951 260.894 74.1457 260.01 74.2783 259.082C74.4943 258.083 74.6989 256.981 74.8694 255.811C75.1749 253.825 75.3571 251.822 75.415 249.813C75.4926 248.98 75.462 248.14 75.3241 247.314C75.1422 247.314 74.9831 251.108 74.2897 255.731C74.1078 256.867 73.9259 258.003 73.7441 258.969C73.6497 259.832 73.3706 260.665 72.9257 261.411C72.6034 261.885 72.131 262.237 71.5844 262.41C71.1866 262.524 70.9479 262.479 70.9479 262.535Z" fill="#263238"/>
<path d="M73.1647 248.178C73.0965 248.246 73.1647 248.439 73.0965 248.7C73.0802 248.77 73.0471 248.836 72.9999 248.89C72.9527 248.945 72.8929 248.987 72.8257 249.013C72.7585 249.039 72.6859 249.048 72.6143 249.04C72.5426 249.032 72.4741 249.007 72.4145 248.966C72.355 248.925 72.3063 248.871 72.2726 248.807C72.2389 248.743 72.2213 248.672 72.2213 248.6C72.2213 248.528 72.2389 248.457 72.2726 248.393C72.3063 248.33 72.3549 248.275 72.4145 248.234C72.6191 248.053 72.8351 248.064 72.8578 247.985C72.8805 247.905 72.6418 247.689 72.1985 247.882C72.0682 247.938 71.953 248.023 71.8621 248.132C71.7712 248.241 71.7073 248.369 71.6757 248.507C71.6449 248.688 71.6685 248.874 71.7433 249.042C71.8181 249.21 71.9409 249.352 72.0962 249.45C72.2482 249.555 72.4286 249.611 72.6134 249.611C72.7982 249.611 72.9786 249.555 73.1306 249.45C73.245 249.368 73.3391 249.26 73.4061 249.136C73.473 249.012 73.511 248.875 73.5171 248.734C73.5171 248.268 73.1988 248.178 73.1647 248.178Z" fill="#263238"/>
</g>
<defs>
<clipPath id="clip0_7_1189">
<rect width="332" height="430" fill="white"/>
</clipPath>
</defs>
</svg>
